<?xml version="1.0" encoding="utf-8"?>
<!-- Generator: Adobe Illustrator 20.1.0, SVG Export Plug-In . SVG Version: 6.00 Build 0)  -->
<svg version="1.1" id="Laag_1" xmlns="http://www.w3.org/2000/svg" xmlns:xlink="http://www.w3.org/1999/xlink" x="0px" y="0px"
	 viewBox="0 0 24 24" style="enable-background:new 0 0 24 24;" xml:space="preserve">
<style type="text/css">
	.st0{fill:#EAEDEE;}
</style>
<path class="st0" d="M19,21.2v-9.6h-2.3v9.6H19z M20.1,3.1H19V0.9h-2.3v2.3h-9V0.9H5.5v2.3H4.3C3.1,3.2,2,4.2,2,5.5v15.8
	c0,1.2,1,2.3,2.3,2.3h15.8c1.2,0,2.3-1,2.3-2.3V5.4C22.4,4.1,21.4,3.1,20.1,3.1z M20.1,21.2H4.3V8.8h15.8V21.2z M7.8,21.2v-9.6H5.6
	v9.6H7.8z M13.4,21.5v-9.6h-2.3v9.6H13.4z M20.1,17.8H4.3v1.4h15.8V17.8z M20.1,14.3H4.3v1.4h15.8V14.3z"/>
</svg>
