<?xml version="1.0" encoding="utf-8"?>
<!-- Generator: Adobe Illustrator 20.1.0, SVG Export Plug-In . SVG Version: 6.00 Build 0)  -->
<svg version="1.1" id="Laag_1" xmlns="http://www.w3.org/2000/svg" xmlns:xlink="http://www.w3.org/1999/xlink" x="0px" y="0px"
	 viewBox="0 0 87.3 82" style="enable-background:new 0 0 87.3 82;" xml:space="preserve">
<style type="text/css">
	.st0{fill:#999A9C;}
	.st1{fill:none;}
</style>
<g transform="matrix( 1, 0, 0, 1, 0,0) ">
	<g>
		<g id="b">
			<path class="st0" d="M14.8,40.7v37.9h19.9V61.3h17.8v17.2h20V40.3L43.3,15.2L14.8,40.7 M80.8,42.5l4.3-5L44,1.3L2.6,37.8l4.6,4.6
				L44,10L80.8,42.5z"/>
		</g>
	</g>
	<g>
		<path id="a" class="st1" d="M7.3,42.3l-4.6-4.6L44,1.3l41.1,36.2l-4.3,5L44,10L7.3,42.3z M14.8,40.7l28.5-25.5l29.1,25.1v38.2h-20
			V61.3H34.7v17.2H14.8V40.7z"/>
	</g>
</g>
</svg>
