<?xml version="1.0" standalone="no"?><!DOCTYPE svg PUBLIC "-//W3C//DTD SVG 1.1//EN" "http://www.w3.org/Graphics/SVG/1.1/DTD/svg11.dtd" ><svg version="1.1" xmlns="http://www.w3.org/2000/svg"><defs><font horiz-adv-x="0" id="font"><font-face ascent="750" bbox="-56 -238 1228 926" cap-height="698" descent="-250" font-family="DFDS" font-stretch="normal" font-style="normal" font-weight="700" units-per-em="1000" x-height="528" /><missing-glyph d="M553 685C553 695 550 698 540 698H63C53 698 50 695 50 685V13C50 3 53 0 63 0H540C550 0 553 3 553 13ZM234 167C234 174 236 176 243 176H295C302 176 304 174 304 167V119C304 112 302 110 295 110H243C236 110 234 112 234 119ZM247 283C247 345 274 365 310 383L356 406C386 421 390 438 390 471V483C390 552 353 554 287 554C251 554 208 552 186 550C179 550 177 552 177 559V581C177 588 181 590 186 590C209 592 252 594 287 594C353 594 433 594 433 485V468C433 406 407 386 372 368L326 346C295 331 291 313 291 280V260C291 253 289 251 282 251H256C249 251 247 253 247 260Z" horiz-adv-x="603" /><glyph d="M580 521C580 637 508 706 384 706H241C117 706 45 637 45 521V16C45 4 49 0 61 0H180C192 0 196 4 196 16V219H429V16C429 4 433 0 445 0H564C576 0 580 4 580 16ZM196 495C196 545 215 565 262 565H363C410 565 429 545 429 495V360H196Z" glyph-name="A" horiz-adv-x="625" unicode="A" /><glyph d="M551 141C526 141 519 153 519 177V284H741C753 284 757 288 757 300V409C757 421 753 425 741 425H519V557H762C774 557 778 561 778 573V682C778 694 774 698 762 698H241C117 698 45 629 45 513V16C45 4 49 0 61 0H180C192 0 196 4 196 16V219H368V146C368 41 409 0 514 0H770C782 0 786 4 786 16V125C786 137 782 141 770 141ZM196 487C196 537 215 557 262 557H368V360H196Z" glyph-name="AE" horiz-adv-x="815" unicode="&#198;" /><glyph d="M580 521C580 637 508 706 384 706H241C117 706 45 637 45 521V16C45 4 49 0 61 0H180C192 0 196 4 196 16V219H429V16C429 4 433 0 445 0H564C576 0 580 4 580 16ZM196 495C196 545 215 565 262 565H363C410 565 429 545 429 495V360H196ZM356 754C368 754 374 759 383 770L451 852C458 860 467 871 467 879C467 886 462 889 452 889H322C310 889 306 885 299 873L251 791C247 784 239 771 239 764C239 757 244 754 254 754Z" glyph-name="Aacute" horiz-adv-x="625" unicode="&#193;" /><glyph d="M580 521C580 637 508 706 384 706H241C117 706 45 637 45 521V16C45 4 49 0 61 0H180C192 0 196 4 196 16V219H429V16C429 4 433 0 445 0H564C576 0 580 4 580 16ZM196 495C196 545 215 565 262 565H363C410 565 429 545 429 495V360H196ZM463 873C463 885 459 889 447 889H365C353 889 349 885 349 873V859C349 841 342 833 323 833H302C284 833 276 841 276 859V873C276 885 272 889 260 889H178C166 889 162 885 162 873V828C162 779 190 752 239 752H385C435 752 463 779 463 827Z" glyph-name="Abreve" horiz-adv-x="625" unicode="&#258;" /><glyph d="M580 521C580 637 508 706 384 706H241C117 706 45 637 45 521V16C45 4 49 0 61 0H180C192 0 196 4 196 16V219H429V16C429 4 433 0 445 0H564C576 0 580 4 580 16ZM196 495C196 545 215 565 262 565H363C410 565 429 545 429 495V360H196ZM448 754C458 754 463 757 463 764C463 771 456 782 450 791L396 873C388 885 385 889 373 889H251C239 889 236 885 228 873L175 791C169 782 162 771 162 764C162 757 167 754 177 754H264C276 754 281 758 287 770L312 823L337 770C343 758 348 754 360 754Z" glyph-name="Acircumflex" horiz-adv-x="625" unicode="&#194;" /><glyph d="M580 521C580 637 508 706 384 706H241C117 706 45 637 45 521V16C45 4 49 0 61 0H180C192 0 196 4 196 16V219H429V16C429 4 433 0 445 0H564C576 0 580 4 580 16ZM196 495C196 545 215 565 262 565H363C410 565 429 545 429 495V360H196ZM278 873C278 885 274 889 262 889H147C135 889 131 885 131 873V770C131 758 135 754 147 754H262C274 754 278 758 278 770ZM494 873C494 885 490 889 478 889H363C351 889 347 885 347 873V770C347 758 351 754 363 754H478C490 754 494 758 494 770Z" glyph-name="Adieresis" horiz-adv-x="625" unicode="&#196;" /><glyph d="M580 521C580 637 508 706 384 706H241C117 706 45 637 45 521V16C45 4 49 0 61 0H180C192 0 196 4 196 16V219H429V16C429 4 433 0 445 0H564C576 0 580 4 580 16ZM196 495C196 545 215 565 262 565H363C410 565 429 545 429 495V360H196ZM363 754C373 754 378 757 378 764C378 771 370 784 366 791L318 873C311 885 307 889 295 889H166C156 889 151 886 151 879C151 871 160 860 167 852L235 770C244 759 250 754 262 754Z" glyph-name="Agrave" horiz-adv-x="625" unicode="&#192;" /><glyph d="M580 521C580 637 508 706 384 706H241C117 706 45 637 45 521V16C45 4 49 0 61 0H180C192 0 196 4 196 16V219H429V16C429 4 433 0 445 0H564C576 0 580 4 580 16ZM196 495C196 545 215 565 262 565H363C410 565 429 545 429 495V360H196ZM446 764C458 764 462 768 462 780V863C462 875 458 879 446 879H178C166 879 162 875 162 863V780C162 768 166 764 178 764Z" glyph-name="Amacron" horiz-adv-x="625" unicode="&#256;" /><glyph d="M589 -82C589 -72 586 -69 576 -69H569C546 -69 532 -64 532 -46C532 -18 568 -2 573 1C579 4 580 9 580 16V521C580 637 508 706 384 706H241C117 706 45 637 45 521V16C45 4 49 0 61 0H180C192 0 196 4 196 16V219H429V16C429 4 433 0 445 0H453C429 -16 401 -43 401 -82C401 -151 477 -160 544 -160C559 -160 571 -159 576 -159C586 -158 589 -156 589 -146ZM196 495C196 545 215 565 262 565H363C410 565 429 545 429 495V360H196Z" glyph-name="Aogonek" horiz-adv-x="625" unicode="&#260;" /><glyph d="M580 521C580 637 508 706 384 706H241C117 706 45 637 45 521V16C45 4 49 0 61 0H180C192 0 196 4 196 16V219H429V16C429 4 433 0 445 0H564C576 0 580 4 580 16ZM196 495C196 545 215 565 262 565H363C410 565 429 545 429 495V360H196ZM437 849C437 898 409 926 359 926H265C216 926 188 898 188 849V808C188 759 216 732 265 732H359C409 732 437 759 437 807ZM269 840C269 858 276 866 295 866H330C348 866 356 858 356 840V816C356 798 349 790 330 790H295C277 790 269 798 269 816Z" glyph-name="Aring" horiz-adv-x="625" unicode="&#197;" /><glyph d="M580 521C580 637 508 706 384 706H241C117 706 45 637 45 521V16C45 4 49 0 61 0H180C192 0 196 4 196 16V219H429V16C429 4 433 0 445 0H564C576 0 580 4 580 16ZM196 495C196 545 215 565 262 565H363C410 565 429 545 429 495V360H196ZM229 780C229 793 231 804 248 804C277 804 303 746 382 746C451 746 494 784 494 859V873C494 885 490 889 478 889H412C400 889 396 885 396 873V863C396 850 394 839 377 839C348 839 322 897 243 897C174 897 131 859 131 784V770C131 758 135 754 147 754H213C225 754 229 758 229 770Z" glyph-name="Atilde" horiz-adv-x="625" unicode="&#195;" /><glyph d="M382 0C506 0 579 63 579 179V232C579 353 471 363 466 364C475 365 570 383 570 498V522C570 638 497 698 373 698H66C54 698 50 694 50 682V16C50 4 54 0 66 0ZM201 137V295H359C406 295 425 280 425 230V202C425 152 410 137 363 137ZM201 409V561H354C401 561 416 547 416 499V471C416 419 394 409 350 409Z" glyph-name="B" horiz-adv-x="601" unicode="B" /><glyph d="M513 14V123C513 135 509 139 497 139C435 138 327 136 256 136C209 136 190 156 190 206V492C190 542 209 562 256 562C320 562 428 560 491 559C503 559 507 563 507 575V684C507 696 503 700 491 700C426 701 311 703 234 703C110 703 38 634 38 518V180C38 64 110 -5 234 -5C307 -5 427 -3 497 -2C509 -2 513 2 513 14Z" glyph-name="C" horiz-adv-x="537" unicode="C" /><glyph d="M513 14V123C513 135 509 139 497 139C435 138 327 136 256 136C209 136 190 156 190 206V492C190 542 209 562 256 562C320 562 428 560 491 559C503 559 507 563 507 575V684C507 696 503 700 491 700C426 701 311 703 234 703C110 703 38 634 38 518V180C38 64 110 -5 234 -5C307 -5 427 -3 497 -2C509 -2 513 2 513 14ZM349 754C361 754 367 759 376 770L444 852C451 860 460 871 460 879C460 886 455 889 445 889H315C303 889 299 885 292 873L244 791C240 784 232 771 232 764C232 757 237 754 247 754Z" glyph-name="Cacute" horiz-adv-x="537" unicode="&#262;" /><glyph d="M513 14V123C513 135 509 139 497 139C435 138 327 136 256 136C209 136 190 156 190 206V492C190 542 209 562 256 562C320 562 428 560 491 559C503 559 507 563 507 575V684C507 696 503 700 491 700C426 701 311 703 234 703C110 703 38 634 38 518V180C38 64 110 -5 234 -5C307 -5 427 -3 497 -2C509 -2 513 2 513 14ZM160 889C150 889 145 886 145 879C145 872 152 861 158 852L212 770C220 758 223 754 235 754H357C369 754 372 758 380 770L433 852C439 861 446 872 446 879C446 886 441 889 431 889H344C332 889 327 885 321 873L296 820L271 873C265 885 260 889 248 889Z" glyph-name="Ccaron" horiz-adv-x="537" unicode="&#268;" /><glyph d="M241 -48C241 -59 245 -60 257 -63C266 -65 283 -69 283 -85C283 -104 264 -106 241 -106H234C224 -106 221 -109 221 -119V-146C221 -156 224 -158 234 -159C239 -159 251 -160 266 -160C333 -160 409 -150 409 -87C409 -30 338 -24 306 -24V-5C372 -4 454 -3 497 -2C509 -2 513 2 513 14V123C513 135 509 139 497 139C435 138 327 136 256 136C209 136 190 156 190 206V492C190 542 209 562 256 562C320 562 428 560 491 559C503 559 507 563 507 575V684C507 696 503 700 491 700C426 701 311 703 234 703C110 703 38 634 38 518V180C38 64 110 -5 234 -5H241Z" glyph-name="Ccedilla" horiz-adv-x="537" unicode="&#199;" /><glyph d="M201 141V557H368C415 557 434 537 434 487V211C434 161 415 141 368 141ZM389 0C513 0 585 69 585 185V513C585 629 513 698 389 698H66C54 698 50 694 50 682V16C50 4 54 0 66 0Z" glyph-name="D" horiz-adv-x="623" unicode="D" /><glyph d="M201 141V557H368C415 557 434 537 434 487V211C434 161 415 141 368 141ZM389 0C513 0 585 69 585 185V513C585 629 513 698 389 698H66C54 698 50 694 50 682V16C50 4 54 0 66 0ZM166 889C156 889 151 886 151 879C151 872 158 861 164 852L218 770C226 758 229 754 241 754H363C375 754 378 758 386 770L439 852C445 861 452 872 452 879C452 886 447 889 437 889H350C338 889 333 885 327 873L302 820L277 873C271 885 266 889 254 889Z" glyph-name="Dcaron" horiz-adv-x="623" unicode="&#270;" /><glyph d="M68 286V16C68 4 72 0 84 0H407C531 0 603 69 603 185V513C603 629 531 698 407 698H84C72 698 68 694 68 682V419H18C6 419 2 415 2 403V302C2 290 6 286 18 286ZM219 141V286H321C333 286 337 290 337 302V403C337 415 333 419 321 419H219V557H386C433 557 452 537 452 487V211C452 161 433 141 386 141Z" glyph-name="Dcroat" horiz-adv-x="641" unicode="&#272;" /><glyph d="M231 141C206 141 199 153 199 177V284H477C489 284 493 288 493 300V409C493 421 489 425 477 425H199V557H498C510 557 514 561 514 573V682C514 694 510 698 498 698H64C52 698 48 694 48 682V146C48 41 89 0 194 0H506C518 0 522 4 522 16V125C522 137 518 141 506 141Z" glyph-name="E" horiz-adv-x="551" unicode="E" /><glyph d="M231 141C206 141 199 153 199 177V284H477C489 284 493 288 493 300V409C493 421 489 425 477 425H199V557H498C510 557 514 561 514 573V682C514 694 510 698 498 698H64C52 698 48 694 48 682V146C48 41 89 0 194 0H506C518 0 522 4 522 16V125C522 137 518 141 506 141ZM326 754C338 754 344 759 353 770L421 852C428 860 437 871 437 879C437 886 432 889 422 889H292C280 889 276 885 269 873L221 791C217 784 209 771 209 764C209 757 214 754 224 754Z" glyph-name="Eacute" horiz-adv-x="551" unicode="&#201;" /><glyph d="M231 141C206 141 199 153 199 177V284H477C489 284 493 288 493 300V409C493 421 489 425 477 425H199V557H498C510 557 514 561 514 573V682C514 694 510 698 498 698H64C52 698 48 694 48 682V146C48 41 89 0 194 0H506C518 0 522 4 522 16V125C522 137 518 141 506 141ZM144 889C134 889 129 886 129 879C129 872 136 861 142 852L196 770C204 758 207 754 219 754H341C353 754 356 758 364 770L417 852C423 861 430 872 430 879C430 886 425 889 415 889H328C316 889 311 885 305 873L280 820L255 873C249 885 244 889 232 889Z" glyph-name="Ecaron" horiz-adv-x="551" unicode="&#282;" /><glyph d="M231 141C206 141 199 153 199 177V284H477C489 284 493 288 493 300V409C493 421 489 425 477 425H199V557H498C510 557 514 561 514 573V682C514 694 510 698 498 698H64C52 698 48 694 48 682V146C48 41 89 0 194 0H506C518 0 522 4 522 16V125C522 137 518 141 506 141ZM416 754C426 754 431 757 431 764C431 771 424 782 418 791L364 873C356 885 353 889 341 889H219C207 889 204 885 196 873L143 791C137 782 130 771 130 764C130 757 135 754 145 754H232C244 754 249 758 255 770L280 823L305 770C311 758 316 754 328 754Z" glyph-name="Ecircumflex" horiz-adv-x="551" unicode="&#202;" /><glyph d="M231 141C206 141 199 153 199 177V284H477C489 284 493 288 493 300V409C493 421 489 425 477 425H199V557H498C510 557 514 561 514 573V682C514 694 510 698 498 698H64C52 698 48 694 48 682V146C48 41 89 0 194 0H506C518 0 522 4 522 16V125C522 137 518 141 506 141ZM248 873C248 885 244 889 232 889H117C105 889 101 885 101 873V770C101 758 105 754 117 754H232C244 754 248 758 248 770ZM464 873C464 885 460 889 448 889H333C321 889 317 885 317 873V770C317 758 321 754 333 754H448C460 754 464 758 464 770Z" glyph-name="Edieresis" horiz-adv-x="551" unicode="&#203;" /><glyph d="M231 141C206 141 199 153 199 177V284H477C489 284 493 288 493 300V409C493 421 489 425 477 425H199V557H498C510 557 514 561 514 573V682C514 694 510 698 498 698H64C52 698 48 694 48 682V146C48 41 89 0 194 0H506C518 0 522 4 522 16V125C522 137 518 141 506 141ZM366 873C366 885 362 889 350 889H213C201 889 197 885 197 873V770C197 758 201 754 213 754H350C362 754 366 758 366 770Z" glyph-name="Edotaccent" horiz-adv-x="551" unicode="&#278;" /><glyph d="M231 141C206 141 199 153 199 177V284H477C489 284 493 288 493 300V409C493 421 489 425 477 425H199V557H498C510 557 514 561 514 573V682C514 694 510 698 498 698H64C52 698 48 694 48 682V146C48 41 89 0 194 0H506C518 0 522 4 522 16V125C522 137 518 141 506 141ZM331 754C341 754 346 757 346 764C346 771 338 784 334 791L286 873C279 885 275 889 263 889H134C124 889 119 886 119 879C119 871 128 860 135 852L203 770C212 759 218 754 230 754Z" glyph-name="Egrave" horiz-adv-x="551" unicode="&#200;" /><glyph d="M231 141C206 141 199 153 199 177V284H477C489 284 493 288 493 300V409C493 421 489 425 477 425H199V557H498C510 557 514 561 514 573V682C514 694 510 698 498 698H64C52 698 48 694 48 682V146C48 41 89 0 194 0H506C518 0 522 4 522 16V125C522 137 518 141 506 141ZM412 764C424 764 428 768 428 780V863C428 875 424 879 412 879H144C132 879 128 875 128 863V780C128 768 132 764 144 764Z" glyph-name="Emacron" horiz-adv-x="551" unicode="&#274;" /><glyph d="M471 51C471 1 452 -19 405 -19C357 -19 302 -18 274 -17C262 -17 258 -21 258 -33V-142C258 -154 262 -158 274 -158C300 -159 357 -160 421 -160C545 -160 617 -91 617 25V682C617 694 613 698 601 698H487C475 698 471 694 471 682V468C471 415 474 347 476 310L224 682C216 694 213 698 201 698H66C54 698 50 694 50 682V16C50 4 54 0 66 0H180C192 0 196 4 196 16V297C196 350 193 418 191 455Z" glyph-name="Eng" horiz-adv-x="667" unicode="&#330;" /><glyph d="M530 -82C530 -72 527 -69 517 -69H510C487 -69 473 -64 473 -46C473 -22 502 -5 513 0C519 3 522 6 522 16V125C522 137 518 141 506 141H231C206 141 199 153 199 177V284H477C489 284 493 288 493 300V409C493 421 489 425 477 425H199V557H498C510 557 514 561 514 573V682C514 694 510 698 498 698H64C52 698 48 694 48 682V146C48 41 89 0 194 0H392C368 -16 342 -43 342 -82C342 -151 418 -160 485 -160C500 -160 512 -159 517 -159C527 -158 530 -156 530 -146Z" glyph-name="Eogonek" horiz-adv-x="551" unicode="&#280;" /><glyph d="M68 286V16C68 4 72 0 84 0H407C531 0 603 69 603 185V513C603 629 531 698 407 698H84C72 698 68 694 68 682V419H18C6 419 2 415 2 403V302C2 290 6 286 18 286ZM219 141V286H321C333 286 337 290 337 302V403C337 415 333 419 321 419H219V557H386C433 557 452 537 452 487V211C452 161 433 141 386 141Z" glyph-name="Eth" horiz-adv-x="641" unicode="&#208;" /><glyph d="M345 224C357 224 361 228 368 240L396 289C400 296 408 309 408 316C408 323 403 326 393 326H245V373H421C433 373 437 377 444 389L472 438C476 445 484 458 484 465C484 472 479 475 469 475H245V492C245 542 264 562 311 562C375 562 474 560 531 559C543 559 547 563 547 575V684C547 696 543 700 531 700C472 701 366 703 289 703C165 703 93 634 93 518V475H73C61 475 57 471 50 459L22 410C18 403 10 390 10 383C10 376 15 373 25 373H93V326H70C58 326 54 322 47 310L19 261C15 254 7 241 7 234C7 227 12 224 22 224H93V180C93 64 165 -5 289 -5C362 -5 473 -3 537 -2C549 -2 553 2 553 14V123C553 135 549 139 537 139C482 138 382 136 311 136C264 136 245 156 245 206V224Z" glyph-name="Euro" horiz-adv-x="584" unicode="&#8364;" /><glyph d="M201 265H474C486 265 490 269 490 281V390C490 402 486 406 474 406H201V557H495C507 557 511 561 511 573V682C511 694 507 698 495 698H66C54 698 50 694 50 682V16C50 4 54 0 66 0H185C197 0 201 4 201 16Z" glyph-name="F" horiz-adv-x="531" unicode="F" /><glyph d="M374 0C386 0 390 4 397 16L427 68L457 16C464 4 468 0 480 0H560C572 0 576 4 576 16V345C576 357 572 361 560 361H440C428 361 424 357 424 345V141H256C209 141 190 161 190 211V495C190 545 209 565 256 565C345 565 467 564 535 563C547 563 551 567 551 579V687C551 699 547 703 535 703C461 704 327 706 234 706C110 706 38 637 38 521V185C38 69 110 0 234 0Z" glyph-name="G" horiz-adv-x="618" unicode="G" /><glyph d="M374 0C386 0 390 4 397 16L427 68L457 16C464 4 468 0 480 0H560C572 0 576 4 576 16V345C576 357 572 361 560 361H440C428 361 424 357 424 345V141H256C209 141 190 161 190 211V495C190 545 209 565 256 565C345 565 467 564 535 563C547 563 551 567 551 579V687C551 699 547 703 535 703C461 704 327 706 234 706C110 706 38 637 38 521V185C38 69 110 0 234 0ZM247 -238H315C327 -238 334 -234 342 -222L385 -161C390 -152 392 -147 392 -134V-66C392 -54 388 -50 376 -50H246C234 -50 230 -54 230 -66V-146C230 -158 234 -162 246 -162H283L247 -205C240 -213 232 -222 232 -228C232 -235 237 -238 247 -238Z" glyph-name="Gcommaaccent" horiz-adv-x="618" unicode="&#290;" /><glyph d="M50 16C50 4 54 0 66 0H185C197 0 201 4 201 16V284H446V16C446 4 450 0 462 0H581C593 0 597 4 597 16V682C597 694 593 698 581 698H462C450 698 446 694 446 682V425H201V682C201 694 197 698 185 698H66C54 698 50 694 50 682Z" glyph-name="H" horiz-adv-x="647" unicode="H" /><glyph d="M201 682C201 694 197 698 185 698H66C54 698 50 694 50 682V16C50 4 54 0 66 0H185C197 0 201 4 201 16Z" glyph-name="I" horiz-adv-x="251" unicode="I" /><glyph d="M201 682C201 694 197 698 185 698H66C54 698 50 694 50 682V16C50 4 54 0 66 0H185C197 0 201 4 201 16ZM179 754C191 754 197 759 206 770L274 852C281 860 290 871 290 879C290 886 285 889 275 889H145C133 889 129 885 122 873L74 791C70 784 62 771 62 764C62 757 67 754 77 754Z" glyph-name="Iacute" horiz-adv-x="251" unicode="&#205;" /><glyph d="M201 682C201 694 197 698 185 698H66C54 698 50 694 50 682V16C50 4 54 0 66 0H185C197 0 201 4 201 16ZM261 754C271 754 276 757 276 764C276 771 269 782 263 791L209 873C201 885 198 889 186 889H64C52 889 49 885 41 873L-12 791C-18 782 -25 771 -25 764C-25 757 -20 754 -10 754H77C89 754 94 758 100 770L125 823L150 770C156 758 161 754 173 754Z" glyph-name="Icircumflex" horiz-adv-x="251" unicode="&#206;" /><glyph d="M201 682C201 694 197 698 185 698H66C54 698 50 694 50 682V16C50 4 54 0 66 0H185C197 0 201 4 201 16ZM92 873C92 885 88 889 76 889H-39C-51 889 -55 885 -55 873V770C-55 758 -51 754 -39 754H76C88 754 92 758 92 770ZM308 873C308 885 304 889 292 889H177C165 889 161 885 161 873V770C161 758 165 754 177 754H292C304 754 308 758 308 770Z" glyph-name="Idieresis" horiz-adv-x="251" unicode="&#207;" /><glyph d="M201 682C201 694 197 698 185 698H66C54 698 50 694 50 682V16C50 4 54 0 66 0H185C197 0 201 4 201 16ZM177 754C187 754 192 757 192 764C192 771 184 784 180 791L132 873C125 885 121 889 109 889H-20C-30 889 -35 886 -35 879C-35 871 -26 860 -19 852L49 770C58 759 64 754 76 754Z" glyph-name="Igrave" horiz-adv-x="251" unicode="&#204;" /><glyph d="M244 764C256 764 260 768 260 780V863C260 875 256 879 244 879H7C-5 879 -9 875 -9 863V780C-9 768 -5 764 7 764ZM201 682C201 694 197 698 185 698H66C54 698 50 694 50 682V16C50 4 54 0 66 0H185C197 0 201 4 201 16Z" glyph-name="Imacron" horiz-adv-x="251" unicode="&#298;" /><glyph d="M201 682C201 694 197 698 185 698H66C54 698 50 694 50 682V16C50 4 54 0 66 0H74C50 -16 22 -43 22 -82C22 -151 98 -160 165 -160C180 -160 192 -159 197 -159C207 -158 210 -156 210 -146V-82C210 -72 207 -69 197 -69H190C167 -69 153 -64 153 -46C153 -18 189 -2 194 1C200 4 201 9 201 16Z" glyph-name="Iogonek" horiz-adv-x="251" unicode="&#302;" /><glyph d="M201 682C201 694 197 698 185 698H66C54 698 50 694 50 682V16C50 4 54 0 66 0H185C197 0 201 4 201 16ZM42 780C42 793 44 804 61 804C90 804 116 746 195 746C264 746 307 784 307 859V873C307 885 303 889 291 889H225C213 889 209 885 209 873V863C209 850 207 839 190 839C161 839 135 897 56 897C-13 897 -56 859 -56 784V770C-56 758 -52 754 -40 754H26C38 754 42 758 42 770Z" glyph-name="Itilde" horiz-adv-x="251" unicode="&#296;" /><glyph d="M282 557V208C282 158 263 138 216 138C168 138 88 139 41 140C29 140 25 136 25 124V15C25 3 29 -1 41 -1C88 -2 173 -3 237 -3C361 -3 433 66 433 182V682C433 694 429 698 417 698H69C57 698 53 694 53 682V573C53 561 57 557 69 557Z" glyph-name="J" horiz-adv-x="478" unicode="J" /><glyph d="M384 364 592 670C598 679 600 683 600 688C600 695 595 698 585 698H454C442 698 437 693 430 682L261 427H201V682C201 694 197 698 185 698H66C54 698 50 694 50 682V16C50 4 54 0 66 0H185C197 0 201 4 201 16V288H261L436 16C443 5 448 0 460 0H603C613 0 618 3 618 10C618 15 615 20 610 28Z" glyph-name="K" horiz-adv-x="618" unicode="K" /><glyph d="M252 -238H320C332 -238 339 -234 347 -222L390 -161C395 -152 397 -147 397 -134V-66C397 -54 393 -50 381 -50H251C239 -50 235 -54 235 -66V-146C235 -158 239 -162 251 -162H288L252 -205C245 -213 237 -222 237 -228C237 -235 242 -238 252 -238ZM384 364 592 670C598 679 600 683 600 688C600 695 595 698 585 698H454C442 698 437 693 430 682L261 427H201V682C201 694 197 698 185 698H66C54 698 50 694 50 682V16C50 4 54 0 66 0H185C197 0 201 4 201 16V288H261L436 16C443 5 448 0 460 0H603C613 0 618 3 618 10C618 15 615 20 610 28Z" glyph-name="Kcommaaccent" horiz-adv-x="618" unicode="&#310;" /><glyph d="M50 16C50 4 54 0 66 0H474C486 0 490 4 490 16V125C490 137 486 141 474 141H201V682C201 694 197 698 185 698H66C54 698 50 694 50 682Z" glyph-name="L" horiz-adv-x="500" unicode="L" /><glyph d="M50 16C50 4 54 0 66 0H474C486 0 490 4 490 16V125C490 137 486 141 474 141H201V682C201 694 197 698 185 698H66C54 698 50 694 50 682ZM178 754C190 754 196 759 205 770L273 852C280 860 289 871 289 879C289 886 284 889 274 889H144C132 889 128 885 121 873L73 791C69 784 61 771 61 764C61 757 66 754 76 754Z" glyph-name="Lacute" horiz-adv-x="500" unicode="&#313;" /><glyph d="M405 575C417 575 422 578 427 591L466 692C470 703 474 711 474 718C474 725 469 729 458 729H352C340 729 336 726 333 713L312 612C311 606 308 595 308 588C308 579 314 575 324 575ZM50 16C50 4 54 0 66 0H474C486 0 490 4 490 16V125C490 137 486 141 474 141H201V682C201 694 197 698 185 698H66C54 698 50 694 50 682Z" glyph-name="Lcaron" horiz-adv-x="500" unicode="&#317;" /><glyph d="M50 16C50 4 54 0 66 0H474C486 0 490 4 490 16V125C490 137 486 141 474 141H201V682C201 694 197 698 185 698H66C54 698 50 694 50 682ZM199 -238H267C279 -238 286 -234 294 -222L337 -161C342 -152 344 -147 344 -134V-66C344 -54 340 -50 328 -50H198C186 -50 182 -54 182 -66V-146C182 -158 186 -162 198 -162H235L199 -205C192 -213 184 -222 184 -228C184 -235 189 -238 199 -238Z" glyph-name="Lcommaaccent" horiz-adv-x="500" unicode="&#315;" /><glyph d="M0 232C0 224 4 220 11 220C18 220 31 227 34 228L79 248V16C79 4 83 0 95 0H503C515 0 519 4 519 16V125C519 137 515 141 503 141H230V309L354 364C366 369 370 372 370 384V494C370 502 366 506 359 506C352 506 339 499 336 498L230 451V682C230 694 226 698 214 698H95C83 698 79 694 79 682V390L16 362C4 357 0 354 0 342Z" glyph-name="Lslash" horiz-adv-x="529" unicode="&#321;" /><glyph d="M596 468V16C596 4 600 0 612 0H730C742 0 746 4 746 16V682C746 694 742 698 730 698H586C574 698 564 698 558 685L401 376L239 685C232 698 223 698 211 698H66C54 698 50 694 50 682V16C50 4 54 0 66 0H184C196 0 200 4 200 16V468L331 209C337 196 347 196 359 196H437C449 196 459 196 465 209Z" glyph-name="M" horiz-adv-x="796" unicode="M" /><glyph d="M601 0C613 0 617 4 617 16V682C617 694 613 698 601 698H487C475 698 471 694 471 682V403C471 350 474 282 476 245L224 682C217 694 213 698 201 698H66C54 698 50 694 50 682V16C50 4 54 0 66 0H180C192 0 196 4 196 16V297C196 350 193 418 191 455L443 16C450 4 454 0 466 0Z" glyph-name="N" horiz-adv-x="667" unicode="N" /><glyph d="M601 0C613 0 617 4 617 16V682C617 694 613 698 601 698H487C475 698 471 694 471 682V403C471 350 474 282 476 245L224 682C217 694 213 698 201 698H66C54 698 50 694 50 682V16C50 4 54 0 66 0H180C192 0 196 4 196 16V297C196 350 193 418 191 455L443 16C450 4 454 0 466 0ZM381 754C393 754 399 759 408 770L476 852C483 860 492 871 492 879C492 886 487 889 477 889H347C335 889 331 885 324 873L276 791C272 784 264 771 264 764C264 757 269 754 279 754Z" glyph-name="Nacute" horiz-adv-x="667" unicode="&#323;" /><glyph d="M601 0C613 0 617 4 617 16V682C617 694 613 698 601 698H487C475 698 471 694 471 682V403C471 350 474 282 476 245L224 682C217 694 213 698 201 698H66C54 698 50 694 50 682V16C50 4 54 0 66 0H180C192 0 196 4 196 16V297C196 350 193 418 191 455L443 16C450 4 454 0 466 0ZM201 889C191 889 186 886 186 879C186 872 193 861 199 852L253 770C261 758 264 754 276 754H398C410 754 413 758 421 770L474 852C480 861 487 872 487 879C487 886 482 889 472 889H385C373 889 368 885 362 873L337 820L312 873C306 885 301 889 289 889Z" glyph-name="Ncaron" horiz-adv-x="667" unicode="&#327;" /><glyph d="M601 0C613 0 617 4 617 16V682C617 694 613 698 601 698H487C475 698 471 694 471 682V403C471 350 474 282 476 245L224 682C217 694 213 698 201 698H66C54 698 50 694 50 682V16C50 4 54 0 66 0H180C192 0 196 4 196 16V297C196 350 193 418 191 455L443 16C450 4 454 0 466 0ZM272 -238H340C352 -238 359 -234 367 -222L410 -161C415 -152 417 -147 417 -134V-66C417 -54 413 -50 401 -50H271C259 -50 255 -54 255 -66V-146C255 -158 259 -162 271 -162H308L272 -205C265 -213 257 -222 257 -228C257 -235 262 -238 272 -238Z" glyph-name="Ncommaaccent" horiz-adv-x="667" unicode="&#325;" /><glyph d="M601 0C613 0 617 4 617 16V682C617 694 613 698 601 698H487C475 698 471 694 471 682V403C471 350 474 282 476 245L224 682C217 694 213 698 201 698H66C54 698 50 694 50 682V16C50 4 54 0 66 0H180C192 0 196 4 196 16V297C196 350 193 418 191 455L443 16C450 4 454 0 466 0ZM250 780C250 793 252 804 269 804C298 804 324 746 403 746C472 746 515 784 515 859V873C515 885 511 889 499 889H433C421 889 417 885 417 873V863C417 850 415 839 398 839C369 839 343 897 264 897C195 897 152 859 152 784V770C152 758 156 754 168 754H234C246 754 250 758 250 770Z" glyph-name="Ntilde" horiz-adv-x="667" unicode="&#209;" /><glyph d="M447 203C447 153 428 133 381 133H256C209 133 190 153 190 203V495C190 545 209 565 256 565H381C428 565 447 545 447 495ZM38 177C38 61 110 -8 234 -8H403C527 -8 599 61 599 177V521C599 637 527 706 403 706H234C110 706 38 637 38 521Z" glyph-name="O" horiz-adv-x="637" unicode="O" /><glyph d="M255 141C208 141 189 161 189 211V487C189 537 208 557 255 557H366V141ZM234 698C110 698 38 629 38 513V185C38 69 110 0 234 0H768C780 0 784 4 784 16V125C784 137 780 141 768 141H517V284H739C751 284 755 288 755 300V409C755 421 751 425 739 425H517V557H760C772 557 776 561 776 573V682C776 694 772 698 760 698Z" glyph-name="OE" horiz-adv-x="813" unicode="&#338;" /><glyph d="M447 203C447 153 428 133 381 133H256C209 133 190 153 190 203V495C190 545 209 565 256 565H381C428 565 447 545 447 495ZM38 177C38 61 110 -8 234 -8H403C527 -8 599 61 599 177V521C599 637 527 706 403 706H234C110 706 38 637 38 521ZM366 754C378 754 384 759 393 770L461 852C468 860 477 871 477 879C477 886 472 889 462 889H332C320 889 316 885 309 873L261 791C257 784 249 771 249 764C249 757 254 754 264 754Z" glyph-name="Oacute" horiz-adv-x="637" unicode="&#211;" /><glyph d="M447 203C447 153 428 133 381 133H256C209 133 190 153 190 203V495C190 545 209 565 256 565H381C428 565 447 545 447 495ZM38 177C38 61 110 -8 234 -8H403C527 -8 599 61 599 177V521C599 637 527 706 403 706H234C110 706 38 637 38 521ZM454 754C464 754 469 757 469 764C469 771 462 782 456 791L402 873C394 885 391 889 379 889H257C245 889 242 885 234 873L181 791C175 782 168 771 168 764C168 757 173 754 183 754H270C282 754 287 758 293 770L318 823L343 770C349 758 354 754 366 754Z" glyph-name="Ocircumflex" horiz-adv-x="637" unicode="&#212;" /><glyph d="M447 203C447 153 428 133 381 133H256C209 133 190 153 190 203V495C190 545 209 565 256 565H381C428 565 447 545 447 495ZM38 177C38 61 110 -8 234 -8H403C527 -8 599 61 599 177V521C599 637 527 706 403 706H234C110 706 38 637 38 521ZM284 873C284 885 280 889 268 889H153C141 889 137 885 137 873V770C137 758 141 754 153 754H268C280 754 284 758 284 770ZM500 873C500 885 496 889 484 889H369C357 889 353 885 353 873V770C353 758 357 754 369 754H484C496 754 500 758 500 770Z" glyph-name="Odieresis" horiz-adv-x="637" unicode="&#214;" /><glyph d="M447 203C447 153 428 133 381 133H256C209 133 190 153 190 203V495C190 545 209 565 256 565H381C428 565 447 545 447 495ZM38 177C38 61 110 -8 234 -8H403C527 -8 599 61 599 177V521C599 637 527 706 403 706H234C110 706 38 637 38 521ZM370 754C380 754 385 757 385 764C385 771 377 784 373 791L325 873C318 885 314 889 302 889H173C163 889 158 886 158 879C158 871 167 860 174 852L242 770C251 759 257 754 269 754Z" glyph-name="Ograve" horiz-adv-x="637" unicode="&#210;" /><glyph d="M447 203C447 153 428 133 381 133H256C209 133 190 153 190 203V495C190 545 209 565 256 565H381C428 565 447 545 447 495ZM38 177C38 61 110 -8 234 -8H403C527 -8 599 61 599 177V521C599 637 527 706 403 706H234C110 706 38 637 38 521ZM453 754C465 754 471 759 480 770L548 852C555 860 564 871 564 879C564 886 559 889 549 889H425C413 889 409 885 402 873L354 791C350 784 342 771 342 764C342 757 347 754 357 754ZM246 754C258 754 265 758 273 770L330 852C336 861 344 871 344 879C344 886 339 889 329 889H207C195 889 190 886 184 873L147 791C144 784 137 771 137 764C137 757 142 754 152 754Z" glyph-name="Ohungarumlaut" horiz-adv-x="637" unicode="&#336;" /><glyph d="M447 203C447 153 428 133 381 133H256C209 133 190 153 190 203V495C190 545 209 565 256 565H381C428 565 447 545 447 495ZM38 177C38 61 110 -8 234 -8H403C527 -8 599 61 599 177V521C599 637 527 706 403 706H234C110 706 38 637 38 521ZM452 764C464 764 468 768 468 780V863C468 875 464 879 452 879H184C172 879 168 875 168 863V780C168 768 172 764 184 764Z" glyph-name="Omacron" horiz-adv-x="637" unicode="&#332;" /><glyph d="M38 177C38 61 110 -8 234 -8H403C527 -8 599 61 599 177V521C599 637 527 706 403 706H234C110 706 38 637 38 521ZM190 495C190 545 209 565 256 565H387L190 168ZM447 203C447 153 428 133 381 133H251L447 527Z" glyph-name="Oslash" horiz-adv-x="637" unicode="&#216;" /><glyph d="M447 203C447 153 428 133 381 133H256C209 133 190 153 190 203V495C190 545 209 565 256 565H381C428 565 447 545 447 495ZM38 177C38 61 110 -8 234 -8H403C527 -8 599 61 599 177V521C599 637 527 706 403 706H234C110 706 38 637 38 521ZM235 780C235 793 237 804 254 804C283 804 309 746 388 746C457 746 500 784 500 859V873C500 885 496 889 484 889H418C406 889 402 885 402 873V863C402 850 400 839 383 839C354 839 328 897 249 897C180 897 137 859 137 784V770C137 758 141 754 153 754H219C231 754 235 758 235 770Z" glyph-name="Otilde" horiz-adv-x="637" unicode="&#213;" /><glyph d="M201 354V557H351C398 557 417 537 417 487V424C417 374 398 354 351 354ZM66 698C54 698 50 694 50 682V16C50 4 54 0 66 0H185C197 0 201 4 201 16V213H367C491 213 568 287 568 403V508C568 624 491 698 367 698Z" glyph-name="P" horiz-adv-x="585" unicode="P" /><glyph d="M381 -8H410C534 -8 606 61 606 177V521C606 637 534 706 410 706H234C110 706 38 637 38 521V177C38 61 110 -8 234 -8H263V-92C263 -104 267 -108 279 -108H365C377 -108 381 -104 381 -92ZM263 133H256C209 133 190 153 190 203V495C190 545 209 565 256 565H389C436 565 454 545 454 495V203C454 153 435 133 388 133H381V219C381 231 377 235 365 235H279C267 235 263 231 263 219Z" glyph-name="Q" horiz-adv-x="644" unicode="Q" /><glyph d="M201 375V557H355C402 557 421 537 421 487V445C421 395 402 375 355 375ZM562 0C570 0 576 3 576 11C576 19 569 34 563 47L467 264C535 286 572 337 572 430V513C572 629 500 698 376 698H66C54 698 50 694 50 682V16C50 4 54 0 66 0H185C197 0 201 4 201 16V245H318L408 16C413 4 417 0 429 0Z" glyph-name="R" horiz-adv-x="603" unicode="R" /><glyph d="M201 375V557H355C402 557 421 537 421 487V445C421 395 402 375 355 375ZM562 0C570 0 576 3 576 11C576 19 569 34 563 47L467 264C535 286 572 337 572 430V513C572 629 500 698 376 698H66C54 698 50 694 50 682V16C50 4 54 0 66 0H185C197 0 201 4 201 16V245H318L408 16C413 4 417 0 429 0ZM330 754C342 754 348 759 357 770L425 852C432 860 441 871 441 879C441 886 436 889 426 889H296C284 889 280 885 273 873L225 791C221 784 213 771 213 764C213 757 218 754 228 754Z" glyph-name="Racute" horiz-adv-x="603" unicode="&#340;" /><glyph d="M201 375V557H355C402 557 421 537 421 487V445C421 395 402 375 355 375ZM562 0C570 0 576 3 576 11C576 19 569 34 563 47L467 264C535 286 572 337 572 430V513C572 629 500 698 376 698H66C54 698 50 694 50 682V16C50 4 54 0 66 0H185C197 0 201 4 201 16V245H318L408 16C413 4 417 0 429 0ZM143 889C133 889 128 886 128 879C128 872 135 861 141 852L195 770C203 758 206 754 218 754H340C352 754 355 758 363 770L416 852C422 861 429 872 429 879C429 886 424 889 414 889H327C315 889 310 885 304 873L279 820L254 873C248 885 243 889 231 889Z" glyph-name="Rcaron" horiz-adv-x="603" unicode="&#344;" /><glyph d="M201 375V557H355C402 557 421 537 421 487V445C421 395 402 375 355 375ZM562 0C570 0 576 3 576 11C576 19 569 34 563 47L467 264C535 286 572 337 572 430V513C572 629 500 698 376 698H66C54 698 50 694 50 682V16C50 4 54 0 66 0H185C197 0 201 4 201 16V245H318L408 16C413 4 417 0 429 0ZM236 -238H304C316 -238 323 -234 331 -222L374 -161C379 -152 381 -147 381 -134V-66C381 -54 377 -50 365 -50H235C223 -50 219 -54 219 -66V-146C219 -158 223 -162 235 -162H272L236 -205C229 -213 221 -222 221 -228C221 -235 226 -238 236 -238Z" glyph-name="Rcommaaccent" horiz-adv-x="603" unicode="&#342;" /><glyph d="M513 169V224C513 350 441 371 375 392L220 443C185 454 176 461 176 498V512C176 562 195 562 242 562C314 562 406 560 455 559C467 559 471 563 471 575V684C471 696 467 700 455 700C401 701 301 703 221 703C97 703 25 650 25 534V480C25 355 96 334 163 313L317 263C352 252 361 242 361 205V189C361 139 343 136 296 136C218 136 114 138 58 139C46 139 42 135 42 123V14C42 2 46 -2 58 -2C116 -3 226 -5 317 -5C441 -5 513 53 513 169Z" glyph-name="S" horiz-adv-x="533" unicode="S" /><glyph d="M513 169V224C513 350 441 371 375 392L220 443C185 454 176 461 176 498V512C176 562 195 562 242 562C314 562 406 560 455 559C467 559 471 563 471 575V684C471 696 467 700 455 700C401 701 301 703 221 703C97 703 25 650 25 534V480C25 355 96 334 163 313L317 263C352 252 361 242 361 205V189C361 139 343 136 296 136C218 136 114 138 58 139C46 139 42 135 42 123V14C42 2 46 -2 58 -2C116 -3 226 -5 317 -5C441 -5 513 53 513 169ZM314 754C326 754 332 759 341 770L409 852C416 860 425 871 425 879C425 886 420 889 410 889H280C268 889 264 885 257 873L209 791C205 784 197 771 197 764C197 757 202 754 212 754Z" glyph-name="Sacute" horiz-adv-x="533" unicode="&#346;" /><glyph d="M513 169V224C513 350 441 371 375 392L220 443C185 454 176 461 176 498V512C176 562 195 562 242 562C314 562 406 560 455 559C467 559 471 563 471 575V684C471 696 467 700 455 700C401 701 301 703 221 703C97 703 25 650 25 534V480C25 355 96 334 163 313L317 263C352 252 361 242 361 205V189C361 139 343 136 296 136C218 136 114 138 58 139C46 139 42 135 42 123V14C42 2 46 -2 58 -2C116 -3 226 -5 317 -5C441 -5 513 53 513 169ZM134 889C124 889 119 886 119 879C119 872 126 861 132 852L186 770C194 758 197 754 209 754H331C343 754 346 758 354 770L407 852C413 861 420 872 420 879C420 886 415 889 405 889H318C306 889 301 885 295 873L270 820L245 873C239 885 234 889 222 889Z" glyph-name="Scaron" horiz-adv-x="533" unicode="&#352;" /><glyph d="M209 -238H277C289 -238 296 -234 304 -222L347 -161C352 -152 354 -147 354 -134V-66C354 -54 350 -50 338 -50H208C196 -50 192 -54 192 -66V-146C192 -158 196 -162 208 -162H245L209 -205C202 -213 194 -222 194 -228C194 -235 199 -238 209 -238ZM513 169V224C513 350 441 371 375 392L220 443C185 454 176 461 176 498V512C176 562 195 562 242 562C314 562 406 560 455 559C467 559 471 563 471 575V684C471 696 467 700 455 700C401 701 301 703 221 703C97 703 25 650 25 534V480C25 355 96 334 163 313L317 263C352 252 361 242 361 205V189C361 139 343 136 296 136C218 136 114 138 58 139C46 139 42 135 42 123V14C42 2 46 -2 58 -2C116 -3 226 -5 317 -5C441 -5 513 53 513 169Z" glyph-name="Scommaaccent" horiz-adv-x="533" unicode="&#536;" /><glyph d="M204 556V16C204 4 208 0 220 0H339C351 0 355 4 355 16V556H536C548 556 552 560 552 572V682C552 694 548 698 536 698H23C11 698 7 694 7 682V572C7 560 11 556 23 556Z" glyph-name="T" horiz-adv-x="559" unicode="T" /><glyph d="M437 266C449 266 453 270 453 282V389C453 401 449 405 437 405H355V556H536C548 556 552 560 552 572V682C552 694 548 698 536 698H23C11 698 7 694 7 682V572C7 560 11 556 23 556H204V405H122C110 405 106 401 106 389V282C106 270 110 266 122 266H204V16C204 4 208 0 220 0H339C351 0 355 4 355 16V266Z" glyph-name="Tbar" horiz-adv-x="559" unicode="&#358;" /><glyph d="M204 556V16C204 4 208 0 220 0H339C351 0 355 4 355 16V556H536C548 556 552 560 552 572V682C552 694 548 698 536 698H23C11 698 7 694 7 682V572C7 560 11 556 23 556ZM144 889C134 889 129 886 129 879C129 872 136 861 142 852L196 770C204 758 207 754 219 754H341C353 754 356 758 364 770L417 852C423 861 430 872 430 879C430 886 425 889 415 889H328C316 889 311 885 305 873L280 820L255 873C249 885 244 889 232 889Z" glyph-name="Tcaron" horiz-adv-x="559" unicode="&#356;" /><glyph d="M204 556V16C204 4 208 0 220 0H339C351 0 355 4 355 16V556H536C548 556 552 560 552 572V682C552 694 548 698 536 698H23C11 698 7 694 7 682V572C7 560 11 556 23 556ZM216 -238H284C296 -238 303 -234 311 -222L354 -161C359 -152 361 -147 361 -134V-66C361 -54 357 -50 345 -50H215C203 -50 199 -54 199 -66V-146C199 -158 203 -162 215 -162H252L216 -205C209 -213 201 -222 201 -228C201 -235 206 -238 216 -238Z" glyph-name="Tcommaaccent" horiz-adv-x="559" unicode="&#354;" /><glyph d="M201 256V459H349C396 459 415 439 415 389V326C415 276 396 256 349 256ZM66 698C54 698 50 694 50 682V16C50 4 54 0 66 0H185C197 0 201 4 201 16V115H365C489 115 566 189 566 305V410C566 526 489 600 365 600H201V682C201 694 197 698 185 698Z" glyph-name="Thorn" horiz-adv-x="583" unicode="&#222;" /><glyph d="M45 177C45 61 117 -8 241 -8H384C508 -8 580 61 580 177V682C580 694 576 698 564 698H445C433 698 429 694 429 682V203C429 153 410 133 363 133H262C215 133 196 153 196 203V682C196 694 192 698 180 698H61C49 698 45 694 45 682Z" glyph-name="U" horiz-adv-x="625" unicode="U" /><glyph d="M45 177C45 61 117 -8 241 -8H384C508 -8 580 61 580 177V682C580 694 576 698 564 698H445C433 698 429 694 429 682V203C429 153 410 133 363 133H262C215 133 196 153 196 203V682C196 694 192 698 180 698H61C49 698 45 694 45 682ZM361 754C373 754 379 759 388 770L456 852C463 860 472 871 472 879C472 886 467 889 457 889H327C315 889 311 885 304 873L256 791C252 784 244 771 244 764C244 757 249 754 259 754Z" glyph-name="Uacute" horiz-adv-x="625" unicode="&#218;" /><glyph d="M45 177C45 61 117 -8 241 -8H384C508 -8 580 61 580 177V682C580 694 576 698 564 698H445C433 698 429 694 429 682V203C429 153 410 133 363 133H262C215 133 196 153 196 203V682C196 694 192 698 180 698H61C49 698 45 694 45 682ZM448 754C458 754 463 757 463 764C463 771 456 782 450 791L396 873C388 885 385 889 373 889H251C239 889 236 885 228 873L175 791C169 782 162 771 162 764C162 757 167 754 177 754H264C276 754 281 758 287 770L312 823L337 770C343 758 348 754 360 754Z" glyph-name="Ucircumflex" horiz-adv-x="625" unicode="&#219;" /><glyph d="M45 177C45 61 117 -8 241 -8H384C508 -8 580 61 580 177V682C580 694 576 698 564 698H445C433 698 429 694 429 682V203C429 153 410 133 363 133H262C215 133 196 153 196 203V682C196 694 192 698 180 698H61C49 698 45 694 45 682ZM278 873C278 885 274 889 262 889H147C135 889 131 885 131 873V770C131 758 135 754 147 754H262C274 754 278 758 278 770ZM494 873C494 885 490 889 478 889H363C351 889 347 885 347 873V770C347 758 351 754 363 754H478C490 754 494 758 494 770Z" glyph-name="Udieresis" horiz-adv-x="625" unicode="&#220;" /><glyph d="M45 177C45 61 117 -8 241 -8H384C508 -8 580 61 580 177V682C580 694 576 698 564 698H445C433 698 429 694 429 682V203C429 153 410 133 363 133H262C215 133 196 153 196 203V682C196 694 192 698 180 698H61C49 698 45 694 45 682ZM373 754C383 754 388 757 388 764C388 771 380 784 376 791L328 873C321 885 317 889 305 889H176C166 889 161 886 161 879C161 871 170 860 177 852L245 770C254 759 260 754 272 754Z" glyph-name="Ugrave" horiz-adv-x="625" unicode="&#217;" /><glyph d="M45 177C45 61 117 -8 241 -8H384C508 -8 580 61 580 177V682C580 694 576 698 564 698H445C433 698 429 694 429 682V203C429 153 410 133 363 133H262C215 133 196 153 196 203V682C196 694 192 698 180 698H61C49 698 45 694 45 682ZM457 754C469 754 475 759 484 770L552 852C559 860 568 871 568 879C568 886 563 889 553 889H429C417 889 413 885 406 873L358 791C354 784 346 771 346 764C346 757 351 754 361 754ZM250 754C262 754 269 758 277 770L334 852C340 861 348 871 348 879C348 886 343 889 333 889H211C199 889 194 886 188 873L151 791C148 784 141 771 141 764C141 757 146 754 156 754Z" glyph-name="Uhungarumlaut" horiz-adv-x="625" unicode="&#368;" /><glyph d="M45 177C45 61 117 -8 241 -8H384C508 -8 580 61 580 177V682C580 694 576 698 564 698H445C433 698 429 694 429 682V203C429 153 410 133 363 133H262C215 133 196 153 196 203V682C196 694 192 698 180 698H61C49 698 45 694 45 682ZM446 764C458 764 462 768 462 780V863C462 875 458 879 446 879H178C166 879 162 875 162 863V780C162 768 166 764 178 764Z" glyph-name="Umacron" horiz-adv-x="625" unicode="&#362;" /><glyph d="M421 -82C421 -72 418 -69 408 -69H401C378 -69 364 -64 364 -46C364 -29 377 -16 390 -8C510 -5 580 63 580 177V682C580 694 576 698 564 698H445C433 698 429 694 429 682V203C429 153 410 133 363 133H262C215 133 196 153 196 203V682C196 694 192 698 180 698H61C49 698 45 694 45 682V177C45 61 117 -8 241 -8H272C251 -24 233 -49 233 -82C233 -151 309 -160 376 -160C391 -160 403 -159 408 -159C418 -158 421 -156 421 -146Z" glyph-name="Uogonek" horiz-adv-x="625" unicode="&#370;" /><glyph d="M45 177C45 61 117 -8 241 -8H384C508 -8 580 61 580 177V682C580 694 576 698 564 698H445C433 698 429 694 429 682V203C429 153 410 133 363 133H262C215 133 196 153 196 203V682C196 694 192 698 180 698H61C49 698 45 694 45 682ZM437 849C437 898 409 926 359 926H265C216 926 188 898 188 849V808C188 759 216 732 265 732H359C409 732 437 759 437 807ZM269 840C269 858 276 866 295 866H330C348 866 356 858 356 840V816C356 798 349 790 330 790H295C277 790 269 798 269 816Z" glyph-name="Uring" horiz-adv-x="625" unicode="&#366;" /><glyph d="M45 177C45 61 117 -8 241 -8H384C508 -8 580 61 580 177V682C580 694 576 698 564 698H445C433 698 429 694 429 682V203C429 153 410 133 363 133H262C215 133 196 153 196 203V682C196 694 192 698 180 698H61C49 698 45 694 45 682ZM229 780C229 793 231 804 248 804C277 804 303 746 382 746C451 746 494 784 494 859V873C494 885 490 889 478 889H412C400 889 396 885 396 873V863C396 850 394 839 377 839C348 839 322 897 243 897C174 897 131 859 131 784V770C131 758 135 754 147 754H213C225 754 229 758 229 770Z" glyph-name="Utilde" horiz-adv-x="625" unicode="&#360;" /><glyph d="M366 185C358 139 352 134 316 134H309C273 134 267 139 259 185L171 682C169 694 167 698 155 698H25C15 698 9 695 9 687C9 681 11 672 13 660L109 154C130 42 150 -7 274 -7H347C471 -7 491 42 512 154L609 660C611 672 613 681 613 687C613 695 607 698 597 698H471C459 698 457 694 455 682Z" glyph-name="V" horiz-adv-x="622" unicode="V" /><glyph d="M28 698C18 698 13 695 13 687C13 682 14 673 16 660L81 158C96 46 122 -3 246 -3H319C411 -3 422 71 423 78C424 68 437 -3 527 -3H595C719 -3 745 46 760 158L826 660C828 673 829 682 829 687C829 695 824 698 814 698H687C675 698 673 694 671 682L611 189C606 143 597 138 561 138H543C510 138 498 143 498 186V672C498 684 494 688 482 688H363C351 688 347 684 347 672V186C347 143 335 138 302 138H284C248 138 239 143 234 189L175 682C174 694 171 698 159 698Z" glyph-name="W" horiz-adv-x="842" unicode="W" /><glyph d="M314 237 445 17C451 6 457 1 469 1H616C626 1 631 4 631 11C631 18 625 28 619 38L417 361L603 661C609 671 615 681 615 688C615 695 610 698 600 698H466C454 698 448 693 442 682L319 470L199 682C193 693 187 698 175 698H30C20 698 15 695 15 688C15 681 21 671 27 661L218 350L22 38C16 28 10 18 10 11C10 4 15 1 25 1H157C169 1 175 6 181 17Z" glyph-name="X" horiz-adv-x="641" unicode="X" /><glyph d="M476 698C464 698 462 693 458 682L371 413C357 368 353 362 319 362H307C271 362 270 368 255 413L167 682C163 694 162 698 150 698H22C12 698 6 695 6 687C6 681 9 673 13 660L106 383C137 289 152 236 236 224V16C236 4 240 0 252 0H371C383 0 387 4 387 16V225C465 237 485 290 516 383L607 660C611 673 614 681 614 687C614 695 608 698 598 698Z" glyph-name="Y" horiz-adv-x="620" unicode="Y" /><glyph d="M476 698C464 698 462 693 458 682L371 413C357 368 353 362 319 362H307C271 362 270 368 255 413L167 682C163 694 162 698 150 698H22C12 698 6 695 6 687C6 681 9 673 13 660L106 383C137 289 152 236 236 224V16C236 4 240 0 252 0H371C383 0 387 4 387 16V225C465 237 485 290 516 383L607 660C611 673 614 681 614 687C614 695 608 698 598 698ZM359 754C371 754 377 759 386 770L454 852C461 860 470 871 470 879C470 886 465 889 455 889H325C313 889 309 885 302 873L254 791C250 784 242 771 242 764C242 757 247 754 257 754Z" glyph-name="Yacute" horiz-adv-x="620" unicode="&#221;" /><glyph d="M476 698C464 698 462 693 458 682L371 413C357 368 353 362 319 362H307C271 362 270 368 255 413L167 682C163 694 162 698 150 698H22C12 698 6 695 6 687C6 681 9 673 13 660L106 383C137 289 152 236 236 224V16C236 4 240 0 252 0H371C383 0 387 4 387 16V225C465 237 485 290 516 383L607 660C611 673 614 681 614 687C614 695 608 698 598 698ZM277 873C277 885 273 889 261 889H146C134 889 130 885 130 873V770C130 758 134 754 146 754H261C273 754 277 758 277 770ZM493 873C493 885 489 889 477 889H362C350 889 346 885 346 873V770C346 758 350 754 362 754H477C489 754 493 758 493 770Z" glyph-name="Ydieresis" horiz-adv-x="620" unicode="&#376;" /><glyph d="M30 16C30 4 34 0 46 0H529C541 0 545 4 545 16V125C545 137 541 141 529 141H227L527 565C534 575 535 580 535 594V682C535 694 531 698 519 698H51C39 698 35 694 35 682V573C35 561 39 557 51 557H341L38 131C31 121 30 116 30 102Z" glyph-name="Z" horiz-adv-x="575" unicode="Z" /><glyph d="M30 16C30 4 34 0 46 0H529C541 0 545 4 545 16V125C545 137 541 141 529 141H227L527 565C534 575 535 580 535 594V682C535 694 531 698 519 698H51C39 698 35 694 35 682V573C35 561 39 557 51 557H341L38 131C31 121 30 116 30 102ZM337 754C349 754 355 759 364 770L432 852C439 860 448 871 448 879C448 886 443 889 433 889H303C291 889 287 885 280 873L232 791C228 784 220 771 220 764C220 757 225 754 235 754Z" glyph-name="Zacute" horiz-adv-x="575" unicode="&#377;" /><glyph d="M30 16C30 4 34 0 46 0H529C541 0 545 4 545 16V125C545 137 541 141 529 141H227L527 565C534 575 535 580 535 594V682C535 694 531 698 519 698H51C39 698 35 694 35 682V573C35 561 39 557 51 557H341L38 131C31 121 30 116 30 102ZM161 889C151 889 146 886 146 879C146 872 153 861 159 852L213 770C221 758 224 754 236 754H358C370 754 373 758 381 770L434 852C440 861 447 872 447 879C447 886 442 889 432 889H345C333 889 328 885 322 873L297 820L272 873C266 885 261 889 249 889Z" glyph-name="Zcaron" horiz-adv-x="575" unicode="&#381;" /><glyph d="M30 16C30 4 34 0 46 0H529C541 0 545 4 545 16V125C545 137 541 141 529 141H227L527 565C534 575 535 580 535 594V682C535 694 531 698 519 698H51C39 698 35 694 35 682V573C35 561 39 557 51 557H341L38 131C31 121 30 116 30 102ZM373 873C373 885 369 889 357 889H220C208 889 204 885 204 873V770C204 758 208 754 220 754H357C369 754 373 758 373 770Z" glyph-name="Zdotaccent" horiz-adv-x="575" unicode="&#379;" /><glyph d="M215 113C184 113 171 117 171 148V164C171 187 183 197 210 204L323 234V113ZM277 0C289 0 293 4 300 16L325 60L350 16C357 4 361 0 373 0H452C464 0 468 4 468 16V382C468 485 408 530 305 530C237 530 136 528 78 527C66 527 62 523 62 511V418C62 406 66 402 78 402C126 403 212 405 273 405C312 405 323 403 323 364V342L165 300C60 272 28 245 28 157V124C28 21 73 0 172 0Z" glyph-name="a" horiz-adv-x="510" unicode="a" /><glyph d="M215 113C184 113 171 117 171 148V164C171 187 183 197 210 204L323 234V113ZM277 0C289 0 293 4 300 16L325 60L350 16C357 4 361 0 373 0H452C464 0 468 4 468 16V382C468 485 408 530 305 530C237 530 136 528 78 527C66 527 62 523 62 511V418C62 406 66 402 78 402C126 403 212 405 273 405C312 405 323 403 323 364V342L165 300C60 272 28 245 28 157V124C28 21 73 0 172 0ZM307 594C319 594 325 599 334 610L402 692C409 700 418 711 418 719C418 726 413 729 403 729H273C261 729 257 725 250 713L202 631C198 624 190 611 190 604C190 597 195 594 205 594Z" glyph-name="aacute" horiz-adv-x="510" unicode="&#225;" /><glyph d="M215 113C184 113 171 117 171 148V164C171 187 183 197 210 204L323 234V113ZM277 0C289 0 293 4 300 16L325 60L350 16C357 4 361 0 373 0H452C464 0 468 4 468 16V382C468 485 408 530 305 530C237 530 136 528 78 527C66 527 62 523 62 511V418C62 406 66 402 78 402C126 403 212 405 273 405C312 405 323 403 323 364V342L165 300C60 272 28 245 28 157V124C28 21 73 0 172 0ZM405 713C405 725 401 729 389 729H307C295 729 291 725 291 713V699C291 681 284 673 265 673H244C226 673 218 681 218 699V713C218 725 214 729 202 729H120C108 729 104 725 104 713V668C104 619 132 592 181 592H327C377 592 405 619 405 667Z" glyph-name="abreve" horiz-adv-x="510" unicode="&#259;" /><glyph d="M215 113C184 113 171 117 171 148V164C171 187 183 197 210 204L323 234V113ZM277 0C289 0 293 4 300 16L325 60L350 16C357 4 361 0 373 0H452C464 0 468 4 468 16V382C468 485 408 530 305 530C237 530 136 528 78 527C66 527 62 523 62 511V418C62 406 66 402 78 402C126 403 212 405 273 405C312 405 323 403 323 364V342L165 300C60 272 28 245 28 157V124C28 21 73 0 172 0ZM395 594C405 594 410 597 410 604C410 611 403 622 397 631L343 713C335 725 332 729 320 729H198C186 729 183 725 175 713L122 631C116 622 109 611 109 604C109 597 114 594 124 594H211C223 594 228 598 234 610L259 663L284 610C290 598 295 594 307 594Z" glyph-name="acircumflex" horiz-adv-x="510" unicode="&#226;" /><glyph d="M157 594C169 594 175 599 184 610L252 692C259 700 268 711 268 719C268 726 263 729 253 729H123C111 729 107 725 100 713L52 631C48 624 40 611 40 604C40 597 45 594 55 594Z" glyph-name="acute" horiz-adv-x="308" unicode="&#180;" /><glyph d="M215 113C184 113 171 117 171 148V164C171 187 183 197 210 204L323 234V113ZM277 0C289 0 293 4 300 16L325 60L350 16C357 4 361 0 373 0H452C464 0 468 4 468 16V382C468 485 408 530 305 530C237 530 136 528 78 527C66 527 62 523 62 511V418C62 406 66 402 78 402C126 403 212 405 273 405C312 405 323 403 323 364V342L165 300C60 272 28 245 28 157V124C28 21 73 0 172 0ZM224 713C224 725 220 729 208 729H93C81 729 77 725 77 713V610C77 598 81 594 93 594H208C220 594 224 598 224 610ZM440 713C440 725 436 729 424 729H309C297 729 293 725 293 713V610C293 598 297 594 309 594H424C436 594 440 598 440 610Z" glyph-name="adieresis" horiz-adv-x="510" unicode="&#228;" /><glyph d="M685 3C697 3 701 7 701 19V115C701 127 697 131 685 131C638 130 554 128 493 128C454 128 438 144 438 183V216H699C711 216 715 220 715 232V368C715 471 655 530 552 530H498C445 530 414 498 406 473C394 498 353 530 284 530C216 530 118 528 63 527C51 527 47 523 47 511V418C47 406 51 402 63 402C105 403 184 405 245 405C281 405 293 399 295 368V313H159C50 313 22 270 22 182V135C22 32 67 0 166 0H238C312 0 321 54 322 57C324 52 353 0 442 0C514 0 623 2 685 3ZM209 111C178 111 165 115 165 146V176C165 199 176 216 204 216H295V163C295 139 298 119 300 111ZM517 410C556 410 572 394 572 355V313H438V358C438 393 455 410 493 410Z" glyph-name="ae" horiz-adv-x="743" unicode="&#230;" /><glyph d="M954 202C966 202 970 206 970 218V319C970 331 966 335 954 335H46C34 335 30 331 30 319V218C30 206 34 202 46 202Z" glyph-name="afii00208" horiz-adv-x="1000" unicode="&#8213;" /><glyph d="M215 113C184 113 171 117 171 148V164C171 187 183 197 210 204L323 234V113ZM277 0C289 0 293 4 300 16L325 60L350 16C357 4 361 0 373 0H452C464 0 468 4 468 16V382C468 485 408 530 305 530C237 530 136 528 78 527C66 527 62 523 62 511V418C62 406 66 402 78 402C126 403 212 405 273 405C312 405 323 403 323 364V342L165 300C60 272 28 245 28 157V124C28 21 73 0 172 0ZM313 594C323 594 328 597 328 604C328 611 320 624 316 631L268 713C261 725 257 729 245 729H116C106 729 101 726 101 719C101 711 110 700 117 692L185 610C194 599 200 594 212 594Z" glyph-name="agrave" horiz-adv-x="510" unicode="&#224;" /><glyph d="M215 113C184 113 171 117 171 148V164C171 187 183 197 210 204L323 234V113ZM277 0C289 0 293 4 300 16L325 60L350 16C357 4 361 0 373 0H452C464 0 468 4 468 16V382C468 485 408 530 305 530C237 530 136 528 78 527C66 527 62 523 62 511V418C62 406 66 402 78 402C126 403 212 405 273 405C312 405 323 403 323 364V342L165 300C60 272 28 245 28 157V124C28 21 73 0 172 0ZM394 604C406 604 410 608 410 620V703C410 715 406 719 394 719H126C114 719 110 715 110 703V620C110 608 114 604 126 604Z" glyph-name="amacron" horiz-adv-x="510" unicode="&#257;" /><glyph d="M389 0C401 0 405 4 412 16L437 60L462 16C469 4 473 0 485 0H570C582 0 586 4 586 16V300H641C653 300 657 304 657 316V408C657 420 653 424 641 424H285C241 424 219 434 219 486V503C219 551 234 565 281 565C345 565 458 563 526 562C538 562 542 566 542 578V684C542 696 538 700 526 700C458 701 339 703 262 703C138 703 65 643 65 527V508C65 396 154 375 167 374C152 372 50 356 50 242V179C50 63 123 0 247 0ZM266 141C219 141 204 156 204 206V235C204 285 223 300 270 300H434V141Z" glyph-name="ampersand" horiz-adv-x="687" unicode="&amp;" /><glyph d="M477 -82C477 -72 474 -69 464 -69H457C434 -69 420 -64 420 -46C420 -20 454 -2 460 1C467 5 468 8 468 15V382C468 485 408 530 305 530C237 530 136 528 78 527C66 527 62 523 62 511V418C62 406 66 402 78 402C126 403 212 405 273 405C312 405 323 403 323 364V342L165 300C60 272 28 245 28 157V124C28 21 73 0 172 0H277C289 0 293 4 300 16L325 60L354 9C327 -6 289 -35 289 -82C289 -151 365 -160 432 -160C447 -160 459 -159 464 -159C474 -158 477 -156 477 -146ZM215 113C184 113 171 117 171 148V164C171 187 183 197 210 204L323 234V113Z" glyph-name="aogonek" horiz-adv-x="510" unicode="&#261;" /><glyph d="M215 113C184 113 171 117 171 148V164C171 187 183 197 210 204L323 234V113ZM277 0C289 0 293 4 300 16L325 60L350 16C357 4 361 0 373 0H452C464 0 468 4 468 16V382C468 485 408 530 305 530C237 530 136 528 78 527C66 527 62 523 62 511V418C62 406 66 402 78 402C126 403 212 405 273 405C312 405 323 403 323 364V342L165 300C60 272 28 245 28 157V124C28 21 73 0 172 0ZM392 689C392 738 364 766 314 766H220C171 766 143 738 143 689V648C143 599 171 572 220 572H314C364 572 392 599 392 647ZM224 680C224 698 231 706 250 706H285C303 706 311 698 311 680V656C311 638 304 630 285 630H250C232 630 224 638 224 656Z" glyph-name="aring" horiz-adv-x="510" unicode="&#229;" /><glyph d="M351 713C345 724 341 729 329 729H231C219 729 215 724 209 713L36 391C31 382 25 371 25 364C25 357 30 354 40 354H154C166 354 170 359 175 370L278 592L381 370C386 359 390 354 402 354H518C528 354 533 357 533 364C533 371 527 382 522 391Z" glyph-name="asciicircum" horiz-adv-x="558" unicode="^" /><glyph d="M145 214C145 227 147 238 162 238C188 238 227 180 298 180C367 180 410 218 410 293V333C410 345 406 349 394 349H311C299 349 295 345 295 333V323C295 310 293 299 278 299C252 299 213 357 142 357C73 357 30 319 30 244V204C30 192 34 188 46 188H129C141 188 145 192 145 204Z" glyph-name="asciitilde" horiz-adv-x="440" unicode="~" /><glyph d="M284 680C288 691 278 698 268 698H156C146 698 137 690 140 680L179 569L78 631C69 636 59 631 56 622L27 536C24 526 27 516 40 515L160 508L65 441C56 434 60 424 67 418L145 351C155 343 165 344 169 356L212 470L254 355C258 344 269 342 277 349L361 415C368 420 371 432 363 438L262 510L386 515C399 516 400 526 397 536L371 622C367 635 361 640 348 632L247 569Z" glyph-name="asterisk" horiz-adv-x="431" unicode="*" /><glyph d="M573 153H475C436 153 420 169 420 208V327C420 366 436 382 475 382H573ZM529 37C541 37 545 41 552 53L577 97L602 53C609 41 613 37 625 37H774C877 37 937 96 937 199V410C937 623 853 698 641 698H400C188 698 60 569 60 356V185C60 -28 187 -157 399 -157C510 -157 630 -155 690 -154C702 -154 706 -150 706 -138V-52C706 -40 702 -36 690 -36C625 -37 509 -39 429 -39C270 -39 193 42 193 201V340C193 499 270 580 429 580H613C772 580 804 553 804 394V203C804 164 788 148 749 148H708V482C708 494 704 498 692 498H449C346 498 286 439 286 336V199C286 96 346 37 449 37Z" glyph-name="at" horiz-adv-x="997" unicode="@" /><glyph d="M215 113C184 113 171 117 171 148V164C171 187 183 197 210 204L323 234V113ZM277 0C289 0 293 4 300 16L325 60L350 16C357 4 361 0 373 0H452C464 0 468 4 468 16V382C468 485 408 530 305 530C237 530 136 528 78 527C66 527 62 523 62 511V418C62 406 66 402 78 402C126 403 212 405 273 405C312 405 323 403 323 364V342L165 300C60 272 28 245 28 157V124C28 21 73 0 172 0ZM175 620C175 633 177 644 194 644C223 644 249 586 328 586C397 586 440 624 440 699V713C440 725 436 729 424 729H358C346 729 342 725 342 713V703C342 690 340 679 323 679C294 679 268 737 189 737C120 737 77 699 77 624V610C77 598 81 594 93 594H159C171 594 175 598 175 610Z" glyph-name="atilde" horiz-adv-x="510" unicode="&#227;" /><glyph d="M190 131V397H297C336 397 352 381 352 342V186C352 147 336 131 297 131ZM238 528C226 528 222 524 215 512L190 468V688C190 700 186 704 174 704H61C49 704 45 700 45 688V16C45 4 49 0 61 0H335C438 0 498 59 498 162V366C498 469 438 528 335 528Z" glyph-name="b" horiz-adv-x="531" unicode="b" /><glyph d="M17 704C5 704 0 700 0 691C0 684 6 664 9 653L224 -144C227 -155 228 -160 240 -160H341C353 -160 358 -156 358 -147C358 -140 352 -120 349 -109L134 688C131 699 130 704 118 704Z" glyph-name="backslash" horiz-adv-x="358" unicode="\" /><glyph d="M75 -144C75 -156 79 -160 91 -160H185C197 -160 201 -156 201 -144V688C201 700 197 704 185 704H91C79 704 75 700 75 688Z" glyph-name="bar" horiz-adv-x="276" unicode="|" /><glyph d="M48 202C95 202 114 183 114 133V2C114 -101 174 -160 277 -160H335C347 -160 351 -156 351 -144V-43C351 -31 347 -27 335 -27H314C275 -27 259 -11 259 28V142C259 257 165 273 155 275C169 277 259 296 259 408V516C259 555 275 571 314 571H335C347 571 351 575 351 587V688C351 700 347 704 335 704H277C174 704 114 645 114 542V401C114 349 92 335 48 335H36C24 335 20 331 20 319V218C20 206 24 202 36 202Z" glyph-name="braceleft" horiz-adv-x="396" unicode="{" /><glyph d="M48 288C95 288 114 269 114 219V89C114 -14 174 -73 277 -73H335C347 -73 351 -69 351 -57V44C351 56 347 60 335 60H314C275 60 259 76 259 115V228C259 343 165 359 155 361C169 363 259 382 259 494V583C259 622 275 638 314 638H335C347 638 351 642 351 654V755C351 767 347 771 335 771H277C174 771 114 712 114 609V487C114 435 92 421 48 421H36C24 421 20 417 20 405V304C20 292 24 288 36 288Z" glyph-name="braceleft.alt" horiz-adv-x="396" /><glyph d="M348 335C301 335 282 354 282 404V542C282 645 222 704 119 704H61C49 704 45 700 45 688V587C45 575 49 571 61 571H82C121 571 137 555 137 516V395C137 280 231 263 240 262C227 260 137 241 137 129V28C137 -11 121 -27 82 -27H61C49 -27 45 -31 45 -43V-144C45 -156 49 -160 61 -160H119C222 -160 282 -101 282 2V136C282 188 304 202 348 202H360C372 202 376 206 376 218V319C376 331 372 335 360 335Z" glyph-name="braceright" horiz-adv-x="396" unicode="}" /><glyph d="M348 421C301 421 282 440 282 490V609C282 712 222 771 119 771H61C49 771 45 767 45 755V654C45 642 49 638 61 638H82C121 638 137 622 137 583V481C137 366 231 349 240 348C227 346 137 327 137 215V115C137 76 121 60 82 60H61C49 60 45 56 45 44V-57C45 -69 49 -73 61 -73H119C222 -73 282 -14 282 89V222C282 274 304 288 348 288H360C372 288 376 292 376 304V405C376 417 372 421 360 421Z" glyph-name="braceright.alt" horiz-adv-x="396" /><glyph d="M96 704C84 704 80 700 80 688V-144C80 -156 84 -160 96 -160H301C313 -160 317 -156 317 -144V-43C317 -31 313 -27 301 -27H225V571H301C313 571 317 575 317 587V688C317 700 313 704 301 704Z" glyph-name="bracketleft" horiz-adv-x="362" unicode="[" /><glyph d="M96 771C84 771 80 767 80 755V-57C80 -69 84 -73 96 -73H301C313 -73 317 -69 317 -57V44C317 56 313 60 301 60H225V638H301C313 638 317 642 317 654V755C317 767 313 771 301 771Z" glyph-name="bracketleft.alt" horiz-adv-x="362" /><glyph d="M266 -160C278 -160 282 -156 282 -144V688C282 700 278 704 266 704H61C49 704 45 700 45 688V587C45 575 49 571 61 571H137V-27H61C49 -27 45 -31 45 -43V-144C45 -156 49 -160 61 -160Z" glyph-name="bracketright" horiz-adv-x="362" unicode="]" /><glyph d="M266 -73C278 -73 282 -69 282 -57V755C282 767 278 771 266 771H61C49 771 45 767 45 755V654C45 642 49 638 61 638H137V60H61C49 60 45 56 45 44V-57C45 -69 49 -73 61 -73Z" glyph-name="bracketright.alt" horiz-adv-x="362" /><glyph d="M341 713C341 725 337 729 325 729H243C231 729 227 725 227 713V699C227 681 220 673 201 673H180C162 673 154 681 154 699V713C154 725 150 729 138 729H56C44 729 40 725 40 713V668C40 619 68 592 117 592H263C313 592 341 619 341 667Z" glyph-name="breve" horiz-adv-x="381" unicode="&#728;" /><glyph d="M75 351C75 339 79 335 91 335H185C197 335 201 339 201 351V688C201 700 197 704 185 704H91C79 704 75 700 75 688ZM75 -144C75 -156 79 -160 91 -160H185C197 -160 201 -156 201 -144V186C201 198 197 202 185 202H91C79 202 75 198 75 186Z" glyph-name="brokenbar" horiz-adv-x="276" unicode="&#166;" /><glyph d="M240 349C240 361 236 365 224 365H56C44 365 40 361 40 349V188C40 176 44 172 56 172H224C236 172 240 176 240 188Z" glyph-name="bullet" horiz-adv-x="280" unicode="&#8226;" /><glyph d="M408 -3C420 -3 424 1 424 13V114C424 126 420 130 408 130C365 129 288 127 233 127C194 127 178 143 178 182V346C178 385 194 401 233 401C299 401 369 399 404 398C416 398 420 402 420 414V515C420 527 416 531 404 531C355 532 265 534 196 534C93 534 33 475 33 372V156C33 53 93 -6 196 -6C257 -6 353 -4 408 -3Z" glyph-name="c" horiz-adv-x="452" unicode="c" /><glyph d="M408 -3C420 -3 424 1 424 13V114C424 126 420 130 408 130C365 129 288 127 233 127C194 127 178 143 178 182V346C178 385 194 401 233 401C299 401 369 399 404 398C416 398 420 402 420 414V515C420 527 416 531 404 531C355 532 265 534 196 534C93 534 33 475 33 372V156C33 53 93 -6 196 -6C257 -6 353 -4 408 -3ZM289 594C301 594 307 599 316 610L384 692C391 700 400 711 400 719C400 726 395 729 385 729H255C243 729 239 725 232 713L184 631C180 624 172 611 172 604C172 597 177 594 187 594Z" glyph-name="cacute" horiz-adv-x="452" unicode="&#263;" /><glyph d="M55 729C45 729 40 726 40 719C40 712 47 701 53 692L107 610C115 598 118 594 130 594H252C264 594 267 598 275 610L328 692C334 701 341 712 341 719C341 726 336 729 326 729H239C227 729 222 725 216 713L191 660L166 713C160 725 155 729 143 729Z" glyph-name="caron" horiz-adv-x="381" unicode="&#711;" /><glyph d="M408 -3C420 -3 424 1 424 13V114C424 126 420 130 408 130C365 129 288 127 233 127C194 127 178 143 178 182V346C178 385 194 401 233 401C299 401 369 399 404 398C416 398 420 402 420 414V515C420 527 416 531 404 531C355 532 265 534 196 534C93 534 33 475 33 372V156C33 53 93 -6 196 -6C257 -6 353 -4 408 -3ZM110 729C100 729 95 726 95 719C95 712 102 701 108 692L162 610C170 598 173 594 185 594H307C319 594 322 598 330 610L383 692C389 701 396 712 396 719C396 726 391 729 381 729H294C282 729 277 725 271 713L246 660L221 713C215 725 210 729 198 729Z" glyph-name="ccaron" horiz-adv-x="452" unicode="&#269;" /><glyph d="M186 -48C186 -59 190 -60 202 -63C211 -65 228 -69 228 -85C228 -104 209 -106 186 -106H179C169 -106 166 -109 166 -119V-146C166 -156 169 -158 179 -159C184 -159 196 -160 211 -160C278 -160 354 -150 354 -87C354 -30 283 -24 251 -24V-6C306 -5 373 -4 408 -3C420 -3 424 1 424 13V114C424 126 420 130 408 130C365 129 288 127 233 127C194 127 178 143 178 182V346C178 385 194 401 233 401C299 401 369 399 404 398C416 398 420 402 420 414V515C420 527 416 531 404 531C355 532 265 534 196 534C93 534 33 475 33 372V156C33 106 47 67 73 39C99 12 138 -4 186 -6Z" glyph-name="ccedilla" horiz-adv-x="452" unicode="&#231;" /><glyph d="M60 -48C60 -59 64 -60 76 -63C85 -65 102 -69 102 -85C102 -104 83 -106 60 -106H53C43 -106 40 -109 40 -119V-146C40 -156 43 -158 53 -159C58 -159 70 -160 85 -160C152 -160 228 -150 228 -87C228 -30 157 -24 125 -24V15H60Z" glyph-name="cedilla" horiz-adv-x="268" unicode="&#184;" /><glyph d="M250 89V16C250 4 254 0 266 0H360C372 0 376 4 376 16V90C415 91 456 92 475 92C487 92 491 96 491 108V209C491 221 487 225 475 225C423 224 335 222 280 222C241 222 225 238 225 277V420C225 459 241 475 280 475C346 475 428 473 471 472C483 472 487 476 487 488V589C487 601 483 605 471 605C453 605 415 606 376 607V682C376 694 372 698 360 698H266C254 698 250 694 250 682V608H243C140 608 80 549 80 446V251C80 148 140 89 243 89Z" glyph-name="cent" horiz-adv-x="584" unicode="&#162;" /><glyph d="M326 594C336 594 341 597 341 604C341 611 334 622 328 631L274 713C266 725 263 729 251 729H129C117 729 114 725 106 713L53 631C47 622 40 611 40 604C40 597 45 594 55 594H142C154 594 159 598 165 610L190 663L215 610C221 598 226 594 238 594Z" glyph-name="circumflex" horiz-adv-x="381" unicode="&#710;" /><glyph d="M216 129C216 141 212 145 200 145H76C64 145 60 141 60 129V16C60 4 64 0 76 0H200C212 0 216 4 216 16ZM216 512C216 524 212 528 200 528H76C64 528 60 524 60 512V399C60 387 64 383 76 383H200C212 383 216 387 216 399Z" glyph-name="colon" horiz-adv-x="276" unicode=":" /><glyph d="M191 129C191 141 187 145 175 145H51C39 145 35 141 35 129V18C35 6 39 2 51 2H86L36 -82C32 -89 26 -98 26 -105C26 -112 31 -115 41 -115H102C114 -115 118 -111 125 -99L184 3C189 12 191 17 191 30Z" glyph-name="comma" horiz-adv-x="226" unicode="," /><glyph d="M57 -238H125C137 -238 144 -234 152 -222L195 -161C200 -152 202 -147 202 -134V-66C202 -54 198 -50 186 -50H56C44 -50 40 -54 40 -66V-146C40 -158 44 -162 56 -162H93L57 -205C50 -213 42 -222 42 -228C42 -235 47 -238 57 -238Z" glyph-name="commaaccent" horiz-adv-x="242" /><glyph d="M149 524C149 592 178 620 248 620H575C645 620 674 592 674 524V174C674 111 637 78 576 78H249C178 78 149 106 149 174ZM55 174C55 53 119 -8 248 -8H575C704 -8 768 53 768 174V524C768 645 704 706 575 706H248C119 706 55 645 55 524ZM540 170V236C540 242 538 244 532 244C493 244 427 243 389 243C364 243 354 253 354 280V414C354 441 364 451 389 451C423 451 488 450 528 450C534 450 537 452 537 458V525C537 532 534 534 528 534C482 534 407 535 366 535C301 535 263 498 263 437V257C263 196 301 159 366 159C405 159 483 160 532 161C538 161 540 163 540 170Z" glyph-name="copyright" horiz-adv-x="823" unicode="&#169;" /><glyph d="M486 392C486 427 478 457 464 481L526 580C536 595 544 605 544 611C544 617 541 620 531 620H417C405 620 401 616 394 604L356 544H222L187 600C180 612 177 616 165 616H45C35 616 32 613 32 607C32 601 40 588 48 576L112 476C99 453 93 425 93 392V320C93 287 99 258 112 235L46 132C38 120 30 107 30 101C30 95 33 92 43 92H153C165 92 168 96 176 108L216 168H357L396 108C403 97 407 92 419 92H540C550 92 553 95 553 101C553 107 545 120 537 132L469 238C480 259 486 286 486 317ZM217 378C217 420 235 438 277 438H302C345 438 362 420 362 378V334C362 292 345 274 302 274H277C235 274 217 292 217 334Z" glyph-name="currency" horiz-adv-x="584" unicode="&#164;" /><glyph d="M341 397V131H234C195 131 179 147 179 186V342C179 381 195 397 234 397ZM295 0C307 0 311 4 318 16L343 60L368 16C375 4 379 0 391 0H470C482 0 486 4 486 16V688C486 700 482 704 470 704H357C345 704 341 700 341 688V528H196C93 528 33 469 33 366V162C33 59 93 0 196 0Z" glyph-name="d" horiz-adv-x="531" unicode="d" /><glyph d="M147 328 153 -72C153 -84 157 -88 169 -88H253C265 -88 269 -84 269 -72L275 328H380C392 328 396 332 396 344V433C396 445 392 449 380 449H277L279 616C279 628 275 632 263 632H159C147 632 143 628 143 616L145 449H41C29 449 25 445 25 433V344C25 332 29 328 41 328Z" glyph-name="dagger" horiz-adv-x="421" unicode="&#8224;" /><glyph d="M289 328H395C407 328 411 332 411 344V433C411 445 407 449 395 449H292L294 616C294 628 290 632 278 632H174C162 632 158 628 158 616L160 449H56C44 449 40 445 40 433V344C40 332 44 328 56 328H161V216H56C44 216 40 212 40 200V111C40 99 44 95 56 95H159L157 -72C157 -84 161 -88 173 -88H277C289 -88 293 -84 293 -72L291 95H395C407 95 411 99 411 111V200C411 212 407 216 395 216H289Z" glyph-name="daggerdbl" horiz-adv-x="436" unicode="&#8225;" /><glyph d="M630 575C642 575 647 578 652 591L691 692C695 703 699 711 699 718C699 725 694 729 683 729H577C565 729 561 726 558 713L537 612C536 606 533 595 533 588C533 579 539 575 549 575ZM341 397V131H234C195 131 179 147 179 186V342C179 381 195 397 234 397ZM295 0C307 0 311 4 318 16L343 60L368 16C375 4 379 0 391 0H470C482 0 486 4 486 16V688C486 700 482 704 470 704H357C345 704 341 700 341 688V528H196C93 528 33 469 33 366V162C33 59 93 0 196 0Z" glyph-name="dcaron" horiz-adv-x="549" unicode="&#271;" /><glyph d="M341 574V528H196C93 528 33 469 33 366V162C33 59 93 0 196 0H295C307 0 311 4 318 16L343 60L368 16C375 4 379 0 391 0H470C482 0 486 4 486 16V574H521C533 574 537 578 537 590V639C537 651 533 655 521 655H486V688C486 700 482 704 470 704H357C345 704 341 700 341 688V655H233C221 655 217 651 217 639V590C217 578 221 574 233 574ZM341 397V131H234C195 131 179 147 179 186V342C179 381 195 397 234 397Z" glyph-name="dcroat" horiz-adv-x="540" unicode="&#273;" /><glyph d="M149 596C149 619 156 631 201 631C246 631 253 619 253 596V544C253 521 246 510 201 510C156 510 149 521 149 544ZM352 608C352 682 317 715 201 715C85 715 50 682 50 608V533C50 459 85 426 201 426C317 426 352 459 352 533Z" glyph-name="degree" horiz-adv-x="402" unicode="&#176;" /><glyph d="M187 713C187 725 183 729 171 729H56C44 729 40 725 40 713V610C40 598 44 594 56 594H171C183 594 187 598 187 610ZM403 713C403 725 399 729 387 729H272C260 729 256 725 256 713V610C256 598 260 594 272 594H387C399 594 403 598 403 610Z" glyph-name="dieresis" horiz-adv-x="443" unicode="&#168;" /><glyph d="M489 289C501 289 505 293 505 305V404C505 416 501 420 489 420H95C83 420 79 416 79 404V305C79 293 83 289 95 289ZM366 224C366 236 362 240 350 240H236C224 240 220 236 220 224V119C220 107 224 103 236 103H350C362 103 366 107 366 119ZM366 590C366 602 362 606 350 606H236C224 606 220 602 220 590V485C220 473 224 469 236 469H350C362 469 366 473 366 485Z" glyph-name="divide" horiz-adv-x="584" unicode="&#247;" /><glyph d="M223 -58C223 -70 227 -74 239 -74H333C345 -74 349 -70 349 -58V15C467 18 536 76 536 189V234C536 360 466 388 398 402L243 433C207 440 199 451 199 488V492C199 542 218 542 265 542C337 542 429 540 478 539C490 539 494 543 494 555V664C494 676 490 680 478 680C453 680 401 681 349 682V757C349 769 345 773 333 773H239C227 773 223 769 223 757V682C112 676 48 623 48 514V470C48 345 117 316 186 303L340 273C376 266 384 252 384 215V209C384 159 366 156 319 156C241 156 137 158 81 159C69 159 65 155 65 143V34C65 22 69 18 81 18C108 17 165 16 223 15Z" glyph-name="dollar" horiz-adv-x="584" unicode="$" /><glyph d="M209 713C209 725 205 729 193 729H56C44 729 40 725 40 713V610C40 598 44 594 56 594H193C205 594 209 598 209 610Z" glyph-name="dotaccent" horiz-adv-x="249" unicode="&#729;" /><glyph d="M83 395V16C83 4 87 0 99 0H212C224 0 228 4 228 16V512C228 524 224 528 212 528H36C24 528 20 524 20 512V411C20 399 24 395 36 395Z" glyph-name="dotlessi" horiz-adv-x="273" unicode="&#305;" /><glyph d="M176 359C176 398 192 414 231 414H276C315 414 331 398 331 359V308H176ZM460 13V109C460 121 456 125 444 125C388 124 292 122 231 122C192 122 176 138 176 177V211H458C470 211 474 215 474 227V372C474 475 414 534 311 534H196C93 534 33 475 33 372V156C33 53 93 -6 196 -6C281 -6 388 -4 444 -3C456 -3 460 1 460 13Z" glyph-name="e" horiz-adv-x="502" unicode="e" /><glyph d="M176 359C176 398 192 414 231 414H276C315 414 331 398 331 359V308H176ZM460 13V109C460 121 456 125 444 125C388 124 292 122 231 122C192 122 176 138 176 177V211H458C470 211 474 215 474 227V372C474 475 414 534 311 534H196C93 534 33 475 33 372V156C33 53 93 -6 196 -6C281 -6 388 -4 444 -3C456 -3 460 1 460 13ZM298 594C310 594 316 599 325 610L393 692C400 700 409 711 409 719C409 726 404 729 394 729H264C252 729 248 725 241 713L193 631C189 624 181 611 181 604C181 597 186 594 196 594Z" glyph-name="eacute" horiz-adv-x="502" unicode="&#233;" /><glyph d="M176 359C176 398 192 414 231 414H276C315 414 331 398 331 359V308H176ZM460 13V109C460 121 456 125 444 125C388 124 292 122 231 122C192 122 176 138 176 177V211H458C470 211 474 215 474 227V372C474 475 414 534 311 534H196C93 534 33 475 33 372V156C33 53 93 -6 196 -6C281 -6 388 -4 444 -3C456 -3 460 1 460 13ZM118 729C108 729 103 726 103 719C103 712 110 701 116 692L170 610C178 598 181 594 193 594H315C327 594 330 598 338 610L391 692C397 701 404 712 404 719C404 726 399 729 389 729H302C290 729 285 725 279 713L254 660L229 713C223 725 218 729 206 729Z" glyph-name="ecaron" horiz-adv-x="502" unicode="&#283;" /><glyph d="M176 359C176 398 192 414 231 414H276C315 414 331 398 331 359V308H176ZM460 13V109C460 121 456 125 444 125C388 124 292 122 231 122C192 122 176 138 176 177V211H458C470 211 474 215 474 227V372C474 475 414 534 311 534H196C93 534 33 475 33 372V156C33 53 93 -6 196 -6C281 -6 388 -4 444 -3C456 -3 460 1 460 13ZM391 594C401 594 406 597 406 604C406 611 399 622 393 631L339 713C331 725 328 729 316 729H194C182 729 179 725 171 713L118 631C112 622 105 611 105 604C105 597 110 594 120 594H207C219 594 224 598 230 610L255 663L280 610C286 598 291 594 303 594Z" glyph-name="ecircumflex" horiz-adv-x="502" unicode="&#234;" /><glyph d="M176 359C176 398 192 414 231 414H276C315 414 331 398 331 359V308H176ZM460 13V109C460 121 456 125 444 125C388 124 292 122 231 122C192 122 176 138 176 177V211H458C470 211 474 215 474 227V372C474 475 414 534 311 534H196C93 534 33 475 33 372V156C33 53 93 -6 196 -6C281 -6 388 -4 444 -3C456 -3 460 1 460 13ZM220 713C220 725 216 729 204 729H89C77 729 73 725 73 713V610C73 598 77 594 89 594H204C216 594 220 598 220 610ZM436 713C436 725 432 729 420 729H305C293 729 289 725 289 713V610C289 598 293 594 305 594H420C432 594 436 598 436 610Z" glyph-name="edieresis" horiz-adv-x="502" unicode="&#235;" /><glyph d="M176 359C176 398 192 414 231 414H276C315 414 331 398 331 359V308H176ZM460 13V109C460 121 456 125 444 125C388 124 292 122 231 122C192 122 176 138 176 177V211H458C470 211 474 215 474 227V372C474 475 414 534 311 534H196C93 534 33 475 33 372V156C33 53 93 -6 196 -6C281 -6 388 -4 444 -3C456 -3 460 1 460 13ZM340 713C340 725 336 729 324 729H187C175 729 171 725 171 713V610C171 598 175 594 187 594H324C336 594 340 598 340 610Z" glyph-name="edotaccent" horiz-adv-x="502" unicode="&#279;" /><glyph d="M176 359C176 398 192 414 231 414H276C315 414 331 398 331 359V308H176ZM460 13V109C460 121 456 125 444 125C388 124 292 122 231 122C192 122 176 138 176 177V211H458C470 211 474 215 474 227V372C474 475 414 534 311 534H196C93 534 33 475 33 372V156C33 53 93 -6 196 -6C281 -6 388 -4 444 -3C456 -3 460 1 460 13ZM291 594C301 594 306 597 306 604C306 611 298 624 294 631L246 713C239 725 235 729 223 729H94C84 729 79 726 79 719C79 711 88 700 95 692L163 610C172 599 178 594 190 594Z" glyph-name="egrave" horiz-adv-x="502" unicode="&#232;" /><glyph d="M363 -8C487 -8 558 53 558 169V228C558 350 453 363 449 364C458 366 549 387 549 502V532C549 648 478 706 354 706H230C106 706 35 648 35 532V502C35 384 129 365 134 364C129 363 26 349 26 228V169C26 53 97 -8 221 -8ZM341 293C388 293 407 273 407 223V196C407 146 388 126 341 126H243C196 126 177 146 177 196V223C177 273 196 293 243 293ZM252 411C208 411 186 426 186 478V505C186 553 205 572 252 572H332C379 572 398 553 398 505V478C398 426 376 411 332 411Z" glyph-name="eight" horiz-adv-x="584" unicode="8" /><glyph d="M191 129C191 141 187 145 175 145H51C39 145 35 141 35 129V16C35 4 39 0 51 0H175C187 0 191 4 191 16ZM417 129C417 141 413 145 401 145H277C265 145 261 141 261 129V16C261 4 265 0 277 0H401C413 0 417 4 417 16ZM643 129C643 141 639 145 627 145H503C491 145 487 141 487 129V16C487 4 491 0 503 0H627C639 0 643 4 643 16Z" glyph-name="ellipsis" horiz-adv-x="678" unicode="&#8230;" /><glyph d="M176 359C176 398 192 414 231 414H276C315 414 331 398 331 359V308H176ZM460 13V109C460 121 456 125 444 125C388 124 292 122 231 122C192 122 176 138 176 177V211H458C470 211 474 215 474 227V372C474 475 414 534 311 534H196C93 534 33 475 33 372V156C33 53 93 -6 196 -6C281 -6 388 -4 444 -3C456 -3 460 1 460 13ZM389 604C401 604 405 608 405 620V703C405 715 401 719 389 719H121C109 719 105 715 105 703V620C105 608 109 604 121 604Z" glyph-name="emacron" horiz-adv-x="502" unicode="&#275;" /><glyph d="M954 202C966 202 970 206 970 218V319C970 331 966 335 954 335H46C34 335 30 331 30 319V218C30 206 34 202 46 202Z" glyph-name="emdash" horiz-adv-x="1000" unicode="&#8212;" /><glyph d="M954 288C966 288 970 292 970 304V405C970 417 966 421 954 421H46C34 421 30 417 30 405V304C30 292 34 288 46 288Z" glyph-name="emdash.alt" horiz-adv-x="1000" /><glyph d="M454 202C466 202 470 206 470 218V319C470 331 466 335 454 335H46C34 335 30 331 30 319V218C30 206 34 202 46 202Z" glyph-name="endash" horiz-adv-x="500" unicode="&#8211;" /><glyph d="M454 288C466 288 470 292 470 304V405C470 417 466 421 454 421H46C34 421 30 417 30 405V304C30 292 34 288 46 288Z" glyph-name="endash.alt" horiz-adv-x="500" /><glyph d="M61 528C49 528 45 524 45 512V16C45 4 49 0 61 0H174C186 0 190 4 190 16V395H287C326 395 342 379 342 340V-2C342 -24 336 -35 313 -35H263C251 -35 247 -39 247 -51V-151C247 -163 251 -166 263 -167C270 -168 281 -168 288 -168H341C446 -168 487 -127 487 -22V366C487 469 427 528 324 528H236C224 528 220 524 213 512L188 468L163 512C156 524 152 528 140 528Z" glyph-name="eng" horiz-adv-x="529" unicode="&#331;" /><glyph d="M474 -82C474 -72 471 -69 461 -69H454C431 -69 417 -64 417 -46C417 -25 441 -9 452 -2C459 2 460 4 460 13V109C460 121 456 125 444 125C388 124 292 122 231 122C192 122 176 138 176 177V211H458C470 211 474 215 474 227V372C474 475 414 534 311 534H196C93 534 33 475 33 372V156C33 53 93 -6 196 -6C242 -6 287 -5 328 -5C306 -21 286 -47 286 -82C286 -151 362 -160 429 -160C444 -160 456 -159 461 -159C471 -158 474 -156 474 -146ZM176 359C176 398 192 414 231 414H276C315 414 331 398 331 359V308H176Z" glyph-name="eogonek" horiz-adv-x="502" unicode="&#281;" /><glyph d="M489 393C501 393 505 397 505 409V509C505 521 501 525 489 525H95C83 525 79 521 79 509V409C79 397 83 393 95 393ZM489 184C501 184 505 188 505 200V300C505 312 501 316 489 316H95C83 316 79 312 79 300V200C79 188 83 184 95 184Z" glyph-name="equal" horiz-adv-x="584" unicode="=" /><glyph d="M302 689C295 701 290 705 278 705H161C151 705 146 702 146 695C146 688 152 678 159 668L200 612L139 596C126 593 123 588 123 576V526C123 518 127 514 134 514C141 514 150 517 157 519L247 544L302 467H196C93 467 33 408 33 305V156C33 53 93 -6 196 -6H332C435 -6 495 50 495 153V301C495 378 469 422 440 467L369 578L431 595C444 599 447 603 447 615V665C447 673 443 677 436 677C429 677 420 674 413 672L327 648ZM177 286C177 325 193 341 232 341H296C335 341 351 325 351 286V175C351 136 335 120 296 120H232C193 120 177 136 177 175Z" glyph-name="eth" horiz-adv-x="528" unicode="&#240;" /><glyph d="M68 222C68 210 72 206 84 206H181C193 206 197 210 197 222L210 688C210 700 206 704 194 704H71C59 704 55 700 55 688ZM210 129C210 141 206 145 194 145H71C59 145 55 141 55 129V16C55 4 59 0 71 0H194C206 0 210 4 210 16Z" glyph-name="exclam" horiz-adv-x="265" unicode="!" /><glyph d="M197 306C197 318 193 322 181 322H84C72 322 68 318 68 306L55 -160C55 -172 59 -176 71 -176H194C206 -176 210 -172 210 -160ZM55 399C55 387 59 383 71 383H194C206 383 210 387 210 399V512C210 524 206 528 194 528H71C59 528 55 524 55 512Z" glyph-name="exclamdown" horiz-adv-x="265" unicode="&#161;" /><glyph d="M299 689C299 701 295 704 283 705C276 706 265 706 258 706H191C86 706 45 665 45 560V16C45 4 49 0 61 0H174C186 0 190 4 190 16V405H281C293 405 297 409 297 421V512C297 524 293 528 281 528H190V554C190 576 196 587 219 587H283C295 587 299 591 299 603Z" glyph-name="f" horiz-adv-x="329" unicode="f" /><glyph d="M200 379V557H502C514 557 518 561 518 573V682C518 694 514 698 502 698H69C57 698 53 694 53 682V319C53 307 57 303 69 303H343C385 303 401 291 401 245V203C401 153 382 133 335 133C258 133 138 135 68 136C56 136 52 132 52 120V11C52 -1 56 -5 68 -5C133 -6 255 -8 351 -8C475 -8 552 66 552 182V264C552 386 487 439 363 439H248C236 439 232 435 225 423Z" glyph-name="five" horiz-adv-x="584" unicode="5" /><glyph d="M75 -2C75 -24 69 -35 46 -35H-4C-16 -35 -20 -39 -20 -51V-151C-20 -163 -16 -166 -4 -167C3 -168 14 -168 21 -168H74C179 -168 220 -127 220 -22V405H311C323 405 327 409 327 421V512C327 524 323 528 311 528H220V554C220 576 226 587 249 587H313C325 587 329 591 329 603V689C329 701 325 704 313 705C306 706 295 706 288 706H221C116 706 75 665 75 560Z" glyph-name="florin" horiz-adv-x="359" unicode="&#402;" /><glyph d="M23 165C23 153 27 149 39 149H386V16C386 4 390 0 402 0H521C533 0 537 4 537 16V426C537 438 533 442 521 442H402C390 442 386 438 386 426V291H189L449 661C455 670 463 681 463 688C463 695 458 698 448 698H314C302 698 297 693 290 682L29 301C25 295 23 290 23 282Z" glyph-name="four" horiz-adv-x="584" unicode="4" /><glyph d="M495 665C499 672 505 681 505 688C505 695 500 698 490 698H408C396 698 392 694 385 682L10 33C6 26 0 17 0 10C0 3 5 0 15 0H97C109 0 113 4 120 16Z" glyph-name="fraction" horiz-adv-x="505" unicode="&#8260;" /><glyph d="M14 -76V-91C14 -168 44 -235 171 -235H333C436 -235 496 -187 496 -84V-57C496 22 464 53 382 72L239 105C208 112 203 124 203 152V166H301C404 166 452 210 452 312V333C452 343 450 349 446 360L422 421H462C475 421 478 425 478 437V511C478 524 475 528 462 528H172C70 528 22 481 22 378V316C22 240 41 199 96 181L78 147C74 139 72 131 72 120V89C72 67 76 44 91 27C45 16 14 -17 14 -76ZM155 366C155 405 165 415 204 415H270C309 415 318 405 318 366V323C318 284 309 277 270 277H204C165 277 155 287 155 326ZM152 -61C152 -24 163 -11 170 -5L301 -35C349 -46 355 -52 355 -77V-83C355 -111 342 -122 311 -122H199C163 -122 152 -110 152 -78Z" glyph-name="g" horiz-adv-x="508" unicode="g" /><glyph d="M311 782H243C231 782 224 778 216 766L173 705C168 696 166 691 166 678V610C166 598 170 594 182 594H312C324 594 328 598 328 610V690C328 702 324 706 312 706H275L311 749C318 757 326 766 326 772C326 779 321 782 311 782ZM14 -76V-91C14 -168 44 -235 171 -235H333C436 -235 496 -187 496 -84V-57C496 22 464 53 382 72L239 105C208 112 203 124 203 152V166H301C404 166 452 210 452 312V333C452 343 450 349 446 360L422 421H462C475 421 478 425 478 437V511C478 524 475 528 462 528H172C70 528 22 481 22 378V316C22 240 41 199 96 181L78 147C74 139 72 131 72 120V89C72 67 76 44 91 27C45 16 14 -17 14 -76ZM155 366C155 405 165 415 204 415H270C309 415 318 405 318 366V323C318 284 309 277 270 277H204C165 277 155 287 155 326ZM152 -61C152 -24 163 -11 170 -5L301 -35C349 -46 355 -52 355 -77V-83C355 -111 342 -122 311 -122H199C163 -122 152 -110 152 -78Z" glyph-name="gcommaaccent" horiz-adv-x="508" unicode="&#291;" /><glyph d="M341 290C380 290 396 274 396 235V185C396 146 380 130 341 130H261C249 130 245 126 245 114V16C245 4 249 0 261 0H377C480 0 540 56 540 159V229C540 361 425 370 410 371C426 372 507 385 507 501V542C507 645 447 704 344 704H208C105 704 45 645 45 542V16C45 4 49 0 61 0H174C186 0 190 4 190 16V523C190 562 206 578 245 578H307C346 578 362 562 362 523V473C362 434 346 418 307 418H266C254 418 250 414 250 402V306C250 294 254 290 266 290Z" glyph-name="germandbls" horiz-adv-x="570" unicode="&#223;" /><glyph d="M252 594C262 594 267 597 267 604C267 611 259 624 255 631L207 713C200 725 196 729 184 729H55C45 729 40 726 40 719C40 711 49 700 56 692L124 610C133 599 139 594 151 594Z" glyph-name="grave" horiz-adv-x="307" unicode="`" /><glyph d="M508 400C508 412 503 416 492 421L152 575C145 578 136 583 129 583C122 583 118 579 118 571V453C118 441 122 438 134 433L347 350L134 267C122 262 118 259 118 247V134C118 126 122 122 129 122C136 122 145 127 152 130L492 284C503 289 508 293 508 305Z" glyph-name="greater" horiz-adv-x="584" unicode="&gt;" /><glyph d="M271 235 359 82C366 70 370 66 382 66H488C498 66 503 69 503 76C503 83 494 96 490 103L385 273L482 437C486 444 495 457 495 464C495 471 490 474 480 474H382C370 474 366 470 359 458L271 305C261 287 255 279 255 270C255 261 261 252 271 235ZM56 235 144 82C151 70 155 66 167 66H270C280 66 285 69 285 76C285 83 276 96 272 103L170 273L267 437C271 444 280 457 280 464C280 471 275 474 265 474H167C155 474 151 470 144 458L56 305C46 287 40 279 40 270C40 261 46 252 56 235Z" glyph-name="guillemotleft" horiz-adv-x="543" unicode="&#171;" /><glyph d="M272 305 184 458C177 470 173 474 161 474H55C45 474 40 471 40 464C40 457 49 444 53 437L158 267L61 103C57 96 48 83 48 76C48 69 53 66 63 66H161C173 66 177 70 184 82L272 235C282 253 288 261 288 270C288 279 282 288 272 305ZM487 305 399 458C392 470 388 474 376 474H273C263 474 258 471 258 464C258 457 267 444 271 437L373 267L276 103C272 96 263 83 263 76C263 69 268 66 278 66H376C388 66 392 70 399 82L487 235C497 253 503 261 503 270C503 279 497 288 487 305Z" glyph-name="guillemotright" horiz-adv-x="543" unicode="&#187;" /><glyph d="M56 235 144 82C151 70 155 66 167 66H273C283 66 288 69 288 76C288 83 279 96 275 103L170 273L267 437C271 444 280 457 280 464C280 471 275 474 265 474H167C155 474 151 470 144 458L56 305C46 287 40 279 40 270C40 261 46 252 56 235Z" glyph-name="guilsinglleft" horiz-adv-x="328" unicode="&#8249;" /><glyph d="M272 305 184 458C177 470 173 474 161 474H55C45 474 40 471 40 464C40 457 49 444 53 437L158 267L61 103C57 96 48 83 48 76C48 69 53 66 63 66H161C173 66 177 70 184 82L272 235C282 253 288 261 288 270C288 279 282 288 272 305Z" glyph-name="guilsinglright" horiz-adv-x="328" unicode="&#8250;" /><glyph d="M190 468V688C190 700 186 704 174 704H61C49 704 45 700 45 688V16C45 4 49 0 61 0H174C186 0 190 4 190 16V395H287C326 395 342 379 342 340V16C342 4 346 0 358 0H471C483 0 487 4 487 16V366C487 469 427 528 324 528H238C226 528 222 524 215 512Z" glyph-name="h" horiz-adv-x="529" unicode="h" /><glyph d="M356 594C368 594 374 599 383 610L451 692C458 700 467 711 467 719C467 726 462 729 452 729H328C316 729 312 725 305 713L257 631C253 624 245 611 245 604C245 597 250 594 260 594ZM149 594C161 594 168 598 176 610L233 692C239 701 247 711 247 719C247 726 242 729 232 729H110C98 729 93 726 87 713L50 631C47 624 40 611 40 604C40 597 45 594 55 594Z" glyph-name="hungarumlaut" horiz-adv-x="507" unicode="&#733;" /><glyph d="M241 202C253 202 257 206 257 218V319C257 331 253 335 241 335H46C34 335 30 331 30 319V218C30 206 34 202 46 202Z" glyph-name="hyphen" horiz-adv-x="287" unicode="-" /><glyph d="M241 288C253 288 257 292 257 304V405C257 417 253 421 241 421H46C34 421 30 417 30 405V304C30 292 34 288 46 288Z" glyph-name="hyphen.alt" horiz-adv-x="287" /><glyph d="M230 713C230 725 226 729 214 729H77C65 729 61 725 61 713V610C61 598 65 594 77 594H214C226 594 230 598 230 610ZM83 395V16C83 4 87 0 99 0H212C224 0 228 4 228 16V512C228 524 224 528 212 528H36C24 528 20 524 20 512V411C20 399 24 395 36 395Z" glyph-name="i" horiz-adv-x="273" unicode="i" /><glyph d="M83 395V16C83 4 87 0 99 0H212C224 0 228 4 228 16V512C228 524 224 528 212 528H36C24 528 20 524 20 512V411C20 399 24 395 36 395ZM196 594C208 594 214 599 223 610L291 692C298 700 307 711 307 719C307 726 302 729 292 729H162C150 729 146 725 139 713L91 631C87 624 79 611 79 604C79 597 84 594 94 594Z" glyph-name="iacute" horiz-adv-x="273" unicode="&#237;" /><glyph d="M83 395V16C83 4 87 0 99 0H212C224 0 228 4 228 16V512C228 524 224 528 212 528H36C24 528 20 524 20 512V411C20 399 24 395 36 395ZM275 594C285 594 290 597 290 604C290 611 283 622 277 631L223 713C215 725 212 729 200 729H78C66 729 63 725 55 713L2 631C-4 622 -11 611 -11 604C-11 597 -6 594 4 594H91C103 594 108 598 114 610L139 663L164 610C170 598 175 594 187 594Z" glyph-name="icircumflex" horiz-adv-x="273" unicode="&#238;" /><glyph d="M112 713C112 725 108 729 96 729H-19C-31 729 -35 725 -35 713V610C-35 598 -31 594 -19 594H96C108 594 112 598 112 610ZM308 713C308 725 304 729 292 729H177C165 729 161 725 161 713V610C161 598 165 594 177 594H292C304 594 308 598 308 610ZM83 395V16C83 4 87 0 99 0H212C224 0 228 4 228 16V512C228 524 224 528 212 528H36C24 528 20 524 20 512V411C20 399 24 395 36 395Z" glyph-name="idieresis" horiz-adv-x="273" unicode="&#239;" /><glyph d="M83 395V16C83 4 87 0 99 0H212C224 0 228 4 228 16V512C228 524 224 528 212 528H36C24 528 20 524 20 512V411C20 399 24 395 36 395ZM188 594C198 594 203 597 203 604C203 611 195 624 191 631L143 713C136 725 132 729 120 729H-9C-19 729 -24 726 -24 719C-24 711 -15 700 -8 692L60 610C69 599 75 594 87 594Z" glyph-name="igrave" horiz-adv-x="273" unicode="&#236;" /><glyph d="M253 604C265 604 269 608 269 620V703C269 715 265 719 253 719H15C3 719 -1 715 -1 703V620C-1 608 3 604 15 604ZM83 395V16C83 4 87 0 99 0H212C224 0 228 4 228 16V512C228 524 224 528 212 528H36C24 528 20 524 20 512V411C20 399 24 395 36 395Z" glyph-name="imacron" horiz-adv-x="273" unicode="&#299;" /><glyph d="M236 -82C236 -72 233 -69 223 -69H216C193 -69 179 -64 179 -46C179 -23 208 -5 219 0C225 3 228 6 228 16V512C228 524 224 528 212 528H36C24 528 20 524 20 512V411C20 399 24 395 36 395H83V16C83 4 87 0 99 0H103C77 -15 48 -43 48 -82C48 -151 124 -160 191 -160C206 -160 218 -159 223 -159C233 -158 236 -156 236 -146ZM230 713C230 725 226 729 214 729H77C65 729 61 725 61 713V610C61 598 65 594 77 594H214C226 594 230 598 230 610Z" glyph-name="iogonek" horiz-adv-x="273" unicode="&#303;" /><glyph d="M63 620C63 633 65 644 82 644C111 644 123 586 198 586C267 586 308 624 308 699V713C308 725 304 729 292 729H226C214 729 210 725 210 713V703C210 690 208 679 191 679C162 679 150 737 75 737C6 737 -35 699 -35 624V610C-35 598 -31 594 -19 594H47C59 594 63 598 63 610ZM83 395V16C83 4 87 0 99 0H212C224 0 228 4 228 16V512C228 524 224 528 212 528H36C24 528 20 524 20 512V411C20 399 24 395 36 395Z" glyph-name="itilde" horiz-adv-x="273" unicode="&#297;" /><glyph d="M245 711C245 723 241 727 229 727H96C84 727 80 723 80 711V610C80 598 84 594 96 594H229C241 594 245 598 245 610ZM245 512C245 524 241 528 229 528H53C41 528 37 524 37 512V411C37 399 41 395 53 395H100V-2C100 -24 94 -35 71 -35H21C9 -35 5 -39 5 -51V-151C5 -163 9 -166 21 -167C28 -168 39 -168 46 -168H99C204 -168 245 -127 245 -22Z" glyph-name="j" horiz-adv-x="290" unicode="j" /><glyph d="M361 285 489 491C493 498 502 511 502 518C502 525 497 528 487 528H366C354 528 350 524 343 512L241 346H190V688C190 700 186 704 174 704H61C49 704 45 700 45 688V16C45 4 49 0 61 0H174C186 0 190 4 190 16V215H241L350 16C357 4 361 0 373 0H504C514 0 519 3 519 10C519 17 511 30 507 37Z" glyph-name="k" horiz-adv-x="529" unicode="k" /><glyph d="M361 285 489 491C493 498 502 511 502 518C502 525 497 528 487 528H366C354 528 350 524 343 512L241 346H190V688C190 700 186 704 174 704H61C49 704 45 700 45 688V16C45 4 49 0 61 0H174C186 0 190 4 190 16V215H241L350 16C357 4 361 0 373 0H504C514 0 519 3 519 10C519 17 511 30 507 37ZM202 -238H270C282 -238 289 -234 297 -222L340 -161C345 -152 347 -147 347 -134V-66C347 -54 343 -50 331 -50H201C189 -50 185 -54 185 -66V-146C185 -158 189 -162 201 -162H238L202 -205C195 -213 187 -222 187 -228C187 -235 192 -238 202 -238Z" glyph-name="kcommaaccent" horiz-adv-x="529" unicode="&#311;" /><glyph d="M361 285 489 491C493 498 502 511 502 518C502 525 497 528 487 528H366C354 528 350 524 343 512L241 346H190V512C190 524 186 528 174 528H61C49 528 45 524 45 512V16C45 4 49 0 61 0H174C186 0 190 4 190 16V215H241L350 16C357 4 361 0 373 0H504C514 0 519 3 519 10C519 17 511 30 507 37Z" glyph-name="kgreenlandic" horiz-adv-x="529" unicode="&#312;" /><glyph d="M236 -4C243 -4 254 -4 261 -3C273 -2 277 1 277 13V113C277 125 273 129 261 129H217C192 129 185 141 185 165V688C185 700 181 704 169 704H56C44 704 40 700 40 688V142C40 37 81 -4 186 -4Z" glyph-name="l" horiz-adv-x="302" unicode="l" /><glyph d="M236 -4C243 -4 254 -4 261 -3C273 -2 277 1 277 13V113C277 125 273 129 261 129H217C192 129 185 141 185 165V688C185 700 181 704 169 704H56C44 704 40 700 40 688V142C40 37 81 -4 186 -4ZM164 754C176 754 182 759 191 770L259 852C266 860 275 871 275 879C275 886 270 889 260 889H130C118 889 114 885 107 873L59 791C55 784 47 771 47 764C47 757 52 754 62 754Z" glyph-name="lacute" horiz-adv-x="302" unicode="&#314;" /><glyph d="M329 575C341 575 346 578 351 591L390 692C394 703 398 711 398 718C398 725 393 729 382 729H276C264 729 260 726 257 713L236 612C235 606 232 595 232 588C232 579 238 575 248 575ZM236 -4C243 -4 254 -4 261 -3C273 -2 277 1 277 13V113C277 125 273 129 261 129H217C192 129 185 141 185 165V688C185 700 181 704 169 704H56C44 704 40 700 40 688V142C40 37 81 -4 186 -4Z" glyph-name="lcaron" horiz-adv-x="301" unicode="&#318;" /><glyph d="M236 -4C243 -4 254 -4 261 -3C273 -2 277 1 277 13V113C277 125 273 129 261 129H217C192 129 185 141 185 165V688C185 700 181 704 169 704H56C44 704 40 700 40 688V142C40 37 81 -4 186 -4ZM98 -238H166C178 -238 185 -234 193 -222L236 -161C241 -152 243 -147 243 -134V-66C243 -54 239 -50 227 -50H97C85 -50 81 -54 81 -66V-146C81 -158 85 -162 97 -162H134L98 -205C91 -213 83 -222 83 -228C83 -235 88 -238 98 -238Z" glyph-name="lcommaaccent" horiz-adv-x="302" unicode="&#316;" /><glyph d="M76 305C76 293 81 289 92 284L432 130C439 127 448 122 455 122C462 122 466 126 466 134V252C466 264 462 267 450 272L237 355L450 438C462 443 466 446 466 458V571C466 579 462 583 455 583C448 583 439 578 432 575L92 421C81 416 76 412 76 400Z" glyph-name="less" horiz-adv-x="584" unicode="&lt;" /><glyph d="M357 288V194C357 182 361 178 373 178H479C491 178 495 182 495 194V405C495 417 491 421 479 421H85C73 421 69 417 69 405V304C69 292 73 288 85 288Z" glyph-name="logicalnot" horiz-adv-x="584" unicode="&#172;" /><glyph d="M232 339 308 373C320 378 324 381 324 393V499C324 507 320 511 313 511C306 511 293 504 290 503L232 477V688C232 700 228 704 216 704H103C91 704 87 700 87 688V421L31 396C19 391 15 388 15 376V270C15 262 19 258 26 258C33 258 46 265 49 266L87 283V142C87 37 128 -4 233 -4H283C290 -4 301 -4 308 -3C320 -2 324 1 324 13V113C324 125 320 129 308 129H264C239 129 232 141 232 165Z" glyph-name="lslash" horiz-adv-x="359" unicode="&#322;" /><glyph d="M497 528C485 528 481 524 474 512L449 468C425 507 385 528 311 528H236C224 528 220 524 213 512L188 468L163 512C156 524 152 528 140 528H61C49 528 45 524 45 512V16C45 4 49 0 61 0H174C186 0 190 4 190 16V395H274C313 395 329 379 329 340V16C329 4 333 0 345 0H458C470 0 474 4 474 16V395H558C597 395 613 379 613 340V16C613 4 617 0 629 0H742C754 0 758 4 758 16V366C758 469 698 528 595 528Z" glyph-name="m" horiz-adv-x="800" unicode="m" /><glyph d="M324 604C336 604 340 608 340 620V703C340 715 336 719 324 719H56C44 719 40 715 40 703V620C40 608 44 604 56 604Z" glyph-name="macron" horiz-adv-x="380" unicode="&#175;" /><glyph d="M489 288C501 288 505 292 505 304V405C505 417 501 421 489 421H95C83 421 79 417 79 405V304C79 292 83 288 95 288Z" glyph-name="minus" horiz-adv-x="584" unicode="&#8722;" /><glyph d="M294 0C306 0 310 4 317 16L342 60L367 16C374 4 378 0 390 0H469C481 0 485 4 485 16V512C485 524 481 528 469 528H356C344 528 340 524 340 512V133H245C206 133 190 149 190 188V512C190 524 186 528 174 528H61C49 528 45 524 45 512V-144C45 -156 49 -160 61 -160H174C186 -160 190 -156 190 -144V0Z" glyph-name="mu" horiz-adv-x="530" unicode="&#181;" /><glyph d="M291 259 357 167C366 155 371 151 383 151H510C519 151 524 154 524 161C524 168 509 185 507 188L374 354L505 517C507 520 523 537 523 544C523 551 518 554 509 554H387C375 554 370 551 361 538L294 445L227 538C218 551 213 554 201 554H74C65 554 60 551 60 544C60 537 75 520 77 517L211 350L81 188C79 185 64 168 64 161C64 154 69 151 78 151H199C211 151 215 154 225 167Z" glyph-name="multiply" horiz-adv-x="584" unicode="&#215;" /><glyph d="M61 528C49 528 45 524 45 512V16C45 4 49 0 61 0H174C186 0 190 4 190 16V395H287C326 395 342 379 342 340V16C342 4 346 0 358 0H471C483 0 487 4 487 16V366C487 469 427 528 324 528H236C224 528 220 524 213 512L188 468L163 512C156 524 152 528 140 528Z" glyph-name="n" horiz-adv-x="529" unicode="n" /><glyph d="M61 528C49 528 45 524 45 512V16C45 4 49 0 61 0H174C186 0 190 4 190 16V395H287C326 395 342 379 342 340V16C342 4 346 0 358 0H471C483 0 487 4 487 16V366C487 469 427 528 324 528H236C224 528 220 524 213 512L188 468L163 512C156 524 152 528 140 528ZM321 594C333 594 339 599 348 610L416 692C423 700 432 711 432 719C432 726 427 729 417 729H287C275 729 271 725 264 713L216 631C212 624 204 611 204 604C204 597 209 594 219 594Z" glyph-name="nacute" horiz-adv-x="529" unicode="&#324;" /><glyph d="M61 528C49 528 45 524 45 512V16C45 4 49 0 61 0H174C186 0 190 4 190 16V395H287C326 395 342 379 342 340V16C342 4 346 0 358 0H471C483 0 487 4 487 16V366C487 469 427 528 324 528H236C224 528 220 524 213 512L188 468L163 512C156 524 152 528 140 528ZM131 729C121 729 116 726 116 719C116 712 123 701 129 692L183 610C191 598 194 594 206 594H328C340 594 343 598 351 610L404 692C410 701 417 712 417 719C417 726 412 729 402 729H315C303 729 298 725 292 713L267 660L242 713C236 725 231 729 219 729Z" glyph-name="ncaron" horiz-adv-x="529" unicode="&#328;" /><glyph d="M61 528C49 528 45 524 45 512V16C45 4 49 0 61 0H174C186 0 190 4 190 16V395H287C326 395 342 379 342 340V16C342 4 346 0 358 0H471C483 0 487 4 487 16V366C487 469 427 528 324 528H236C224 528 220 524 213 512L188 468L163 512C156 524 152 528 140 528ZM203 -238H271C283 -238 290 -234 298 -222L341 -161C346 -152 348 -147 348 -134V-66C348 -54 344 -50 332 -50H202C190 -50 186 -54 186 -66V-146C186 -158 190 -162 202 -162H239L203 -205C196 -213 188 -222 188 -228C188 -235 193 -238 203 -238Z" glyph-name="ncommaaccent" horiz-adv-x="529" unicode="&#326;" /><glyph d="M393 388C349 386 277 384 238 384C196 384 180 396 180 442V500C180 550 199 570 246 570H327C374 570 393 550 393 500ZM394 312V206C394 158 375 139 328 139C253 139 141 141 77 142C65 142 61 138 61 126V17C61 5 65 1 77 1C143 0 261 -2 344 -2C468 -2 544 69 544 185V516C544 632 467 706 343 706H230C106 706 29 632 29 516V415C29 293 90 248 214 248C252 248 312 250 346 252C358 253 362 256 369 268Z" glyph-name="nine" horiz-adv-x="584" unicode="9" /><glyph d="M61 528C49 528 45 524 45 512V16C45 4 49 0 61 0H174C186 0 190 4 190 16V395H287C326 395 342 379 342 340V16C342 4 346 0 358 0H471C483 0 487 4 487 16V366C487 469 427 528 324 528H236C224 528 220 524 213 512L188 468L163 512C156 524 152 528 140 528ZM182 620C182 633 184 644 201 644C230 644 256 586 335 586C404 586 447 624 447 699V713C447 725 443 729 431 729H365C353 729 349 725 349 713V703C349 690 347 679 330 679C301 679 275 737 196 737C127 737 84 699 84 624V610C84 598 88 594 100 594H166C178 594 182 598 182 610Z" glyph-name="ntilde" horiz-adv-x="529" unicode="&#241;" /><glyph d="M154 417 125 288H26C14 288 10 284 10 272V183C10 171 14 167 26 167H98L73 51C71 40 66 20 66 13C66 4 71 0 83 0H182C194 0 196 5 198 16L231 167H350L325 51C323 40 318 20 318 13C318 4 323 0 335 0H434C446 0 448 5 450 16L483 167H583C595 167 599 171 599 183V272C599 284 595 288 583 288H510L539 417H639C651 417 655 421 655 433V522C655 534 651 538 639 538H566L590 647C592 658 597 678 597 685C597 694 592 698 580 698H481C469 698 467 693 465 682L433 538H314L338 647C340 658 345 678 345 685C345 694 340 698 328 698H229C217 698 215 693 213 682L181 538H82C70 538 66 534 66 522V433C66 421 70 417 82 417ZM286 418H408L379 287H257Z" glyph-name="numbersign" horiz-adv-x="665" unicode="#" /><glyph d="M495 372C495 475 435 534 332 534H196C93 534 33 475 33 372V156C33 53 93 -6 196 -6H332C435 -6 495 50 495 153ZM177 353C177 392 193 408 232 408H296C335 408 351 392 351 353V175C351 136 335 120 296 120H232C193 120 177 136 177 175Z" glyph-name="o" horiz-adv-x="528" unicode="o" /><glyph d="M495 372C495 475 435 534 332 534H196C93 534 33 475 33 372V156C33 53 93 -6 196 -6H332C435 -6 495 50 495 153ZM177 353C177 392 193 408 232 408H296C335 408 351 392 351 353V175C351 136 335 120 296 120H232C193 120 177 136 177 175ZM311 594C323 594 329 599 338 610L406 692C413 700 422 711 422 719C422 726 417 729 407 729H277C265 729 261 725 254 713L206 631C202 624 194 611 194 604C194 597 199 594 209 594Z" glyph-name="oacute" horiz-adv-x="528" unicode="&#243;" /><glyph d="M495 372C495 475 435 534 332 534H196C93 534 33 475 33 372V156C33 53 93 -6 196 -6H332C435 -6 495 50 495 153ZM177 353C177 392 193 408 232 408H296C335 408 351 392 351 353V175C351 136 335 120 296 120H232C193 120 177 136 177 175ZM399 594C409 594 414 597 414 604C414 611 407 622 401 631L347 713C339 725 336 729 324 729H202C190 729 187 725 179 713L126 631C120 622 113 611 113 604C113 597 118 594 128 594H215C227 594 232 598 238 610L263 663L288 610C294 598 299 594 311 594Z" glyph-name="ocircumflex" horiz-adv-x="528" unicode="&#244;" /><glyph d="M495 372C495 475 435 534 332 534H196C93 534 33 475 33 372V156C33 53 93 -6 196 -6H332C435 -6 495 50 495 153ZM177 353C177 392 193 408 232 408H296C335 408 351 392 351 353V175C351 136 335 120 296 120H232C193 120 177 136 177 175ZM227 713C227 725 223 729 211 729H96C84 729 80 725 80 713V610C80 598 84 594 96 594H211C223 594 227 598 227 610ZM443 713C443 725 439 729 427 729H312C300 729 296 725 296 713V610C296 598 300 594 312 594H427C439 594 443 598 443 610Z" glyph-name="odieresis" horiz-adv-x="528" unicode="&#246;" /><glyph d="M763 -3C775 -3 779 1 779 13V109C779 121 775 125 763 125C707 124 611 122 550 122C513 122 495 138 495 173V211H777C789 211 793 215 793 227V372C793 475 733 534 630 534H520C443 534 424 480 423 477C421 482 402 534 327 534H196C93 534 33 475 33 372V156C33 53 93 -6 196 -6H326C403 -6 422 47 423 50C424 45 444 -6 519 -6C604 -6 708 -4 763 -3ZM177 353C177 392 193 408 232 408H297C336 408 352 392 352 353V175C352 136 336 120 297 120H232C193 120 177 136 177 175ZM495 359C495 398 511 414 550 414H595C634 414 650 398 650 359V308H495Z" glyph-name="oe" horiz-adv-x="821" unicode="&#339;" /><glyph d="M228 -82C228 -72 225 -69 215 -69H208C185 -69 171 -64 171 -46C171 -17 213 2 215 3L131 21C92 8 40 -29 40 -82C40 -151 116 -160 183 -160C198 -160 210 -159 215 -159C225 -158 228 -156 228 -146Z" glyph-name="ogonek" horiz-adv-x="268" unicode="&#731;" /><glyph d="M495 372C495 475 435 534 332 534H196C93 534 33 475 33 372V156C33 53 93 -6 196 -6H332C435 -6 495 50 495 153ZM177 353C177 392 193 408 232 408H296C335 408 351 392 351 353V175C351 136 335 120 296 120H232C193 120 177 136 177 175ZM315 594C325 594 330 597 330 604C330 611 322 624 318 631L270 713C263 725 259 729 247 729H118C108 729 103 726 103 719C103 711 112 700 119 692L187 610C196 599 202 594 214 594Z" glyph-name="ograve" horiz-adv-x="528" unicode="&#242;" /><glyph d="M495 372C495 475 435 534 332 534H196C93 534 33 475 33 372V156C33 53 93 -6 196 -6H332C435 -6 495 50 495 153ZM177 353C177 392 193 408 232 408H296C335 408 351 392 351 353V175C351 136 335 120 296 120H232C193 120 177 136 177 175ZM405 594C417 594 423 599 432 610L500 692C507 700 516 711 516 719C516 726 511 729 501 729H377C365 729 361 725 354 713L306 631C302 624 294 611 294 604C294 597 299 594 309 594ZM198 594C210 594 217 598 225 610L282 692C288 701 296 711 296 719C296 726 291 729 281 729H159C147 729 142 726 136 713L99 631C96 624 89 611 89 604C89 597 94 594 104 594Z" glyph-name="ohungarumlaut" horiz-adv-x="528" unicode="&#337;" /><glyph d="M495 372C495 475 435 534 332 534H196C93 534 33 475 33 372V156C33 53 93 -6 196 -6H332C435 -6 495 50 495 153ZM177 353C177 392 193 408 232 408H296C335 408 351 392 351 353V175C351 136 335 120 296 120H232C193 120 177 136 177 175ZM397 604C409 604 413 608 413 620V703C413 715 409 719 397 719H129C117 719 113 715 113 703V620C113 608 117 604 129 604Z" glyph-name="omacron" horiz-adv-x="528" unicode="&#333;" /><glyph d="M230 557V141H80C68 141 64 137 64 125V16C64 4 68 0 80 0H523C535 0 539 4 539 16V125C539 137 535 141 523 141H381V682C381 694 377 698 365 698H168C156 698 152 694 145 682L92 590C88 583 82 574 82 567C82 560 87 557 97 557Z" glyph-name="one" horiz-adv-x="584" unicode="1" /><glyph d="M694 665C698 672 704 681 704 688C704 695 699 698 689 698H607C595 698 591 694 584 682L209 33C205 26 199 17 199 10C199 3 204 0 214 0H296C308 0 312 4 319 16ZM154 599V429H74C68 429 66 427 66 421V338C66 332 68 330 74 330H339C345 330 347 332 347 338V421C347 427 345 429 339 429H264V690C264 696 262 698 256 698H136C130 698 127 696 124 690L81 616C79 612 75 608 75 604C75 600 78 599 83 599ZM612 200C572 186 551 166 551 117V8C551 2 553 0 560 0H830C837 0 839 2 839 8V91C839 98 837 100 830 100H661V106C661 124 667 123 691 132L785 165C825 179 846 199 846 248V280C846 342 810 376 744 376C702 376 618 375 566 374C560 374 558 372 558 366V283C558 276 560 274 566 274C604 275 669 276 710 276C728 276 736 273 736 262V255C736 247 734 243 716 237Z" glyph-name="onehalf" horiz-adv-x="901" unicode="&#189;" /><glyph d="M136 698C130 698 127 696 124 690L81 616C79 612 75 608 75 604C75 600 78 599 83 599H154V429H74C68 429 66 427 66 421V338C66 332 68 330 74 330H339C345 330 347 332 347 338V421C347 427 345 429 339 429H264V690C264 696 262 698 256 698ZM607 698C595 698 591 694 584 682L209 33C205 26 199 17 199 10C199 3 204 0 214 0H296C308 0 312 4 319 16L694 665C698 672 704 681 704 688C704 695 699 698 689 698ZM696 368H596C589 368 586 365 583 360L470 164C468 161 467 158 467 154V72C467 66 469 64 475 64H663V9C663 2 665 0 671 0H764C770 0 773 2 773 9V220C773 227 770 229 764 229H671C665 229 663 227 663 220V163H590L696 348C700 355 703 359 703 363C703 366 701 368 696 368Z" glyph-name="onequarter" horiz-adv-x="828" unicode="&#188;" /><glyph d="M138 599V429H58C52 429 50 427 50 421V338C50 332 52 330 58 330H323C329 330 331 332 331 338V421C331 427 329 429 323 429H248V690C248 696 246 698 240 698H120C114 698 111 696 108 690L65 616C63 612 59 608 59 604C59 600 62 599 67 599Z" glyph-name="onesuperior" horiz-adv-x="376" unicode="&#185;" /><glyph d="M177 413C155 413 148 416 148 437V443C148 459 156 465 175 471L244 492V413ZM213 330C221 330 223 333 228 341L245 372L263 341C268 333 271 330 279 330H343C352 330 354 333 354 341V596C354 668 312 699 240 699C194 699 117 698 72 697C64 697 61 694 61 686V615C61 606 64 604 72 604C106 605 167 606 210 606C236 606 244 604 244 577V570L134 540C60 520 38 503 38 441V416C38 345 69 330 139 330Z" glyph-name="ordfeminine" horiz-adv-x="399" unicode="&#170;" /><glyph d="M377 584C377 658 334 701 259 701H163C88 701 45 658 45 584V445C45 371 88 328 163 328H259C334 328 377 369 377 443ZM155 569C155 596 166 607 193 607H229C256 607 267 596 267 569V460C267 433 256 422 229 422H193C166 422 155 433 155 460Z" glyph-name="ordmasculine" horiz-adv-x="422" unicode="&#186;" /><glyph d="M501 372C501 475 441 534 338 534H196C93 534 33 475 33 372V156C33 53 93 -6 196 -6H338C441 -6 501 50 501 153ZM176 354C176 393 192 409 231 409H319L176 161ZM358 174C358 135 342 119 303 119H217L358 364Z" glyph-name="oslash" horiz-adv-x="534" unicode="&#248;" /><glyph d="M495 372C495 475 435 534 332 534H196C93 534 33 475 33 372V156C33 53 93 -6 196 -6H332C435 -6 495 50 495 153ZM177 353C177 392 193 408 232 408H296C335 408 351 392 351 353V175C351 136 335 120 296 120H232C193 120 177 136 177 175ZM180 620C180 633 182 644 199 644C228 644 254 586 333 586C402 586 445 624 445 699V713C445 725 441 729 429 729H363C351 729 347 725 347 713V703C347 690 345 679 328 679C299 679 273 737 194 737C125 737 82 699 82 624V610C82 598 86 594 98 594H164C176 594 180 598 180 610Z" glyph-name="otilde" horiz-adv-x="528" unicode="&#245;" /><glyph d="M190 131V397H297C336 397 352 381 352 342V186C352 147 336 131 297 131ZM61 528C49 528 45 524 45 512V-144C45 -156 49 -160 61 -160H174C186 -160 190 -156 190 -144V0H335C438 0 498 59 498 162V366C498 469 438 528 335 528H236C224 528 220 524 213 512L188 468L163 512C156 524 152 528 140 528Z" glyph-name="p" horiz-adv-x="531" unicode="p" /><glyph d="M396 13C396 3 399 0 409 0H448C458 0 461 3 461 13V685C461 695 458 698 448 698H409C399 698 396 695 396 685ZM220 273C232 273 236 277 243 289L268 333V13C268 3 271 0 281 0H320C330 0 333 3 333 13V685C333 695 330 698 320 698H188C85 698 35 649 35 546V425C35 322 85 273 188 273Z" glyph-name="paragraph" horiz-adv-x="511" unicode="&#182;" /><glyph d="M80 2C80 -101 140 -160 243 -160H301C313 -160 317 -156 317 -144V-43C317 -31 313 -27 301 -27H280C241 -27 225 -11 225 28V516C225 555 241 571 280 571H301C313 571 317 575 317 587V688C317 700 313 704 301 704H243C140 704 80 645 80 542Z" glyph-name="parenleft" horiz-adv-x="362" unicode="(" /><glyph d="M80 89C80 -14 140 -73 243 -73H301C313 -73 317 -69 317 -57V44C317 56 313 60 301 60H280C241 60 225 76 225 115V583C225 622 241 638 280 638H301C313 638 317 642 317 654V755C317 767 313 771 301 771H243C140 771 80 712 80 609Z" glyph-name="parenleft.alt" horiz-adv-x="362" /><glyph d="M282 542C282 645 222 704 119 704H61C49 704 45 700 45 688V587C45 575 49 571 61 571H82C121 571 137 555 137 516V28C137 -11 121 -27 82 -27H61C49 -27 45 -31 45 -43V-144C45 -156 49 -160 61 -160H119C222 -160 282 -101 282 2Z" glyph-name="parenright" horiz-adv-x="362" unicode=")" /><glyph d="M282 609C282 712 222 771 119 771H61C49 771 45 767 45 755V654C45 642 49 638 61 638H82C121 638 137 622 137 583V115C137 76 121 60 82 60H61C49 60 45 56 45 44V-57C45 -69 49 -73 61 -73H119C222 -73 282 -14 282 89Z" glyph-name="parenright.alt" horiz-adv-x="362" /><glyph d="M264 466C264 440 254 430 229 430H200C175 430 165 440 165 466V569C165 595 175 606 200 606H229C254 606 264 595 264 569ZM55 438C55 370 97 330 169 330H260C332 330 374 370 374 438V598C374 666 332 706 260 706H169C97 706 55 666 55 598ZM737 128C737 102 727 92 702 92H665C640 92 630 102 630 128V231C630 257 640 268 665 268H702C727 268 737 257 737 231ZM520 100C520 32 562 -8 634 -8H733C805 -8 847 32 847 100V260C847 328 805 368 733 368H634C562 368 520 328 520 260ZM690 665C694 672 700 681 700 688C700 695 695 698 685 698H603C591 698 587 694 580 682L205 33C201 26 195 17 195 10C195 3 200 0 210 0H292C304 0 308 4 315 16Z" glyph-name="percent" horiz-adv-x="902" unicode="%" /><glyph d="M191 129C191 141 187 145 175 145H51C39 145 35 141 35 129V16C35 4 39 0 51 0H175C187 0 191 4 191 16Z" glyph-name="period" horiz-adv-x="226" unicode="." /><glyph d="M196 325C196 337 192 341 180 341H56C44 341 40 337 40 325V212C40 200 44 196 56 196H180C192 196 196 200 196 212Z" glyph-name="periodcentered" horiz-adv-x="236" unicode="&#183;" /><glyph d="M196 411C196 423 192 427 180 427H56C44 427 40 423 40 411V298C40 286 44 282 56 282H180C192 282 196 286 196 298Z" glyph-name="periodcentered.alt" horiz-adv-x="236" /><glyph d="M272 466C272 440 262 430 237 430H200C175 430 165 440 165 466V569C165 595 175 606 200 606H237C262 606 272 595 272 569ZM55 438C55 370 97 330 169 330H268C340 330 382 370 382 438V598C382 666 340 706 268 706H169C97 706 55 666 55 598ZM745 128C745 102 735 92 710 92H673C648 92 638 102 638 128V231C638 257 648 268 673 268H710C735 268 745 257 745 231ZM528 100C528 32 570 -8 642 -8H741C813 -8 855 32 855 100V260C855 328 813 368 741 368H642C570 368 528 328 528 260ZM1118 128C1118 102 1108 92 1083 92H1046C1021 92 1011 102 1011 128V231C1011 257 1021 268 1046 268H1083C1108 268 1118 257 1118 231ZM901 100C901 32 943 -8 1015 -8H1114C1186 -8 1228 32 1228 100V260C1228 328 1186 368 1114 368H1015C943 368 901 328 901 260ZM698 665C702 672 708 681 708 688C708 695 703 698 693 698H611C599 698 595 694 588 682L213 33C209 26 203 17 203 10C203 3 208 0 218 0H300C312 0 316 4 323 16Z" glyph-name="perthousand" horiz-adv-x="1258" unicode="&#8240;" /><glyph d="M224 290V157C224 145 228 141 240 141H346C358 141 362 145 362 157V290H489C501 290 505 294 505 306V403C505 415 501 419 489 419H362V551C362 563 358 567 346 567H240C228 567 224 563 224 551V419H95C83 419 79 415 79 403V306C79 294 83 290 95 290Z" glyph-name="plus" horiz-adv-x="584" unicode="+" /><glyph d="M225 382V269C225 257 229 253 241 253H345C357 253 361 257 361 269V382H489C501 382 505 386 505 398V493C505 505 501 509 489 509H361V623C361 635 357 639 345 639H241C229 639 225 635 225 623V509H95C83 509 79 505 79 493V398C79 386 83 382 95 382ZM489 71C501 71 505 75 505 87V186C505 198 501 202 489 202H95C83 202 79 198 79 186V87C79 75 83 71 95 71Z" glyph-name="plusminus" horiz-adv-x="584" unicode="&#177;" /><glyph d="M341 397V131H234C195 131 179 147 179 186V342C179 381 195 397 234 397ZM341 60V-144C341 -156 345 -160 357 -160H470C482 -160 486 -156 486 -144V512C486 524 482 528 470 528H196C93 528 33 469 33 366V162C33 59 93 0 196 0H293C305 0 309 4 316 16Z" glyph-name="q" horiz-adv-x="531" unicode="q" /><glyph d="M262 129C262 141 258 145 246 145H122C110 145 106 141 106 129V16C106 4 110 0 122 0H246C258 0 262 4 262 16ZM232 573C278 573 298 556 298 508V485C298 459 294 439 261 425L208 403C155 381 111 351 111 259V222C111 210 115 206 127 206H240C252 206 256 210 256 222V246C256 284 257 288 304 307L328 317C382 339 443 379 443 471V523C443 639 376 706 242 706C180 706 94 704 46 703C34 703 30 699 30 687V586C30 574 34 570 46 570C96 571 181 573 232 573Z" glyph-name="question" horiz-adv-x="468" unicode="?" /><glyph d="M206 399C206 387 210 383 222 383H346C358 383 362 387 362 399V512C362 524 358 528 346 528H222C210 528 206 524 206 512ZM236 -45C190 -45 170 -28 170 20V43C170 69 174 89 207 103L260 125C313 147 357 177 357 269V306C357 318 353 322 341 322H228C216 322 212 318 212 306V282C212 244 211 240 164 221L140 211C86 189 25 149 25 57V5C25 -111 92 -178 226 -178C288 -178 374 -176 422 -175C434 -175 438 -171 438 -159V-58C438 -46 434 -42 422 -42C372 -43 287 -45 236 -45Z" glyph-name="questiondown" horiz-adv-x="468" unicode="&#191;" /><glyph d="M195 682C195 694 191 698 179 698H66C54 698 50 694 50 682V454C50 442 54 438 66 438H179C191 438 195 442 195 454ZM395 682C395 694 391 698 379 698H266C254 698 250 694 250 682V454C250 442 254 438 266 438H379C391 438 395 442 395 454Z" glyph-name="quotedbl" horiz-adv-x="445" unicode="&quot;" /><glyph d="M210 129C210 141 206 145 194 145H70C58 145 54 141 54 129V18C54 6 58 2 70 2H105L55 -82C51 -89 45 -98 45 -105C45 -112 50 -115 60 -115H121C133 -115 137 -111 144 -99L203 3C208 12 210 17 210 30ZM418 129C418 141 414 145 402 145H278C266 145 262 141 262 129V18C262 6 266 2 278 2H313L263 -82C259 -89 253 -98 253 -105C253 -112 258 -115 268 -115H329C341 -115 345 -111 352 -99L411 3C416 12 418 17 418 30Z" glyph-name="quotedblbase" horiz-adv-x="458" unicode="&#8222;" /><glyph d="M248 454C248 442 252 438 264 438H388C400 438 404 442 404 454V565C404 577 400 581 388 581H353L403 665C407 672 413 681 413 688C413 695 408 698 398 698H337C325 698 321 694 314 682L255 580C250 571 248 566 248 553ZM40 454C40 442 44 438 56 438H180C192 438 196 442 196 454V565C196 577 192 581 180 581H145L195 665C199 672 205 681 205 688C205 695 200 698 190 698H129C117 698 113 694 106 682L47 580C42 571 40 566 40 553Z" glyph-name="quotedblleft" horiz-adv-x="458" unicode="&#8220;" /><glyph d="M210 682C210 694 206 698 194 698H70C58 698 54 694 54 682V571C54 559 58 555 70 555H105L55 471C51 464 45 455 45 448C45 441 50 438 60 438H121C133 438 137 442 144 454L203 556C208 565 210 570 210 583ZM418 682C418 694 414 698 402 698H278C266 698 262 694 262 682V571C262 559 266 555 278 555H313L263 471C259 464 253 455 253 448C253 441 258 438 268 438H329C341 438 345 442 352 454L411 556C416 565 418 570 418 583Z" glyph-name="quotedblright" horiz-adv-x="458" unicode="&#8221;" /><glyph d="M40 454C40 442 44 438 56 438H180C192 438 196 442 196 454V565C196 577 192 581 180 581H145L195 665C199 672 205 681 205 688C205 695 200 698 190 698H129C117 698 113 694 106 682L47 580C42 571 40 566 40 553Z" glyph-name="quoteleft" horiz-adv-x="250" unicode="&#8216;" /><glyph d="M210 682C210 694 206 698 194 698H70C58 698 54 694 54 682V571C54 559 58 555 70 555H105L55 471C51 464 45 455 45 448C45 441 50 438 60 438H121C133 438 137 442 144 454L203 556C208 565 210 570 210 583Z" glyph-name="quoteright" horiz-adv-x="250" unicode="&#8217;" /><glyph d="M210 129C210 141 206 145 194 145H70C58 145 54 141 54 129V18C54 6 58 2 70 2H105L55 -82C51 -89 45 -98 45 -105C45 -112 50 -115 60 -115H121C133 -115 137 -111 144 -99L203 3C208 12 210 17 210 30Z" glyph-name="quotesinglbase" horiz-adv-x="250" unicode="&#8218;" /><glyph d="M195 682C195 694 191 698 179 698H66C54 698 50 694 50 682V454C50 442 54 438 66 438H179C191 438 195 442 195 454Z" glyph-name="quotesingle" horiz-adv-x="245" unicode="'" /><glyph d="M61 528C49 528 45 524 45 512V16C45 4 49 0 61 0H174C186 0 190 4 190 16V392H349C361 392 365 396 365 408V512C365 524 361 528 349 528H236C224 528 220 524 213 512L188 468L163 512C156 524 152 528 140 528Z" glyph-name="r" horiz-adv-x="375" unicode="r" /><glyph d="M61 528C49 528 45 524 45 512V16C45 4 49 0 61 0H174C186 0 190 4 190 16V392H349C361 392 365 396 365 408V512C365 524 361 528 349 528H236C224 528 220 524 213 512L188 468L163 512C156 524 152 528 140 528ZM257 594C269 594 275 599 284 610L352 692C359 700 368 711 368 719C368 726 363 729 353 729H223C211 729 207 725 200 713L152 631C148 624 140 611 140 604C140 597 145 594 155 594Z" glyph-name="racute" horiz-adv-x="375" unicode="&#341;" /><glyph d="M61 528C49 528 45 524 45 512V16C45 4 49 0 61 0H174C186 0 190 4 190 16V392H349C361 392 365 396 365 408V512C365 524 361 528 349 528H236C224 528 220 524 213 512L188 468L163 512C156 524 152 528 140 528ZM64 729C54 729 49 726 49 719C49 712 56 701 62 692L116 610C124 598 127 594 139 594H261C273 594 276 598 284 610L337 692C343 701 350 712 350 719C350 726 345 729 335 729H248C236 729 231 725 225 713L200 660L175 713C169 725 164 729 152 729Z" glyph-name="rcaron" horiz-adv-x="375" unicode="&#345;" /><glyph d="M61 528C49 528 45 524 45 512V16C45 4 49 0 61 0H174C186 0 190 4 190 16V392H349C361 392 365 396 365 408V512C365 524 361 528 349 528H236C224 528 220 524 213 512L188 468L163 512C156 524 152 528 140 528ZM53 -238H121C133 -238 140 -234 148 -222L191 -161C196 -152 198 -147 198 -134V-66C198 -54 194 -50 182 -50H52C40 -50 36 -54 36 -66V-146C36 -158 40 -162 52 -162H89L53 -205C46 -213 38 -222 38 -228C38 -235 43 -238 53 -238Z" glyph-name="rcommaaccent" horiz-adv-x="375" unicode="&#343;" /><glyph d="M248 706C119 706 55 645 55 524V174C55 53 119 -8 248 -8H575C704 -8 768 53 768 174V524C768 645 704 706 575 706ZM149 524C149 592 178 620 248 620H575C645 620 674 592 674 524V174C674 111 637 78 576 78H249C178 78 149 106 149 174ZM566 187 514 302C551 313 571 341 571 390V437C571 500 533 536 466 536H277C271 536 269 534 269 528V170C269 164 271 162 277 162H351C357 162 360 164 360 170V291H426L474 170C476 164 479 162 486 162H566C570 162 573 163 573 167C573 172 569 180 566 187ZM360 456H445C470 456 480 446 480 419V403C480 375 470 365 445 365H360Z" glyph-name="registered" horiz-adv-x="823" unicode="&#174;" /><glyph d="M289 689C289 738 261 766 211 766H117C68 766 40 738 40 689V648C40 599 68 572 117 572H211C261 572 289 599 289 647ZM121 680C121 698 128 706 147 706H182C200 706 208 698 208 680V656C208 638 201 630 182 630H147C129 630 121 638 121 656Z" glyph-name="ring" horiz-adv-x="329" unicode="&#730;" /><glyph d="M49 124C37 124 33 120 33 108V18C33 6 37 2 49 2C102 1 204 -1 291 -1C394 -1 442 31 442 134V171C442 240 424 270 325 300L201 338C168 348 167 356 167 377C167 403 182 407 217 407C284 407 362 406 402 405C414 405 418 409 418 421V511C418 523 414 527 402 527C349 528 251 529 176 529C73 529 25 496 25 393V358C25 291 44 260 142 230L260 194C296 183 299 174 299 154C299 130 288 121 249 121C191 121 101 123 49 124Z" glyph-name="s" horiz-adv-x="468" unicode="s" /><glyph d="M49 124C37 124 33 120 33 108V18C33 6 37 2 49 2C102 1 204 -1 291 -1C394 -1 442 31 442 134V171C442 240 424 270 325 300L201 338C168 348 167 356 167 377C167 403 182 407 217 407C284 407 362 406 402 405C414 405 418 409 418 421V511C418 523 414 527 402 527C349 528 251 529 176 529C73 529 25 496 25 393V358C25 291 44 260 142 230L260 194C296 183 299 174 299 154C299 130 288 121 249 121C191 121 101 123 49 124ZM281 594C293 594 299 599 308 610L376 692C383 700 392 711 392 719C392 726 387 729 377 729H247C235 729 231 725 224 713L176 631C172 624 164 611 164 604C164 597 169 594 179 594Z" glyph-name="sacute" horiz-adv-x="468" unicode="&#347;" /><glyph d="M49 124C37 124 33 120 33 108V18C33 6 37 2 49 2C102 1 204 -1 291 -1C394 -1 442 31 442 134V171C442 240 424 270 325 300L201 338C168 348 167 356 167 377C167 403 182 407 217 407C284 407 362 406 402 405C414 405 418 409 418 421V511C418 523 414 527 402 527C349 528 251 529 176 529C73 529 25 496 25 393V358C25 291 44 260 142 230L260 194C296 183 299 174 299 154C299 130 288 121 249 121C191 121 101 123 49 124ZM99 729C89 729 84 726 84 719C84 712 91 701 97 692L151 610C159 598 162 594 174 594H296C308 594 311 598 319 610L372 692C378 701 385 712 385 719C385 726 380 729 370 729H283C271 729 266 725 260 713L235 660L210 713C204 725 199 729 187 729Z" glyph-name="scaron" horiz-adv-x="468" unicode="&#353;" /><glyph d="M49 124C37 124 33 120 33 108V18C33 6 37 2 49 2C102 1 204 -1 291 -1C394 -1 442 31 442 134V171C442 240 424 270 325 300L201 338C168 348 167 356 167 377C167 403 182 407 217 407C284 407 362 406 402 405C414 405 418 409 418 421V511C418 523 414 527 402 527C349 528 251 529 176 529C73 529 25 496 25 393V358C25 291 44 260 142 230L260 194C296 183 299 174 299 154C299 130 288 121 249 121C191 121 101 123 49 124ZM173 -238H241C253 -238 260 -234 268 -222L311 -161C316 -152 318 -147 318 -134V-66C318 -54 314 -50 302 -50H172C160 -50 156 -54 156 -66V-146C156 -158 160 -162 172 -162H209L173 -205C166 -213 158 -222 158 -228C158 -235 163 -238 173 -238Z" glyph-name="scommaaccent" horiz-adv-x="468" unicode="&#537;" /><glyph d="M58 -50V-140C58 -152 62 -156 74 -156C127 -157 229 -159 317 -159C420 -159 468 -114 468 -11V34C468 117 408 135 405 136C409 136 485 148 485 225V333C485 421 418 440 368 456L227 502C200 509 192 518 192 539C192 569 212 576 243 576C310 576 387 574 427 573C439 573 443 577 443 589V679C443 691 439 695 427 695C375 696 277 698 201 698C98 698 50 653 50 550V509C50 426 106 410 112 409C105 407 33 392 33 318V208C33 121 99 103 150 87L286 44C314 37 325 34 325 3C325 -28 306 -37 275 -37C216 -37 126 -35 74 -34C62 -34 58 -38 58 -50ZM303 351C331 344 342 336 342 307V212C342 182 329 170 294 170L210 196C184 204 175 212 175 232V335C175 364 189 375 219 375Z" glyph-name="section" horiz-adv-x="518" unicode="&#167;" /><glyph d="M217 129C217 141 213 145 201 145H77C65 145 61 141 61 129V18C61 6 65 2 77 2H112L62 -82C58 -89 52 -98 52 -105C52 -112 57 -115 67 -115H128C140 -115 144 -111 151 -99L210 3C215 12 217 17 217 30ZM216 512C216 524 212 528 200 528H76C64 528 60 524 60 512V399C60 387 64 383 76 383H200C212 383 216 387 216 399Z" glyph-name="semicolon" horiz-adv-x="277" unicode=";" /><glyph d="M488 360C525 411 551 447 551 535V682C551 694 547 698 535 698H48C36 698 32 694 32 682V483C32 471 36 467 48 467H167C179 467 183 471 183 483V557H400V530C400 493 387 470 369 444L252 276C216 225 189 189 189 101V16C189 4 193 0 205 0H324C336 0 340 4 340 16V106C340 143 352 166 371 192Z" glyph-name="seven" horiz-adv-x="584" unicode="7" /><glyph d="M191 307C235 309 307 311 346 311C388 311 404 299 404 253V198C404 148 385 128 338 128H257C210 128 191 148 191 198ZM190 383V495C190 543 209 562 256 562C331 562 440 560 501 559C513 559 517 563 517 575V684C517 696 513 700 501 700C438 701 323 703 240 703C116 703 40 632 40 516V182C40 66 117 -8 241 -8H354C478 -8 555 66 555 182V280C555 402 494 447 370 447C332 447 272 445 238 443C226 442 222 439 215 427Z" glyph-name="six" horiz-adv-x="584" unicode="6" /><glyph d="M240 704C228 704 227 699 224 688L9 -109C6 -120 0 -140 0 -147C0 -156 5 -160 17 -160H118C130 -160 131 -155 134 -144L349 653C352 664 358 684 358 691C358 700 353 704 341 704Z" glyph-name="slash" horiz-adv-x="358" unicode="/" /><glyph d="M217 704C205 704 204 699 201 688L29 51C26 40 20 20 20 13C20 4 25 0 37 0H138C150 0 151 5 154 16L326 653C329 664 335 684 335 691C335 700 330 704 318 704Z" glyph-name="slash.alt" horiz-adv-x="355" /><glyph glyph-name="space" horiz-adv-x="250" unicode=" " /><glyph d="M491 557C503 557 507 561 507 573V682C507 694 503 698 491 698H335C211 698 140 629 140 513V422H42C30 422 26 418 26 406V303C26 291 30 287 42 287H140V183C140 159 132 141 98 141H41C29 141 25 137 25 125V16C25 4 29 0 41 0H553C565 0 569 4 569 16V125C569 137 565 141 553 141H261L285 183C290 192 291 195 291 207V287H455C467 287 471 291 471 303V406C471 418 467 422 455 422H291V487C291 537 310 557 357 557Z" glyph-name="sterling" horiz-adv-x="584" unicode="&#163;" /><glyph d="M303 113C303 125 299 129 287 129H213C190 129 184 140 184 162V405H285C297 405 301 409 301 421V512C301 524 297 528 285 528H184V610C184 622 180 626 168 626H55C43 626 39 622 39 610V146C39 41 80 -4 185 -4H262C269 -4 280 -4 287 -3C299 -2 303 1 303 13Z" glyph-name="t" horiz-adv-x="340" unicode="t" /><glyph d="M303 113C303 125 299 129 287 129H213C190 129 184 140 184 162V211H286C298 211 302 215 302 227V310C302 322 298 326 286 326H184V405H285C297 405 301 409 301 421V512C301 524 297 528 285 528H184V610C184 622 180 626 168 626H55C43 626 39 622 39 610V146C39 41 80 -4 185 -4H262C269 -4 280 -4 287 -3C299 -2 303 1 303 13Z" glyph-name="tbar" horiz-adv-x="333" unicode="&#359;" /><glyph d="M328 575C340 575 345 578 350 591L389 692C393 703 397 711 397 718C397 725 392 729 381 729H275C263 729 259 726 256 713L235 612C234 606 231 595 231 588C231 579 237 575 247 575ZM303 113C303 125 299 129 287 129H213C190 129 184 140 184 162V405H285C297 405 301 409 301 421V512C301 524 297 528 285 528H184V610C184 622 180 626 168 626H55C43 626 39 622 39 610V146C39 41 80 -4 185 -4H262C269 -4 280 -4 287 -3C299 -2 303 1 303 13Z" glyph-name="tcaron" horiz-adv-x="347" unicode="&#357;" /><glyph d="M303 113C303 125 299 129 287 129H213C190 129 184 140 184 162V405H285C297 405 301 409 301 421V512C301 524 297 528 285 528H184V610C184 622 180 626 168 626H55C43 626 39 622 39 610V146C39 41 80 -4 185 -4H262C269 -4 280 -4 287 -3C299 -2 303 1 303 13ZM102 -238H170C182 -238 189 -234 197 -222L240 -161C245 -152 247 -147 247 -134V-66C247 -54 243 -50 231 -50H101C89 -50 85 -54 85 -66V-146C85 -158 89 -162 101 -162H138L102 -205C95 -213 87 -222 87 -228C87 -235 92 -238 102 -238Z" glyph-name="tcommaaccent" horiz-adv-x="340" unicode="&#355;" /><glyph d="M190 131V397H297C336 397 352 381 352 342V186C352 147 336 131 297 131ZM190 468V688C190 700 186 704 174 704H61C49 704 45 700 45 688V-144C45 -156 49 -160 61 -160H174C186 -160 190 -156 190 -144V0H335C438 0 498 59 498 162V366C498 469 438 528 335 528H238C226 528 222 524 215 512Z" glyph-name="thorn" horiz-adv-x="531" unicode="&#254;" /><glyph d="M159 374 199 300C206 288 208 284 220 284H329C376 284 395 264 395 214V206C395 156 376 136 329 136C252 136 127 138 54 139C42 139 38 135 38 123V14C38 2 42 -2 54 -2C119 -3 244 -5 345 -5C469 -5 546 69 546 185V236C546 379 465 415 358 415L512 561C519 568 520 572 520 581V682C520 694 516 698 504 698H62C50 698 46 694 46 682V573C46 561 50 557 62 557H333L159 399C155 395 154 391 154 388C154 383 157 378 159 374Z" glyph-name="three" horiz-adv-x="584" unicode="3" /><glyph d="M607 698C595 698 591 694 584 682L209 33C205 26 199 17 199 10C199 3 204 0 214 0H296C308 0 312 4 319 16L694 665C698 672 704 681 704 688C704 695 699 698 689 698ZM90 698C83 698 81 696 81 690V612C81 605 83 603 90 603H231L147 543C141 539 139 536 139 533C139 530 140 528 141 526L166 482C170 475 171 473 177 473H231C256 473 264 467 264 450V447C264 430 256 424 231 424C191 424 124 425 85 425C79 425 77 422 77 414V335C77 329 79 327 85 327C132 326 215 325 268 325C333 325 373 364 373 424V451C373 526 331 548 275 548L355 605C359 608 359 611 359 616V690C359 696 357 698 351 698ZM696 368H596C589 368 586 365 583 360L470 164C468 161 467 158 467 154V72C467 66 469 64 475 64H663V9C663 2 665 0 671 0H764C770 0 773 2 773 9V220C773 227 770 229 764 229H671C665 229 663 227 663 220V163H590L696 348C700 355 703 359 703 363C703 366 701 368 696 368Z" glyph-name="threequarters" horiz-adv-x="828" unicode="&#190;" /><glyph d="M139 482C143 475 144 473 150 473H204C229 473 237 467 237 450V447C237 430 229 424 204 424C164 424 97 425 58 425C52 425 50 422 50 414V335C50 329 52 327 58 327C105 326 188 325 241 325C306 325 346 364 346 424V451C346 526 304 548 248 548L328 605C332 608 332 611 332 616V690C332 696 330 698 324 698H63C56 698 54 696 54 690V612C54 605 56 603 63 603H204L120 543C114 539 112 536 112 533C112 530 113 528 114 526Z" glyph-name="threesuperior" horiz-adv-x="401" unicode="&#179;" /><glyph d="M138 620C138 633 140 644 157 644C186 644 212 586 291 586C360 586 403 624 403 699V713C403 725 399 729 387 729H321C309 729 305 725 305 713V703C305 690 303 679 286 679C257 679 231 737 152 737C83 737 40 699 40 624V610C40 598 44 594 56 594H122C134 594 138 598 138 610Z" glyph-name="tilde" horiz-adv-x="443" unicode="&#732;" /><glyph d="M129 598V338C129 331 131 329 137 329H230C237 329 239 331 239 338V598H344C351 598 353 600 353 606V690C353 696 351 698 344 698H23C17 698 15 696 15 690V606C15 600 17 598 23 598ZM719 562V338C719 331 721 329 728 329H817C823 329 826 331 826 338V690C826 696 823 698 817 698H703C697 698 691 698 688 691L618 540L546 691C543 698 538 698 535 698H416C410 698 408 696 408 690V338C408 331 410 329 416 329H506C512 329 514 331 514 338V562L570 430C573 423 579 423 585 423H648C655 423 660 423 663 430Z" glyph-name="trademark" horiz-adv-x="876" unicode="&#8482;" /><glyph d="M398 500V488C398 462 394 440 361 428L166 360C111 341 51 298 51 206V16C51 4 55 0 67 0H519C531 0 535 4 535 16V125C535 137 531 141 519 141H202V190C202 228 211 238 258 254L434 315C491 335 549 377 549 469V516C549 632 472 706 348 706C269 706 149 704 80 703C68 703 64 699 64 687V578C64 566 68 562 80 562C144 563 256 565 332 565C378 565 398 548 398 500Z" glyph-name="two" horiz-adv-x="584" unicode="2" /><glyph d="M116 530C76 516 55 496 55 447V338C55 332 57 330 64 330H334C341 330 343 332 343 338V421C343 428 341 430 334 430H165V436C165 454 171 453 195 462L289 495C329 509 350 529 350 578V610C350 672 314 706 248 706C206 706 122 705 70 704C64 704 62 702 62 696V613C62 606 64 604 70 604C108 605 173 606 214 606C232 606 240 603 240 592V585C240 577 238 573 220 567Z" glyph-name="twosuperior" horiz-adv-x="400" unicode="&#178;" /><glyph d="M288 0C300 0 304 4 311 16L336 60L361 16C368 4 372 0 384 0H463C475 0 479 4 479 16V512C479 524 475 528 463 528H350C338 528 334 524 334 512V133H239C200 133 184 149 184 188V512C184 524 180 528 168 528H55C43 528 39 524 39 512V162C39 59 99 0 202 0Z" glyph-name="u" horiz-adv-x="524" unicode="u" /><glyph d="M288 0C300 0 304 4 311 16L336 60L361 16C368 4 372 0 384 0H463C475 0 479 4 479 16V512C479 524 475 528 463 528H350C338 528 334 524 334 512V133H239C200 133 184 149 184 188V512C184 524 180 528 168 528H55C43 528 39 524 39 512V162C39 59 99 0 202 0ZM305 594C317 594 323 599 332 610L400 692C407 700 416 711 416 719C416 726 411 729 401 729H271C259 729 255 725 248 713L200 631C196 624 188 611 188 604C188 597 193 594 203 594Z" glyph-name="uacute" horiz-adv-x="524" unicode="&#250;" /><glyph d="M288 0C300 0 304 4 311 16L336 60L361 16C368 4 372 0 384 0H463C475 0 479 4 479 16V512C479 524 475 528 463 528H350C338 528 334 524 334 512V133H239C200 133 184 149 184 188V512C184 524 180 528 168 528H55C43 528 39 524 39 512V162C39 59 99 0 202 0ZM395 594C405 594 410 597 410 604C410 611 403 622 397 631L343 713C335 725 332 729 320 729H198C186 729 183 725 175 713L122 631C116 622 109 611 109 604C109 597 114 594 124 594H211C223 594 228 598 234 610L259 663L284 610C290 598 295 594 307 594Z" glyph-name="ucircumflex" horiz-adv-x="524" unicode="&#251;" /><glyph d="M288 0C300 0 304 4 311 16L336 60L361 16C368 4 372 0 384 0H463C475 0 479 4 479 16V512C479 524 475 528 463 528H350C338 528 334 524 334 512V133H239C200 133 184 149 184 188V512C184 524 180 528 168 528H55C43 528 39 524 39 512V162C39 59 99 0 202 0ZM225 713C225 725 221 729 209 729H94C82 729 78 725 78 713V610C78 598 82 594 94 594H209C221 594 225 598 225 610ZM441 713C441 725 437 729 425 729H310C298 729 294 725 294 713V610C294 598 298 594 310 594H425C437 594 441 598 441 610Z" glyph-name="udieresis" horiz-adv-x="524" unicode="&#252;" /><glyph d="M288 0C300 0 304 4 311 16L336 60L361 16C368 4 372 0 384 0H463C475 0 479 4 479 16V512C479 524 475 528 463 528H350C338 528 334 524 334 512V133H239C200 133 184 149 184 188V512C184 524 180 528 168 528H55C43 528 39 524 39 512V162C39 59 99 0 202 0ZM308 594C318 594 323 597 323 604C323 611 315 624 311 631L263 713C256 725 252 729 240 729H111C101 729 96 726 96 719C96 711 105 700 112 692L180 610C189 599 195 594 207 594Z" glyph-name="ugrave" horiz-adv-x="524" unicode="&#249;" /><glyph d="M288 0C300 0 304 4 311 16L336 60L361 16C368 4 372 0 384 0H463C475 0 479 4 479 16V512C479 524 475 528 463 528H350C338 528 334 524 334 512V133H239C200 133 184 149 184 188V512C184 524 180 528 168 528H55C43 528 39 524 39 512V162C39 59 99 0 202 0ZM409 594C421 594 427 599 436 610L504 692C511 700 520 711 520 719C520 726 515 729 505 729H381C369 729 365 725 358 713L310 631C306 624 298 611 298 604C298 597 303 594 313 594ZM202 594C214 594 221 598 229 610L286 692C292 701 300 711 300 719C300 726 295 729 285 729H163C151 729 146 726 140 713L103 631C100 624 93 611 93 604C93 597 98 594 108 594Z" glyph-name="uhungarumlaut" horiz-adv-x="524" unicode="&#369;" /><glyph d="M288 0C300 0 304 4 311 16L336 60L361 16C368 4 372 0 384 0H463C475 0 479 4 479 16V512C479 524 475 528 463 528H350C338 528 334 524 334 512V133H239C200 133 184 149 184 188V512C184 524 180 528 168 528H55C43 528 39 524 39 512V162C39 59 99 0 202 0ZM393 604C405 604 409 608 409 620V703C409 715 405 719 393 719H125C113 719 109 715 109 703V620C109 608 113 604 125 604Z" glyph-name="umacron" horiz-adv-x="524" unicode="&#363;" /><glyph d="M434 -149C446 -149 450 -145 450 -133V-30C450 -18 446 -14 434 -14H26C14 -14 10 -18 10 -30V-133C10 -145 14 -149 26 -149Z" glyph-name="underscore" horiz-adv-x="460" unicode="_" /><glyph glyph-name="uni00A0" horiz-adv-x="250" unicode="&#160;" /><glyph d="M241 202C253 202 257 206 257 218V319C257 331 253 335 241 335H46C34 335 30 331 30 319V218C30 206 34 202 46 202Z" glyph-name="uni00AD" horiz-adv-x="287" unicode="&#173;" /><glyph d="M231 141C206 141 199 153 199 177V284H477C489 284 493 288 493 300V409C493 421 489 425 477 425H199V557H498C510 557 514 561 514 573V682C514 694 510 698 498 698H64C52 698 48 694 48 682V146C48 41 89 0 194 0H506C518 0 522 4 522 16V125C522 137 518 141 506 141ZM331 754C341 754 346 757 346 764C346 771 338 784 334 791L286 873C279 885 275 889 263 889H134C124 889 119 886 119 879C119 871 128 860 135 852L203 770C212 759 218 754 230 754Z" glyph-name="uni0400" horiz-adv-x="551" unicode="&#1024;" /><glyph d="M231 141C206 141 199 153 199 177V284H477C489 284 493 288 493 300V409C493 421 489 425 477 425H199V557H498C510 557 514 561 514 573V682C514 694 510 698 498 698H64C52 698 48 694 48 682V146C48 41 89 0 194 0H506C518 0 522 4 522 16V125C522 137 518 141 506 141ZM248 873C248 885 244 889 232 889H117C105 889 101 885 101 873V770C101 758 105 754 117 754H232C244 754 248 758 248 770ZM464 873C464 885 460 889 448 889H333C321 889 317 885 317 873V770C317 758 321 754 333 754H448C460 754 464 758 464 770Z" glyph-name="uni0401" horiz-adv-x="551" unicode="&#1025;" /><glyph d="M588 208C588 158 569 138 522 138C500 138 461 139 437 140C425 140 421 136 421 124V15C421 3 424 -1 437 -1C462 -2 508 -3 543 -3C667 -3 739 66 739 182V276C739 379 679 438 576 438H403C391 438 387 434 380 422L355 378V556H536C548 556 552 560 552 572V682C552 694 548 698 536 698H23C11 698 7 694 7 682V572C7 560 11 556 23 556H204V16C204 4 208 0 220 0H339C351 0 355 4 355 16V305H533C572 305 588 289 588 250Z" glyph-name="uni0402" horiz-adv-x="756" unicode="&#1026;" /><glyph d="M201 556H465C477 556 481 560 481 572V682C481 694 477 698 465 698H66C54 698 50 694 50 682V16C50 4 54 0 66 0H185C197 0 201 4 201 16ZM299 754C311 754 317 759 326 770L394 852C401 860 410 871 410 879C410 886 405 889 395 889H265C253 889 249 885 242 873L194 791C190 784 182 771 182 764C182 757 187 754 197 754Z" glyph-name="uni0403" horiz-adv-x="488" unicode="&#1027;" /><glyph d="M513 14V123C513 135 509 139 497 139C435 138 327 136 256 136C209 136 190 156 190 206V284H427C439 284 443 288 443 300V409C443 421 439 425 427 425H190V492C190 542 209 562 256 562C320 562 428 560 491 559C503 559 507 563 507 575V684C507 696 503 700 491 700C426 701 311 703 234 703C110 703 38 634 38 518V180C38 64 110 -5 234 -5C307 -5 427 -3 497 -2C509 -2 513 2 513 14Z" glyph-name="uni0404" horiz-adv-x="537" unicode="&#1028;" /><glyph d="M513 169V224C513 350 441 371 375 392L220 443C185 454 176 461 176 498V512C176 562 195 562 242 562C314 562 406 560 455 559C467 559 471 563 471 575V684C471 696 467 700 455 700C401 701 301 703 221 703C97 703 25 650 25 534V480C25 355 96 334 163 313L317 263C352 252 361 242 361 205V189C361 139 343 136 296 136C218 136 114 138 58 139C46 139 42 135 42 123V14C42 2 46 -2 58 -2C116 -3 226 -5 317 -5C441 -5 513 53 513 169Z" glyph-name="uni0405" horiz-adv-x="533" unicode="&#1029;" /><glyph d="M201 682C201 694 197 698 185 698H66C54 698 50 694 50 682V16C50 4 54 0 66 0H185C197 0 201 4 201 16Z" glyph-name="uni0406" horiz-adv-x="251" unicode="&#1030;" /><glyph d="M201 682C201 694 197 698 185 698H66C54 698 50 694 50 682V16C50 4 54 0 66 0H185C197 0 201 4 201 16ZM92 873C92 885 88 889 76 889H-39C-51 889 -55 885 -55 873V770C-55 758 -51 754 -39 754H76C88 754 92 758 92 770ZM308 873C308 885 304 889 292 889H177C165 889 161 885 161 873V770C161 758 165 754 177 754H292C304 754 308 758 308 770Z" glyph-name="uni0407" horiz-adv-x="251" unicode="&#1031;" /><glyph d="M282 557V208C282 158 263 138 216 138C168 138 88 139 41 140C29 140 25 136 25 124V15C25 3 29 -1 41 -1C88 -2 173 -3 237 -3C361 -3 433 66 433 182V682C433 694 429 698 417 698H69C57 698 53 694 53 682V573C53 561 57 557 69 557Z" glyph-name="uni0408" horiz-adv-x="478" unicode="&#1032;" /><glyph d="M647 462V682C647 694 643 698 631 698H136C124 698 120 694 120 682V170C120 148 114 137 91 137H41C29 137 25 133 25 121V13C25 1 29 -2 41 -3C48 -4 59 -4 66 -4H125C230 -4 271 37 271 142V557H496V16C496 4 500 0 512 0H818C942 0 1015 63 1015 179V283C1015 399 942 462 818 462ZM647 141V321H795C842 321 861 306 861 256V206C861 156 846 141 799 141Z" glyph-name="uni0409" horiz-adv-x="1032" unicode="&#1033;" /><glyph d="M597 462V682C597 694 593 698 581 698H462C450 698 446 694 446 682V425H201V682C201 694 197 698 185 698H66C54 698 50 694 50 682V16C50 4 54 0 66 0H185C197 0 201 4 201 16V284H446V16C446 4 450 0 462 0H768C892 0 965 63 965 179V283C965 399 892 462 768 462ZM597 141V321H745C792 321 811 306 811 256V206C811 156 796 141 749 141Z" glyph-name="uni040A" horiz-adv-x="982" unicode="&#1034;" /><glyph d="M355 305H540C579 305 595 289 595 250V16C595 4 599 0 611 0H730C742 0 746 4 746 16V276C746 379 686 438 583 438H403C391 438 387 434 380 422L355 378V556H536C548 556 552 560 552 572V682C552 694 548 698 536 698H23C11 698 7 694 7 682V572C7 560 11 556 23 556H204V16C204 4 208 0 220 0H339C351 0 355 4 355 16Z" glyph-name="uni040B" horiz-adv-x="766" unicode="&#1035;" /><glyph d="M589 661C595 672 600 681 600 688C600 695 595 698 585 698H463C451 698 446 694 440 682L332 483C307 436 292 427 247 427H201V682C201 694 197 698 185 698H66C54 698 50 694 50 682V16C50 4 54 0 66 0H185C197 0 201 4 201 16V288H247C294 288 306 282 336 226L449 16C455 4 461 0 473 0H603C613 0 618 3 618 10C618 17 613 24 606 37L489 254C450 326 417 350 368 358C417 369 450 406 489 477ZM361 754C373 754 379 759 388 770L456 852C463 860 472 871 472 879C472 886 467 889 457 889H327C315 889 311 885 304 873L256 791C252 784 244 771 244 764C244 757 249 754 259 754Z" glyph-name="uni040C" horiz-adv-x="618" unicode="&#1036;" /><glyph d="M201 0C213 0 217 4 224 16L476 455C474 418 471 350 471 297V16C471 4 475 0 487 0H601C613 0 617 4 617 16V682C617 694 613 698 601 698H466C454 698 450 694 443 682L191 245C193 282 196 350 196 403V682C196 694 192 698 180 698H66C54 698 50 694 50 682V16C50 4 54 0 66 0ZM388 754C398 754 403 757 403 764C403 771 395 784 391 791L343 873C336 885 332 889 320 889H191C181 889 176 886 176 879C176 871 185 860 192 852L260 770C269 759 275 754 287 754Z" glyph-name="uni040D" horiz-adv-x="667" unicode="&#1037;" /><glyph d="M413 342V208C413 158 394 138 347 138C262 138 125 139 46 140C33 140 30 136 30 124V15C30 3 34 -1 46 -1C125 -2 267 -3 368 -3C492 -3 564 66 564 182V682C564 694 560 698 548 698H429C417 698 413 694 413 682V423H228C189 423 173 439 173 478V682C173 694 169 698 157 698H38C26 698 22 694 22 682V444C22 341 82 282 185 282H365C377 282 381 286 388 298ZM444 873C444 885 440 889 428 889H346C334 889 330 885 330 873V859C330 841 323 833 304 833H283C265 833 257 841 257 859V873C257 885 253 889 241 889H159C147 889 143 885 143 873V828C143 779 171 752 220 752H366C416 752 444 779 444 827Z" glyph-name="uni040E" horiz-adv-x="614" unicode="&#1038;" /><glyph d="M238 0V-114C238 -126 242 -130 254 -130H373C385 -130 389 -126 389 -114V0H561C573 0 577 4 577 16V682C577 694 573 698 561 698H442C430 698 426 694 426 682V141H201V682C201 694 197 698 185 698H66C54 698 50 694 50 682V16C50 4 54 0 66 0Z" glyph-name="uni040F" horiz-adv-x="627" unicode="&#1039;" /><glyph d="M580 521C580 637 508 706 384 706H241C117 706 45 637 45 521V16C45 4 49 0 61 0H180C192 0 196 4 196 16V219H429V16C429 4 433 0 445 0H564C576 0 580 4 580 16ZM196 495C196 545 215 565 262 565H363C410 565 429 545 429 495V360H196Z" glyph-name="uni0410" horiz-adv-x="625" unicode="&#1040;" /><glyph d="M201 432V556H485C497 556 501 560 501 572V682C501 694 497 698 485 698H66C54 698 50 694 50 682V16C50 4 54 0 66 0H382C506 0 579 63 579 179V253C579 369 506 432 382 432ZM201 137V295H359C406 295 425 280 425 230V202C425 152 410 137 363 137Z" glyph-name="uni0411" horiz-adv-x="596" unicode="&#1041;" /><glyph d="M382 0C506 0 579 63 579 179V232C579 353 471 363 466 364C475 365 570 383 570 498V522C570 638 497 698 373 698H66C54 698 50 694 50 682V16C50 4 54 0 66 0ZM201 137V295H359C406 295 425 280 425 230V202C425 152 410 137 363 137ZM201 409V561H354C401 561 416 547 416 499V471C416 419 394 409 350 409Z" glyph-name="uni0412" horiz-adv-x="601" unicode="&#1042;" /><glyph d="M201 556H465C477 556 481 560 481 572V682C481 694 477 698 465 698H66C54 698 50 694 50 682V16C50 4 54 0 66 0H185C197 0 201 4 201 16Z" glyph-name="uni0413" horiz-adv-x="488" unicode="&#1043;" /><glyph d="M26 141C14 141 10 137 10 125V-114C10 -126 14 -130 26 -130H145C157 -130 161 -126 161 -114V0H582V-114C582 -126 586 -130 598 -130H717C729 -130 733 -126 733 -114V125C733 137 729 141 717 141H635V682C635 694 631 698 619 698H124C112 698 108 694 108 682V206C108 156 93 141 46 141ZM259 557H484V141H242C254 157 259 176 259 276Z" glyph-name="uni0414" horiz-adv-x="743" unicode="&#1044;" /><glyph d="M231 141C206 141 199 153 199 177V284H477C489 284 493 288 493 300V409C493 421 489 425 477 425H199V557H498C510 557 514 561 514 573V682C514 694 510 698 498 698H64C52 698 48 694 48 682V146C48 41 89 0 194 0H506C518 0 522 4 522 16V125C522 137 518 141 506 141Z" glyph-name="uni0415" horiz-adv-x="551" unicode="&#1045;" /><glyph d="M344 427C299 427 280 436 254 494L171 682C166 694 160 698 148 698H31C21 698 16 695 16 688C16 681 19 672 24 661L106 477C139 403 178 369 227 358C178 350 138 329 101 245L9 37C3 24 0 17 0 10C0 3 5 0 15 0H138C150 0 157 4 162 16L250 214C278 277 295 288 344 288H370V16C370 4 374 0 386 0H505C517 0 521 4 521 16V288H547C596 288 613 277 641 214L729 16C734 4 741 0 753 0H876C886 0 891 3 891 10C891 17 888 24 882 37L790 245C753 329 713 350 664 358C713 369 752 403 785 477L867 661C872 672 875 681 875 688C875 695 870 698 860 698H743C731 698 725 694 720 682L637 494C611 436 592 427 547 427H521V682C521 694 517 698 505 698H386C374 698 370 694 370 682V427Z" glyph-name="uni0416" horiz-adv-x="891" unicode="&#1046;" /><glyph d="M508 174V232C508 353 400 363 395 364C404 365 499 383 499 498V527C499 643 426 703 302 703C225 703 111 701 46 700C34 700 30 696 30 684V575C30 563 34 559 46 559C110 560 219 562 283 562C330 562 345 548 345 500V487C345 435 323 425 279 425H110C98 425 94 421 94 409V300C94 288 98 284 110 284H288C335 284 354 269 354 219V201C354 151 339 136 288 136C215 136 104 138 40 139C28 139 24 135 24 123V14C24 2 28 -2 40 -2C111 -3 233 -5 307 -5C433 -5 508 58 508 174Z" glyph-name="uni0417" horiz-adv-x="530" unicode="&#1047;" /><glyph d="M201 0C213 0 217 4 224 16L476 455C474 418 471 350 471 297V16C471 4 475 0 487 0H601C613 0 617 4 617 16V682C617 694 613 698 601 698H466C454 698 450 694 443 682L191 245C193 282 196 350 196 403V682C196 694 192 698 180 698H66C54 698 50 694 50 682V16C50 4 54 0 66 0Z" glyph-name="uni0418" horiz-adv-x="667" unicode="&#1048;" /><glyph d="M201 0C213 0 217 4 224 16L476 455C474 418 471 350 471 297V16C471 4 475 0 487 0H601C613 0 617 4 617 16V682C617 694 613 698 601 698H466C454 698 450 694 443 682L191 245C193 282 196 350 196 403V682C196 694 192 698 180 698H66C54 698 50 694 50 682V16C50 4 54 0 66 0ZM478 873C478 885 474 889 462 889H380C368 889 364 885 364 873V859C364 841 357 833 338 833H317C299 833 291 841 291 859V873C291 885 287 889 275 889H193C181 889 177 885 177 873V828C177 779 205 752 254 752H400C450 752 478 779 478 827Z" glyph-name="uni0419" horiz-adv-x="667" unicode="&#1049;" /><glyph d="M589 661C595 672 600 681 600 688C600 695 595 698 585 698H463C451 698 446 694 440 682L332 483C307 436 292 427 247 427H201V682C201 694 197 698 185 698H66C54 698 50 694 50 682V16C50 4 54 0 66 0H185C197 0 201 4 201 16V288H247C294 288 306 282 336 226L449 16C455 4 461 0 473 0H603C613 0 618 3 618 10C618 17 613 24 606 37L489 254C450 326 417 350 368 358C417 369 450 406 489 477Z" glyph-name="uni041A" horiz-adv-x="618" unicode="&#1050;" /><glyph d="M120 170C120 148 114 137 91 137H41C29 137 25 133 25 121V13C25 1 29 -2 41 -3C48 -4 59 -4 66 -4H125C230 -4 271 37 271 142V557H496V16C496 4 500 0 512 0H631C643 0 647 4 647 16V682C647 694 643 698 631 698H136C124 698 120 694 120 682Z" glyph-name="uni041B" horiz-adv-x="697" unicode="&#1051;" /><glyph d="M596 468V16C596 4 600 0 612 0H730C742 0 746 4 746 16V682C746 694 742 698 730 698H586C574 698 564 698 558 685L401 376L239 685C232 698 223 698 211 698H66C54 698 50 694 50 682V16C50 4 54 0 66 0H184C196 0 200 4 200 16V468L331 209C337 196 347 196 359 196H437C449 196 459 196 465 209Z" glyph-name="uni041C" horiz-adv-x="796" unicode="&#1052;" /><glyph d="M50 16C50 4 54 0 66 0H185C197 0 201 4 201 16V284H446V16C446 4 450 0 462 0H581C593 0 597 4 597 16V682C597 694 593 698 581 698H462C450 698 446 694 446 682V425H201V682C201 694 197 698 185 698H66C54 698 50 694 50 682Z" glyph-name="uni041D" horiz-adv-x="647" unicode="&#1053;" /><glyph d="M447 203C447 153 428 133 381 133H256C209 133 190 153 190 203V495C190 545 209 565 256 565H381C428 565 447 545 447 495ZM38 177C38 61 110 -8 234 -8H403C527 -8 599 61 599 177V521C599 637 527 706 403 706H234C110 706 38 637 38 521Z" glyph-name="uni041E" horiz-adv-x="637" unicode="&#1054;" /><glyph d="M50 16C50 4 54 0 66 0H185C197 0 201 4 201 16V557H426V16C426 4 430 0 442 0H561C573 0 577 4 577 16V682C577 694 573 698 561 698H66C54 698 50 694 50 682Z" glyph-name="uni041F" horiz-adv-x="627" unicode="&#1055;" /><glyph d="M201 354V557H351C398 557 417 537 417 487V424C417 374 398 354 351 354ZM66 698C54 698 50 694 50 682V16C50 4 54 0 66 0H185C197 0 201 4 201 16V213H367C491 213 568 287 568 403V508C568 624 491 698 367 698Z" glyph-name="uni0420" horiz-adv-x="585" unicode="&#1056;" /><glyph d="M513 14V123C513 135 509 139 497 139C435 138 327 136 256 136C209 136 190 156 190 206V492C190 542 209 562 256 562C320 562 428 560 491 559C503 559 507 563 507 575V684C507 696 503 700 491 700C426 701 311 703 234 703C110 703 38 634 38 518V180C38 64 110 -5 234 -5C307 -5 427 -3 497 -2C509 -2 513 2 513 14Z" glyph-name="uni0421" horiz-adv-x="537" unicode="&#1057;" /><glyph d="M204 556V16C204 4 208 0 220 0H339C351 0 355 4 355 16V556H536C548 556 552 560 552 572V682C552 694 548 698 536 698H23C11 698 7 694 7 682V572C7 560 11 556 23 556Z" glyph-name="uni0422" horiz-adv-x="559" unicode="&#1058;" /><glyph d="M431 342V208C431 158 412 138 365 138C280 138 143 139 64 140C51 140 48 136 48 124V15C48 3 52 -1 64 -1C143 -2 285 -3 386 -3C510 -3 582 66 582 182V682C582 694 578 698 566 698H447C435 698 431 694 431 682V423H246C207 423 191 439 191 478V682C191 694 187 698 175 698H56C44 698 40 694 40 682V444C40 341 100 282 203 282H383C395 282 399 286 406 298Z" glyph-name="uni0423" horiz-adv-x="632" unicode="&#1059;" /><glyph d="M433 702C433 714 429 718 417 718H308C296 718 292 714 292 702V627H228C104 627 32 558 32 442V256C32 140 104 71 228 71H292V-4C292 -16 296 -20 308 -20H417C429 -20 433 -16 433 -4V71H497C621 71 693 140 693 256V442C693 558 621 627 497 627H433ZM174 416C174 466 193 486 240 486H292V212H240C193 212 174 232 174 282ZM551 282C551 232 532 212 485 212H433V486H485C532 486 551 466 551 416Z" glyph-name="uni0424" horiz-adv-x="725" unicode="&#1060;" /><glyph d="M314 237 445 17C451 6 457 1 469 1H616C626 1 631 4 631 11C631 18 625 28 619 38L417 361L603 661C609 671 615 681 615 688C615 695 610 698 600 698H466C454 698 448 693 442 682L319 470L199 682C193 693 187 698 175 698H30C20 698 15 695 15 688C15 681 21 671 27 661L218 350L22 38C16 28 10 18 10 11C10 4 15 1 25 1H157C169 1 175 6 181 17Z" glyph-name="uni0425" horiz-adv-x="641" unicode="&#1061;" /><glyph d="M577 682C577 694 573 698 561 698H442C430 698 426 694 426 682V141H201V682C201 694 197 698 185 698H66C54 698 50 694 50 682V16C50 4 54 0 66 0H524V-114C524 -126 528 -130 540 -130H659C671 -130 675 -126 675 -114V125C675 137 671 141 659 141H577Z" glyph-name="uni0426" horiz-adv-x="685" unicode="&#1062;" /><glyph d="M414 317V16C414 4 418 0 430 0H549C561 0 565 4 565 16V682C565 694 561 698 549 698H430C418 698 414 694 414 682V398H229C190 398 174 414 174 453V682C174 694 170 698 158 698H39C27 698 23 694 23 682V419C23 316 83 257 186 257H366C378 257 382 261 389 273Z" glyph-name="uni0427" horiz-adv-x="615" unicode="&#1063;" /><glyph d="M883 682C883 694 879 698 867 698H748C736 698 732 694 732 682V141H542V682C542 694 538 698 526 698H407C395 698 391 694 391 682V141H201V682C201 694 197 698 185 698H66C54 698 50 694 50 682V16C50 4 54 0 66 0H867C879 0 883 4 883 16Z" glyph-name="uni0428" horiz-adv-x="933" unicode="&#1064;" /><glyph d="M883 682C883 694 879 698 867 698H748C736 698 732 694 732 682V141H542V682C542 694 538 698 526 698H407C395 698 391 694 391 682V141H201V682C201 694 197 698 185 698H66C54 698 50 694 50 682V16C50 4 54 0 66 0H830V-114C830 -126 834 -130 846 -130H965C977 -130 981 -126 981 -114V125C981 137 977 141 965 141H883Z" glyph-name="uni0429" horiz-adv-x="991" unicode="&#1065;" /><glyph d="M310 462V682C310 694 306 698 294 698H26C14 698 10 694 10 682V572C10 560 14 556 26 556H159V16C159 4 163 0 175 0H481C605 0 678 63 678 179V283C678 399 605 462 481 462ZM310 141V321H458C505 321 524 306 524 256V206C524 156 509 141 462 141Z" glyph-name="uni042A" horiz-adv-x="695" unicode="&#1066;" /><glyph d="M201 141V321H349C396 321 415 306 415 256V206C415 156 400 141 353 141ZM201 462V682C201 694 197 698 185 698H66C54 698 50 694 50 682V16C50 4 54 0 66 0H372C496 0 569 63 569 179V283C569 399 496 462 372 462ZM762 682C762 694 758 698 746 698H627C615 698 611 694 611 682V16C611 4 615 0 627 0H746C758 0 762 4 762 16Z" glyph-name="uni042B" horiz-adv-x="812" unicode="&#1067;" /><glyph d="M201 141V321H349C396 321 415 306 415 256V206C415 156 400 141 353 141ZM201 462V682C201 694 197 698 185 698H66C54 698 50 694 50 682V16C50 4 54 0 66 0H372C496 0 569 63 569 179V283C569 399 496 462 372 462Z" glyph-name="uni042C" horiz-adv-x="586" unicode="&#1068;" /><glyph d="M303 -5C427 -5 499 64 499 180V518C499 634 427 703 303 703C226 703 111 701 46 700C34 700 30 696 30 684V575C30 563 34 559 46 559C109 560 217 562 281 562C328 562 347 542 347 492V425H110C98 425 94 421 94 409V300C94 288 98 284 110 284H347V206C347 156 328 136 281 136C210 136 102 138 40 139C28 139 24 135 24 123V14C24 2 28 -2 40 -2C110 -3 230 -5 303 -5Z" glyph-name="uni042D" horiz-adv-x="537" unicode="&#1069;" /><glyph d="M291 177C291 61 363 -8 487 -8H636C760 -8 832 61 832 177V521C832 637 760 706 636 706H487C363 706 291 637 291 521V425H201V682C201 694 197 698 185 698H66C54 698 50 694 50 682V16C50 4 54 0 66 0H185C197 0 201 4 201 16V284H291ZM680 203C680 153 661 133 614 133H509C462 133 443 153 443 203V495C443 545 462 565 509 565H614C661 565 680 545 680 495Z" glyph-name="uni042E" horiz-adv-x="870" unicode="&#1070;" /><glyph d="M248 375C201 375 182 395 182 445V487C182 537 201 557 248 557H402V375ZM174 0C186 0 190 4 195 16L285 245H402V16C402 4 406 0 418 0H537C549 0 553 4 553 16V682C553 694 549 698 537 698H227C103 698 31 629 31 513V430C31 337 68 286 136 264L40 47C34 34 27 19 27 11C27 3 33 0 41 0Z" glyph-name="uni042F" horiz-adv-x="603" unicode="&#1071;" /><glyph d="M215 113C184 113 171 117 171 148V164C171 187 183 197 210 204L323 234V113ZM277 0C289 0 293 4 300 16L325 60L350 16C357 4 361 0 373 0H452C464 0 468 4 468 16V382C468 485 408 530 305 530C237 530 136 528 78 527C66 527 62 523 62 511V418C62 406 66 402 78 402C126 403 212 405 273 405C312 405 323 403 323 364V342L165 300C60 272 28 245 28 157V124C28 21 73 0 172 0Z" glyph-name="uni0430" horiz-adv-x="510" unicode="&#1072;" /><glyph d="M245 131C206 131 190 147 190 186V367H297C336 367 352 351 352 312V186C352 147 336 131 297 131ZM190 495C190 545 209 565 256 565C319 565 390 564 427 563C438 563 443 567 443 579V688C443 700 439 704 427 704C395 705 322 706 241 706C117 706 45 637 45 521V162C45 59 105 0 208 0H335C438 0 498 59 498 162V336C498 439 438 498 335 498H238C226 498 222 494 215 482L190 438Z" glyph-name="uni0431" horiz-adv-x="531" unicode="&#1073;" /><glyph d="M327 528H61C49 528 45 524 45 512V16C45 4 49 0 61 0H335C438 0 498 51 498 142C498 250 416 266 407 268C418 269 490 284 490 386C490 477 430 528 327 528ZM190 107V217H297C336 217 352 201 352 162C352 123 336 107 297 107ZM190 311V421H289C328 421 344 405 344 366C344 327 328 311 289 311Z" glyph-name="uni0432" horiz-adv-x="523" unicode="&#1074;" /><glyph d="M381 395C393 395 397 399 397 411V512C397 524 393 528 381 528H61C49 528 45 524 45 512V16C45 4 49 0 61 0H174C186 0 190 4 190 16V395Z" glyph-name="uni0433" horiz-adv-x="407" unicode="&#1075;" /><glyph d="M167 0H480V-114C480 -126 484 -130 496 -130H609C621 -130 625 -126 625 -114V117C625 129 621 133 609 133H562V512C562 524 558 528 546 528H136C124 528 120 524 120 512V198C120 148 105 133 58 133H38C26 133 22 129 22 117V-114C22 -126 26 -130 38 -130H151C163 -130 167 -126 167 -114ZM265 395H417V133H248C260 149 265 168 265 268Z" glyph-name="uni0434" horiz-adv-x="650" unicode="&#1076;" /><glyph d="M176 359C176 398 192 414 231 414H276C315 414 331 398 331 359V308H176ZM460 13V109C460 121 456 125 444 125C388 124 292 122 231 122C192 122 176 138 176 177V211H458C470 211 474 215 474 227V372C474 475 414 534 311 534H196C93 534 33 475 33 372V156C33 53 93 -6 196 -6C281 -6 388 -4 444 -3C456 -3 460 1 460 13Z" glyph-name="uni0435" horiz-adv-x="502" unicode="&#1077;" /><glyph d="M315 16C315 4 319 0 331 0H444C456 0 460 4 460 16V215H469C505 215 526 204 548 151L603 16C608 3 614 0 626 0H745C755 0 760 3 760 10C760 17 755 27 751 37L687 195C660 261 628 275 593 281C628 293 659 318 691 393L733 491C738 503 741 511 741 518C741 525 736 528 726 528H618C606 528 600 524 595 512L547 399C529 357 510 346 478 346H460V512C460 524 456 528 444 528H331C319 528 315 524 315 512V346H297C265 346 246 357 228 399L180 512C175 524 169 528 157 528H49C39 528 34 525 34 518C34 511 37 503 42 491L84 393C116 318 147 293 182 281C147 275 115 261 88 195L24 37C20 27 15 17 15 10C15 3 20 0 30 0H149C161 0 167 3 172 16L227 151C249 204 270 215 306 215H315Z" glyph-name="uni0436" horiz-adv-x="775" unicode="&#1078;" /><glyph d="M226 207C265 207 281 194 281 162C281 128 265 118 226 118C169 118 89 120 44 121C32 121 28 117 28 105V13C28 1 32 -3 44 -3C101 -4 200 -6 264 -6C367 -6 427 48 427 142C427 247 349 265 337 268C350 269 419 286 419 386C419 480 359 534 256 534C187 534 97 532 48 531C36 531 32 527 32 515V423C32 411 36 407 48 407C83 408 153 410 219 410C258 410 273 400 273 368C273 338 257 327 218 327H99C87 327 83 323 83 311V223C83 211 87 207 99 207Z" glyph-name="uni0437" horiz-adv-x="452" unicode="&#1079;" /><glyph d="M185 512C185 524 181 528 169 528H61C49 528 45 524 45 512V16C45 4 49 0 61 0H189C201 0 205 4 212 16L379 308C377 271 374 203 374 150V16C374 4 378 0 390 0H498C510 0 514 4 514 16V512C514 524 510 528 498 528H370C358 528 354 524 347 512L180 222C180 225 185 309 185 380Z" glyph-name="uni0438" horiz-adv-x="559" unicode="&#1080;" /><glyph d="M185 512C185 524 181 528 169 528H61C49 528 45 524 45 512V16C45 4 49 0 61 0H189C201 0 205 4 212 16L379 308C377 271 374 203 374 150V16C374 4 378 0 390 0H498C510 0 514 4 514 16V512C514 524 510 528 498 528H370C358 528 354 524 347 512L180 222C180 225 185 309 185 380ZM430 713C430 725 426 729 414 729H332C320 729 316 725 316 713V699C316 681 309 673 290 673H269C251 673 243 681 243 699V713C243 725 239 729 227 729H145C133 729 129 725 129 713V668C129 619 157 592 206 592H352C402 592 430 619 430 667Z" glyph-name="uni0439" horiz-adv-x="559" unicode="&#1081;" /><glyph d="M190 215H214C250 215 269 203 289 161L358 16C364 3 369 0 381 0H504C514 0 519 3 519 10C519 17 513 28 509 37L434 195C403 259 376 275 341 281C376 293 403 320 434 381L491 491C496 500 502 511 502 518C502 525 497 528 487 528H373C361 528 356 524 350 512L292 399C269 354 255 346 223 346H190V512C190 524 186 528 174 528H61C49 528 45 524 45 512V16C45 4 49 0 61 0H174C186 0 190 4 190 16Z" glyph-name="uni043A" horiz-adv-x="529" unicode="&#1082;" /><glyph d="M417 395V16C417 4 421 0 433 0H546C558 0 562 4 562 16V512C562 524 558 528 546 528H136C124 528 120 524 120 512V162C120 140 114 129 91 129H41C29 129 25 125 25 113V13C25 1 29 -2 41 -3C48 -4 59 -4 66 -4H119C224 -4 265 37 265 142V395Z" glyph-name="uni043B" horiz-adv-x="607" unicode="&#1083;" /><glyph d="M61 528C49 528 45 524 45 512V16C45 4 49 0 61 0H173C185 0 189 4 189 16V317L276 145C282 132 292 132 304 132H374C386 132 396 132 402 145L489 317V16C489 4 493 0 505 0H617C629 0 633 4 633 16V512C633 524 629 528 617 528H483C471 528 461 528 455 515L338 285L223 515C216 528 207 528 195 528Z" glyph-name="uni043C" horiz-adv-x="678" unicode="&#1084;" /><glyph d="M190 335V512C190 524 186 528 174 528H61C49 528 45 524 45 512V16C45 4 49 0 61 0H174C186 0 190 4 190 16V202H352V16C352 4 356 0 368 0H481C493 0 497 4 497 16V512C497 524 493 528 481 528H368C356 528 352 524 352 512V335Z" glyph-name="uni043D" horiz-adv-x="542" unicode="&#1085;" /><glyph d="M495 372C495 475 435 534 332 534H196C93 534 33 475 33 372V156C33 53 93 -6 196 -6H332C435 -6 495 50 495 153ZM177 353C177 392 193 408 232 408H296C335 408 351 392 351 353V175C351 136 335 120 296 120H232C193 120 177 136 177 175Z" glyph-name="uni043E" horiz-adv-x="528" unicode="&#1086;" /><glyph d="M342 395V16C342 4 346 0 358 0H471C483 0 487 4 487 16V512C487 524 483 528 471 528H61C49 528 45 524 45 512V16C45 4 49 0 61 0H174C186 0 190 4 190 16V395Z" glyph-name="uni043F" horiz-adv-x="532" unicode="&#1087;" /><glyph d="M190 131V397H297C336 397 352 381 352 342V186C352 147 336 131 297 131ZM61 528C49 528 45 524 45 512V-144C45 -156 49 -160 61 -160H174C186 -160 190 -156 190 -144V0H335C438 0 498 59 498 162V366C498 469 438 528 335 528H236C224 528 220 524 213 512L188 468L163 512C156 524 152 528 140 528Z" glyph-name="uni0440" horiz-adv-x="531" unicode="&#1088;" /><glyph d="M408 -3C420 -3 424 1 424 13V114C424 126 420 130 408 130C365 129 288 127 233 127C194 127 178 143 178 182V346C178 385 194 401 233 401C299 401 369 399 404 398C416 398 420 402 420 414V515C420 527 416 531 404 531C355 532 265 534 196 534C93 534 33 475 33 372V156C33 53 93 -6 196 -6C257 -6 353 -4 408 -3Z" glyph-name="uni0441" horiz-adv-x="452" unicode="&#1089;" /><glyph d="M26 528C14 528 10 524 10 512V411C10 399 14 395 26 395H154V16C154 4 158 0 170 0H283C295 0 299 4 299 16V395H427C439 395 443 399 443 411V512C443 524 439 528 427 528Z" glyph-name="uni0442" horiz-adv-x="453" unicode="&#1090;" /><glyph d="M332 107V13C332 -26 316 -35 277 -35C227 -35 133 -33 76 -32C64 -32 60 -36 60 -48V-149C60 -161 64 -165 76 -165C137 -166 247 -168 321 -168C424 -168 477 -116 477 -13V512C477 524 473 528 461 528H348C336 528 332 524 332 512V180H237C198 180 182 196 182 235V512C182 524 178 528 166 528H53C41 528 37 524 37 512V209C37 106 97 47 200 47H284C296 47 300 51 307 63Z" glyph-name="uni0443" horiz-adv-x="522" unicode="&#1091;" /><glyph d="M453 0H571C674 0 734 56 734 159V366C734 469 674 528 571 528H453V688C453 700 449 704 437 704H330C318 704 314 700 314 688V528H196C93 528 33 469 33 366V162C33 59 93 0 196 0H314V-144C314 -156 318 -160 330 -160H437C449 -160 453 -156 453 -144ZM177 347C177 386 193 402 232 402H314V126H232C193 126 177 142 177 181ZM535 402C574 402 590 386 590 347V181C590 142 574 126 535 126H453V402Z" glyph-name="uni0444" horiz-adv-x="767" unicode="&#1092;" /><glyph d="M28 40C20 28 12 15 12 9C12 3 15 0 25 0H155C167 0 170 4 177 16L261 158L343 16C350 5 353 0 365 0H506C516 0 519 3 519 9C519 15 511 28 503 40L354 271L492 488C502 503 510 513 510 519C510 525 507 528 497 528H363C351 528 348 524 341 512L262 374L188 508C181 520 179 524 167 524H27C17 524 14 521 14 515C14 509 22 496 30 484L171 263Z" glyph-name="uni0445" horiz-adv-x="531" unicode="&#1093;" /><glyph d="M403 0V-114C403 -126 407 -130 419 -130H532C544 -130 548 -126 548 -114V117C548 129 544 133 532 133H485V512C485 524 481 528 469 528H356C344 528 340 524 340 512V133H190V512C190 524 186 528 174 528H61C49 528 45 524 45 512V16C45 4 49 0 61 0Z" glyph-name="uni0446" horiz-adv-x="573" unicode="&#1094;" /><glyph d="M335 217V16C335 4 339 0 351 0H464C476 0 480 4 480 16V512C480 524 476 528 464 528H351C339 528 335 524 335 512V290H230C191 290 175 306 175 345V512C175 524 171 528 159 528H46C34 528 30 524 30 512V319C30 216 90 157 193 157H287C299 157 303 161 310 173Z" glyph-name="uni0447" horiz-adv-x="525" unicode="&#1095;" /><glyph d="M738 0C750 0 754 4 754 16V512C754 524 750 528 738 528H625C613 528 609 524 609 512V133H472V512C472 524 468 528 456 528H343C331 528 327 524 327 512V133H190V512C190 524 186 528 174 528H61C49 528 45 524 45 512V16C45 4 49 0 61 0Z" glyph-name="uni0448" horiz-adv-x="799" unicode="&#1096;" /><glyph d="M672 0V-114C672 -126 676 -130 688 -130H801C813 -130 817 -126 817 -114V117C817 129 813 133 801 133H754V512C754 524 750 528 738 528H625C613 528 609 524 609 512V133H472V512C472 524 468 528 456 528H343C331 528 327 524 327 512V133H190V512C190 524 186 528 174 528H61C49 528 45 524 45 512V16C45 4 49 0 61 0Z" glyph-name="uni0449" horiz-adv-x="842" unicode="&#1097;" /><glyph d="M31 528C19 528 15 524 15 512V411C15 399 19 395 31 395H134V16C134 4 138 0 150 0H424C527 0 587 59 587 162V226C587 329 527 388 424 388H279V512C279 524 275 528 263 528ZM279 131V257H386C425 257 441 241 441 202V186C441 147 425 131 386 131Z" glyph-name="uni044A" horiz-adv-x="617" unicode="&#1098;" /><glyph d="M61 528C49 528 45 524 45 512V16C45 4 49 0 61 0H335C438 0 498 59 498 162V226C498 329 438 388 335 388H190V512C190 524 186 528 174 528ZM190 131V257H297C336 257 352 241 352 202V186C352 147 336 131 297 131ZM540 16C540 4 544 0 556 0H669C681 0 685 4 685 16V512C685 524 681 528 669 528H556C544 528 540 524 540 512Z" glyph-name="uni044B" horiz-adv-x="730" unicode="&#1099;" /><glyph d="M61 528C49 528 45 524 45 512V16C45 4 49 0 61 0H335C438 0 498 59 498 162V226C498 329 438 388 335 388H190V512C190 524 186 528 174 528ZM190 131V257H297C336 257 352 241 352 202V186C352 147 336 131 297 131Z" glyph-name="uni044C" horiz-adv-x="528" unicode="&#1100;" /><glyph d="M419 156V372C419 475 359 534 256 534C187 534 97 532 48 531C36 531 32 527 32 515V423C32 411 36 407 48 407C83 408 153 410 219 410C258 410 274 394 274 355V327H99C87 327 83 323 83 311V223C83 211 87 207 99 207H274V173C274 134 258 118 219 118C164 118 87 120 44 121C32 121 28 117 28 105V13C28 1 32 -3 44 -3C99 -4 195 -6 256 -6C359 -6 419 53 419 156Z" glyph-name="uni044D" horiz-adv-x="452" unicode="&#1101;" /><glyph d="M728 372C728 475 668 534 565 534H439C336 534 276 475 276 372V335H190V512C190 524 186 528 174 528H61C49 528 45 524 45 512V16C45 4 49 0 61 0H174C186 0 190 4 190 16V202H276V156C276 53 336 -6 439 -6H565C668 -6 728 50 728 153ZM420 353C420 392 436 408 475 408H529C568 408 584 392 584 353V175C584 136 568 120 529 120H475C436 120 420 136 420 175Z" glyph-name="uni044E" horiz-adv-x="761" unicode="&#1102;" /><glyph d="M467 0C479 0 483 4 483 16V512C483 524 479 528 467 528H193C90 528 30 469 30 366V322C30 251 58 201 109 177L40 47C33 34 26 19 26 11C26 3 32 0 40 0H165C177 0 182 5 188 16L265 160H338V16C338 4 342 0 354 0ZM338 407V281H231C192 281 176 297 176 336V352C176 391 192 407 231 407Z" glyph-name="uni044F" horiz-adv-x="528" unicode="&#1103;" /><glyph d="M176 359C176 398 192 414 231 414H276C315 414 331 398 331 359V308H176ZM460 13V109C460 121 456 125 444 125C388 124 292 122 231 122C192 122 176 138 176 177V211H458C470 211 474 215 474 227V372C474 475 414 534 311 534H196C93 534 33 475 33 372V156C33 53 93 -6 196 -6C281 -6 388 -4 444 -3C456 -3 460 1 460 13ZM291 594C301 594 306 597 306 604C306 611 298 624 294 631L246 713C239 725 235 729 223 729H94C84 729 79 726 79 719C79 711 88 700 95 692L163 610C172 599 178 594 190 594Z" glyph-name="uni0450" horiz-adv-x="502" unicode="&#1104;" /><glyph d="M176 359C176 398 192 414 231 414H276C315 414 331 398 331 359V308H176ZM460 13V109C460 121 456 125 444 125C388 124 292 122 231 122C192 122 176 138 176 177V211H458C470 211 474 215 474 227V372C474 475 414 534 311 534H196C93 534 33 475 33 372V156C33 53 93 -6 196 -6C281 -6 388 -4 444 -3C456 -3 460 1 460 13ZM220 713C220 725 216 729 204 729H89C77 729 73 725 73 713V610C73 598 77 594 89 594H204C216 594 220 598 220 610ZM436 713C436 725 432 729 420 729H305C293 729 289 725 289 713V610C289 598 293 594 305 594H420C432 594 436 598 436 610Z" glyph-name="uni0451" horiz-adv-x="502" unicode="&#1105;" /><glyph d="M199 468V574H307C319 574 323 578 323 590V639C323 651 319 655 307 655H199V688C199 700 195 704 183 704H70C58 704 54 700 54 688V655H19C7 655 3 651 3 639V590C3 578 7 574 19 574H54V16C54 4 58 0 70 0H183C195 0 199 4 199 16V395H296C335 395 351 379 351 340V-2C351 -24 345 -35 322 -35H272C260 -35 256 -39 256 -51V-151C256 -163 260 -166 272 -167C279 -168 290 -168 297 -168H350C455 -168 496 -127 496 -22V366C496 469 436 528 333 528H247C235 528 231 524 224 512Z" glyph-name="uni0452" horiz-adv-x="538" unicode="&#1106;" /><glyph d="M381 395C393 395 397 399 397 411V512C397 524 393 528 381 528H61C49 528 45 524 45 512V16C45 4 49 0 61 0H174C186 0 190 4 190 16V395ZM254 594C266 594 272 599 281 610L349 692C356 700 365 711 365 719C365 726 360 729 350 729H220C208 729 204 725 197 713L149 631C145 624 137 611 137 604C137 597 142 594 152 594Z" glyph-name="uni0453" horiz-adv-x="407" unicode="&#1107;" /><glyph d="M408 -3C420 -3 424 1 424 13V105C424 117 420 121 408 121C365 120 288 118 233 118C194 118 178 134 178 173V207H353C365 207 369 211 369 223V311C369 323 365 327 353 327H178V355C178 394 194 410 233 410C299 410 369 408 404 407C416 407 420 411 420 423V515C420 527 416 531 404 531C355 532 265 534 196 534C93 534 33 475 33 372V156C33 53 93 -6 196 -6C257 -6 353 -4 408 -3Z" glyph-name="uni0454" horiz-adv-x="452" unicode="&#1108;" /><glyph d="M49 124C37 124 33 120 33 108V18C33 6 37 2 49 2C102 1 204 -1 291 -1C394 -1 442 31 442 134V171C442 240 424 270 325 300L201 338C168 348 167 356 167 377C167 403 182 407 217 407C284 407 362 406 402 405C414 405 418 409 418 421V511C418 523 414 527 402 527C349 528 251 529 176 529C73 529 25 496 25 393V358C25 291 44 260 142 230L260 194C296 183 299 174 299 154C299 130 288 121 249 121C191 121 101 123 49 124Z" glyph-name="uni0455" horiz-adv-x="468" unicode="&#1109;" /><glyph d="M230 713C230 725 226 729 214 729H77C65 729 61 725 61 713V610C61 598 65 594 77 594H214C226 594 230 598 230 610ZM83 395V16C83 4 87 0 99 0H212C224 0 228 4 228 16V512C228 524 224 528 212 528H36C24 528 20 524 20 512V411C20 399 24 395 36 395Z" glyph-name="uni0456" horiz-adv-x="273" unicode="&#1110;" /><glyph d="M112 713C112 725 108 729 96 729H-19C-31 729 -35 725 -35 713V610C-35 598 -31 594 -19 594H96C108 594 112 598 112 610ZM308 713C308 725 304 729 292 729H177C165 729 161 725 161 713V610C161 598 165 594 177 594H292C304 594 308 598 308 610ZM83 395V16C83 4 87 0 99 0H212C224 0 228 4 228 16V512C228 524 224 528 212 528H36C24 528 20 524 20 512V411C20 399 24 395 36 395Z" glyph-name="uni0457" horiz-adv-x="273" unicode="&#1111;" /><glyph d="M245 711C245 723 241 727 229 727H96C84 727 80 723 80 711V610C80 598 84 594 96 594H229C241 594 245 598 245 610ZM245 512C245 524 241 528 229 528H53C41 528 37 524 37 512V411C37 399 41 395 53 395H100V-2C100 -24 94 -35 71 -35H21C9 -35 5 -39 5 -51V-151C5 -163 9 -166 21 -167C28 -168 39 -168 46 -168H99C204 -168 245 -127 245 -22Z" glyph-name="uni0458" horiz-adv-x="290" unicode="&#1112;" /><glyph d="M417 395V16C417 4 421 0 433 0H707C810 0 870 59 870 162V226C870 329 810 388 707 388H562V512C562 524 558 528 546 528H136C124 528 120 524 120 512V162C120 140 114 129 91 129H41C29 129 25 125 25 113V13C25 1 29 -2 41 -3C48 -4 59 -4 66 -4H119C224 -4 265 37 265 142V395ZM562 131V257H669C708 257 724 241 724 202V186C724 147 708 131 669 131Z" glyph-name="uni0459" horiz-adv-x="900" unicode="&#1113;" /><glyph d="M368 528C356 528 352 524 352 512V335H190V512C190 524 186 528 174 528H61C49 528 45 524 45 512V16C45 4 49 0 61 0H174C186 0 190 4 190 16V202H352V16C352 4 356 0 368 0H642C745 0 805 59 805 162V226C805 329 745 388 642 388H497V512C497 524 493 528 481 528ZM497 131V257H604C643 257 659 241 659 202V186C659 147 643 131 604 131Z" glyph-name="uni045A" horiz-adv-x="835" unicode="&#1114;" /><glyph d="M199 468V574H307C319 574 323 578 323 590V639C323 651 319 655 307 655H199V688C199 700 195 704 183 704H70C58 704 54 700 54 688V655H19C7 655 3 651 3 639V590C3 578 7 574 19 574H54V16C54 4 58 0 70 0H183C195 0 199 4 199 16V395H296C335 395 351 379 351 340V16C351 4 355 0 367 0H480C492 0 496 4 496 16V366C496 469 436 528 333 528H247C235 528 231 524 224 512Z" glyph-name="uni045B" horiz-adv-x="538" unicode="&#1115;" /><glyph d="M190 215H214C250 215 269 203 289 161L358 16C364 3 369 0 381 0H504C514 0 519 3 519 10C519 17 513 28 509 37L434 195C403 259 376 275 341 281C376 293 403 320 434 381L491 491C496 500 502 511 502 518C502 525 497 528 487 528H373C361 528 356 524 350 512L292 399C269 354 255 346 223 346H190V512C190 524 186 528 174 528H61C49 528 45 524 45 512V16C45 4 49 0 61 0H174C186 0 190 4 190 16ZM308 594C320 594 326 599 335 610L403 692C410 700 419 711 419 719C419 726 414 729 404 729H274C262 729 258 725 251 713L203 631C199 624 191 611 191 604C191 597 196 594 206 594Z" glyph-name="uni045C" horiz-adv-x="529" unicode="&#1116;" /><glyph d="M185 512C185 524 181 528 169 528H61C49 528 45 524 45 512V16C45 4 49 0 61 0H189C201 0 205 4 212 16L379 308C377 271 374 203 374 150V16C374 4 378 0 390 0H498C510 0 514 4 514 16V512C514 524 510 528 498 528H370C358 528 354 524 347 512L180 222C180 225 185 309 185 380ZM340 594C350 594 355 597 355 604C355 611 347 624 343 631L295 713C288 725 284 729 272 729H143C133 729 128 726 128 719C128 711 137 700 144 692L212 610C221 599 227 594 239 594Z" glyph-name="uni045D" horiz-adv-x="559" unicode="&#1117;" /><glyph d="M332 107V13C332 -26 316 -35 277 -35C227 -35 133 -33 76 -32C64 -32 60 -36 60 -48V-149C60 -161 64 -165 76 -165C137 -166 247 -168 321 -168C424 -168 477 -116 477 -13V512C477 524 473 528 461 528H348C336 528 332 524 332 512V180H237C198 180 182 196 182 235V512C182 524 178 528 166 528H53C41 528 37 524 37 512V209C37 106 97 47 200 47H284C296 47 300 51 307 63ZM411 713C411 725 407 729 395 729H313C301 729 297 725 297 713V699C297 681 290 673 271 673H250C232 673 224 681 224 699V713C224 725 220 729 208 729H126C114 729 110 725 110 713V668C110 619 138 592 187 592H333C383 592 411 619 411 667Z" glyph-name="uni045E" horiz-adv-x="522" unicode="&#1118;" /><glyph d="M192 0V-114C192 -126 196 -130 208 -130H321C333 -130 337 -126 337 -114V0H469C481 0 485 4 485 16V512C485 524 481 528 469 528H356C344 528 340 524 340 512V133H190V512C190 524 186 528 174 528H61C49 528 45 524 45 512V16C45 4 49 0 61 0Z" glyph-name="uni045F" horiz-adv-x="530" unicode="&#1119;" /><glyph d="M481 790C481 802 477 806 465 806H346C334 806 330 802 330 790V698H66C54 698 50 694 50 682V16C50 4 54 0 66 0H185C197 0 201 4 201 16V556H465C477 556 481 560 481 572Z" glyph-name="uni0490" horiz-adv-x="488" unicode="&#1168;" /><glyph d="M387 620C387 632 383 636 371 636H258C246 636 242 632 242 620V528H61C49 528 45 524 45 512V16C45 4 49 0 61 0H174C186 0 190 4 190 16V395H371C383 395 387 399 387 411Z" glyph-name="uni0491" horiz-adv-x="397" unicode="&#1169;" /><glyph d="M694 665C698 672 704 681 704 688C704 695 699 698 689 698H607C595 698 591 694 584 682L209 33C205 26 199 17 199 10C199 3 204 0 214 0H296C308 0 312 4 319 16ZM639 156C643 149 644 147 650 147H702C727 147 737 141 737 124V121C737 104 727 98 702 98C662 98 596 99 558 99C552 99 550 96 550 88V9C550 3 552 1 558 1C605 0 688 -1 741 -1C806 -1 846 38 846 98V125C846 200 804 222 748 222L828 279C832 282 832 285 832 290V364C832 370 830 372 824 372H563C556 372 554 370 554 364V286C554 279 556 277 563 277H704L620 217C614 213 612 210 612 207C612 204 613 202 614 200ZM154 599V429H74C68 429 66 427 66 421V338C66 332 68 330 74 330H339C345 330 347 332 347 338V421C347 427 345 429 339 429H264V690C264 696 262 698 256 698H136C130 698 127 696 124 690L81 616C79 612 75 608 75 604C75 600 78 599 83 599Z" glyph-name="uni2153" horiz-adv-x="901" unicode="&#8531;" /><glyph d="M121 532C81 518 60 498 60 449V338C60 332 62 330 69 330H339C346 330 348 332 348 338V421C348 428 346 430 339 430H170V434C170 452 176 451 200 460L294 493C334 507 355 527 355 576V605C355 667 314 706 248 706C206 706 125 705 75 704C69 704 67 702 67 696V613C67 606 69 604 75 604C113 605 178 606 219 606C237 606 245 603 245 592V587C245 579 243 575 225 569ZM699 665C703 672 709 681 709 688C709 695 704 698 694 698H612C600 698 596 694 589 682L214 33C210 26 204 17 204 10C204 3 209 0 219 0H301C313 0 317 4 324 16ZM644 156C648 149 649 147 655 147H707C732 147 742 141 742 124V121C742 104 732 98 707 98C667 98 601 99 563 99C557 99 555 96 555 88V9C555 3 557 1 563 1C610 0 693 -1 746 -1C811 -1 851 38 851 98V125C851 200 809 222 753 222L833 279C837 282 837 285 837 290V364C837 370 835 372 829 372H568C561 372 559 370 559 364V286C559 279 561 277 568 277H709L625 217C619 213 617 210 617 207C617 204 618 202 619 200Z" glyph-name="uni2154" horiz-adv-x="906" unicode="&#8532;" /><glyph d="M336 60 365 9C338 -6 300 -35 300 -82C300 -151 376 -160 443 -160C458 -160 470 -159 475 -159C485 -158 488 -156 488 -146V-82C488 -72 485 -69 475 -69H468C445 -69 431 -64 431 -46C431 -20 465 -2 471 1C478 5 479 8 479 15V512C479 524 475 528 463 528H350C338 528 334 524 334 512V133H239C200 133 184 149 184 188V512C184 524 180 528 168 528H55C43 528 39 524 39 512V162C39 59 99 0 202 0H288C300 0 304 4 311 16Z" glyph-name="uogonek" horiz-adv-x="524" unicode="&#371;" /><glyph d="M288 0C300 0 304 4 311 16L336 60L361 16C368 4 372 0 384 0H463C475 0 479 4 479 16V512C479 524 475 528 463 528H350C338 528 334 524 334 512V133H239C200 133 184 149 184 188V512C184 524 180 528 168 528H55C43 528 39 524 39 512V162C39 59 99 0 202 0ZM384 689C384 738 356 766 306 766H212C163 766 135 738 135 689V648C135 599 163 572 212 572H306C356 572 384 599 384 647ZM216 680C216 698 223 706 242 706H277C295 706 303 698 303 680V656C303 638 296 630 277 630H242C224 630 216 638 216 656Z" glyph-name="uring" horiz-adv-x="524" unicode="&#367;" /><glyph d="M288 0C300 0 304 4 311 16L336 60L361 16C368 4 372 0 384 0H463C475 0 479 4 479 16V512C479 524 475 528 463 528H350C338 528 334 524 334 512V133H239C200 133 184 149 184 188V512C184 524 180 528 168 528H55C43 528 39 524 39 512V162C39 59 99 0 202 0ZM177 620C177 633 179 644 196 644C225 644 251 586 330 586C399 586 442 624 442 699V713C442 725 438 729 426 729H360C348 729 344 725 344 713V703C344 690 342 679 325 679C296 679 270 737 191 737C122 737 79 699 79 624V610C79 598 83 594 95 594H161C173 594 177 598 177 610Z" glyph-name="utilde" horiz-adv-x="524" unicode="&#361;" /><glyph d="M507 488C510 504 512 514 512 517C512 524 509 528 499 528H382C370 528 367 524 365 512L305 166C299 131 295 127 267 127H261C234 127 229 131 223 166L164 512C162 524 159 528 147 528H28C18 528 15 524 15 517C15 514 17 504 20 488L88 119C104 34 125 -3 219 -3H307C401 -3 421 34 437 119Z" glyph-name="v" horiz-adv-x="527" unicode="v" /><glyph d="M568 -3C662 -3 686 33 698 119L748 488C750 504 752 514 752 517C752 524 749 528 739 528H620C608 528 604 524 603 512L563 168C559 133 553 129 525 129H492C465 129 459 133 459 168V506C459 518 454 522 442 522H332C320 522 315 518 315 506V168C315 133 305 129 277 129H247C220 129 213 133 209 168L170 512C169 524 165 528 153 528H33C23 528 20 524 20 517C20 514 21 504 23 488L71 119C87 34 108 -3 202 -3H279C371 -3 382 71 383 78C384 68 397 -3 487 -3Z" glyph-name="w" horiz-adv-x="772" unicode="w" /><glyph d="M28 40C20 28 12 15 12 9C12 3 15 0 25 0H155C167 0 170 4 177 16L261 158L343 16C350 5 353 0 365 0H506C516 0 519 3 519 9C519 15 511 28 503 40L354 271L492 488C502 503 510 513 510 519C510 525 507 528 497 528H363C351 528 348 524 341 512L262 374L188 508C181 520 179 524 167 524H27C17 524 14 521 14 515C14 509 22 496 30 484L171 263Z" glyph-name="x" horiz-adv-x="531" unicode="x" /><glyph d="M332 107V13C332 -26 316 -35 277 -35C227 -35 133 -33 76 -32C64 -32 60 -36 60 -48V-149C60 -161 64 -165 76 -165C137 -166 247 -168 321 -168C424 -168 477 -116 477 -13V512C477 524 473 528 461 528H348C336 528 332 524 332 512V180H237C198 180 182 196 182 235V512C182 524 178 528 166 528H53C41 528 37 524 37 512V209C37 106 97 47 200 47H284C296 47 300 51 307 63Z" glyph-name="y" horiz-adv-x="522" unicode="y" /><glyph d="M332 107V13C332 -26 316 -35 277 -35C227 -35 133 -33 76 -32C64 -32 60 -36 60 -48V-149C60 -161 64 -165 76 -165C137 -166 247 -168 321 -168C424 -168 477 -116 477 -13V512C477 524 473 528 461 528H348C336 528 332 524 332 512V180H237C198 180 182 196 182 235V512C182 524 178 528 166 528H53C41 528 37 524 37 512V209C37 106 97 47 200 47H284C296 47 300 51 307 63ZM304 594C316 594 322 599 331 610L399 692C406 700 415 711 415 719C415 726 410 729 400 729H270C258 729 254 725 247 713L199 631C195 624 187 611 187 604C187 597 192 594 202 594Z" glyph-name="yacute" horiz-adv-x="522" unicode="&#253;" /><glyph d="M332 107V13C332 -26 316 -35 277 -35C227 -35 133 -33 76 -32C64 -32 60 -36 60 -48V-149C60 -161 64 -165 76 -165C137 -166 247 -168 321 -168C424 -168 477 -116 477 -13V512C477 524 473 528 461 528H348C336 528 332 524 332 512V180H237C198 180 182 196 182 235V512C182 524 178 528 166 528H53C41 528 37 524 37 512V209C37 106 97 47 200 47H284C296 47 300 51 307 63ZM223 713C223 725 219 729 207 729H92C80 729 76 725 76 713V610C76 598 80 594 92 594H207C219 594 223 598 223 610ZM439 713C439 725 435 729 423 729H308C296 729 292 725 292 713V610C292 598 296 594 308 594H423C435 594 439 598 439 610Z" glyph-name="ydieresis" horiz-adv-x="522" unicode="&#255;" /><glyph d="M444 698C432 698 430 693 426 682L353 468C338 423 331 417 298 417H292C255 417 252 424 237 468L163 682C159 694 158 698 146 698H18C8 698 2 695 2 687C2 681 5 673 9 660L88 438C117 356 134 311 193 296L96 298C84 298 80 294 80 282V224C80 212 84 208 96 208H218V169H96C84 169 80 165 80 153V95C80 83 84 79 96 79H218V16C218 4 222 0 234 0H353C365 0 369 4 369 16V79H491C503 79 507 83 507 95V153C507 165 503 169 491 169H369V208H491C503 208 507 212 507 224V282C507 294 503 298 491 298L385 296C442 311 469 356 498 438L575 660C580 673 582 681 582 687C582 695 576 698 566 698Z" glyph-name="yen" horiz-adv-x="584" unicode="&#165;" /><glyph d="M33 16C33 4 37 0 49 0H429C441 0 445 4 445 16V116C445 128 441 132 429 132H211L427 404C435 414 435 419 435 433V512C435 524 431 528 419 528H54C42 528 38 524 38 512V412C38 400 42 396 54 396H258L41 122C33 112 33 107 33 93Z" glyph-name="z" horiz-adv-x="475" unicode="z" /><glyph d="M33 16C33 4 37 0 49 0H429C441 0 445 4 445 16V116C445 128 441 132 429 132H211L427 404C435 414 435 419 435 433V512C435 524 431 528 419 528H54C42 528 38 524 38 512V412C38 400 42 396 54 396H258L41 122C33 112 33 107 33 93ZM285 594C297 594 303 599 312 610L380 692C387 700 396 711 396 719C396 726 391 729 381 729H251C239 729 235 725 228 713L180 631C176 624 168 611 168 604C168 597 173 594 183 594Z" glyph-name="zacute" horiz-adv-x="475" unicode="&#378;" /><glyph d="M33 16C33 4 37 0 49 0H429C441 0 445 4 445 16V116C445 128 441 132 429 132H211L427 404C435 414 435 419 435 433V512C435 524 431 528 419 528H54C42 528 38 524 38 512V412C38 400 42 396 54 396H258L41 122C33 112 33 107 33 93ZM110 729C100 729 95 726 95 719C95 712 102 701 108 692L162 610C170 598 173 594 185 594H307C319 594 322 598 330 610L383 692C389 701 396 712 396 719C396 726 391 729 381 729H294C282 729 277 725 271 713L246 660L221 713C215 725 210 729 198 729Z" glyph-name="zcaron" horiz-adv-x="475" unicode="&#382;" /><glyph d="M33 16C33 4 37 0 49 0H429C441 0 445 4 445 16V116C445 128 441 132 429 132H211L427 404C435 414 435 419 435 433V512C435 524 431 528 419 528H54C42 528 38 524 38 512V412C38 400 42 396 54 396H258L41 122C33 112 33 107 33 93ZM322 713C322 725 318 729 306 729H169C157 729 153 725 153 713V610C153 598 157 594 169 594H306C318 594 322 598 322 610Z" glyph-name="zdotaccent" horiz-adv-x="475" unicode="&#380;" /><glyph d="M401 203C401 153 382 133 335 133H252C205 133 186 153 186 203V495C186 545 205 565 252 565H335C382 565 401 545 401 495ZM34 177C34 61 106 -8 230 -8H357C481 -8 553 61 553 177V521C553 637 481 706 357 706H230C106 706 34 637 34 521Z" glyph-name="zero" horiz-adv-x="584" unicode="0" /></font>
</defs>
</svg>
