<?xml version="1.0" encoding="utf-8"?>
<!-- Generator: Adobe Illustrator 20.1.0, SVG Export Plug-In . SVG Version: 6.00 Build 0)  -->
<svg version="1.1" id="Laag_1" xmlns="http://www.w3.org/2000/svg" xmlns:xlink="http://www.w3.org/1999/xlink" x="0px" y="0px"
	 viewBox="0 0 24 24" style="enable-background:new 0 0 24 24;" xml:space="preserve">
<style type="text/css">
	.st0{fill:#999A9C;}
</style>
<path class="st0" d="M16.3,14.6h-0.9l-0.3-0.3c1.1-1.3,1.8-3.1,1.8-4.9c0-4.2-3.4-7.6-7.6-7.6S1.8,5.1,1.8,9.3s3.4,7.6,7.6,7.6
	c1.9,0,3.6-0.7,4.9-1.8l0.3,0.3v0.9l5.8,5.8l1.7-1.7L16.3,14.6z M9.3,14.6c-2.9,0-5.3-2.3-5.3-5.3s2.3-5.3,5.3-5.3s5.3,2.3,5.3,5.3
	S12.2,14.6,9.3,14.6z"/>
</svg>
